SplineFontDB: 3.2
FontName: MiscFixed6x10
FullName: Misc Fixed 6x10
FamilyName: Misc Fixed 6x10
Weight: Book
Copyright: Public domain terminal emulator font.  Share and enjoy.
UComments: "2021-2-2: Created with FontForge (http://fontforge.org)"
Version: 001.000
ItalicAngle: 0
UnderlinePosition: -100
UnderlineWidth: 50
Ascent: 750
Descent: 250
InvalidEm: 0
LayerCount: 2
Layer: 0 0 "Back" 1
Layer: 1 0 "Fore" 0
XUID: [1021 950 -603091403 767514]
StyleMap: 0x0040
FSType: 0
OS2Version: 0
OS2_WeightWidthSlopeOnly: 0
OS2_UseTypoMetrics: 1
CreationTime: 1612310240
ModificationTime: 1612310240
PfmFamily: 48
TTFWeight: 400
TTFWidth: 5
LineGap: 0
VLineGap: 90
Panose: 2 0 6 9 0 0 0 0 0 0
OS2TypoAscent: 750
OS2TypoAOffset: 1
OS2TypoDescent: -250
OS2TypoDOffset: 1
OS2TypoLinegap: 0
OS2WinAscent: 750
OS2WinAOffset: 1
OS2WinDescent: 250
OS2WinDOffset: 1
HheadAscent: 750
HheadAOffset: 1
HheadDescent: -250
HheadDOffset: 1
OS2SubXSize: 650
OS2SubYSize: 700
OS2SubXOff: 0
OS2SubYOff: 140
OS2SupXSize: 650
OS2SupYSize: 700
OS2SupXOff: 0
OS2SupYOff: 480
OS2StrikeYSize: 49
OS2StrikeYPos: 258
OS2Vendor: 'PfEd'
DEI: 91125
Encoding: UnicodeBmp
UnicodeInterp: none
NameList: AGL For New Fonts
DisplaySize: 10
AntiAlias: 1
FitToEm: 0
BeginChars: 65536 1597

StartChar: char0
Encoding: 0 0 0
Width: 500
VWidth: 833
Flags: HW
LayerCount: 2
Back
Fore
SplineSet
0 500 m 1
 0 583.333007812 l 1
 83.3330078125 583.333007812 l 1
 83.3330078125 500 l 1
 0 500 l 1
166.666992188 500 m 1
 166.666992188 583.333007812 l 1
 250 583.333007812 l 1
 250 500 l 1
 166.666992188 500 l 1
333.333007812 500 m 1
 333.333007812 583.333007812 l 1
 416.666992188 583.333007812 l 1
 416.666992188 500 l 1
 333.333007812 500 l 1
0 333.333007812 m 1
 0 416.666992188 l 1
 83.3330078125 416.666992188 l 1
 83.3330078125 333.333007812 l 1
 0 333.333007812 l 1
333.333007812 333.333007812 m 1
 333.333007812 416.666992188 l 1
 416.666992188 416.666992188 l 1
 416.666992188 333.333007812 l 1
 333.333007812 333.333007812 l 1
0 166.666992188 m 1
 0 250 l 1
 83.3330078125 250 l 1
 83.3330078125 166.666992188 l 1
 0 166.666992188 l 1
333.333007812 166.666992188 m 1
 333.333007812 250 l 1
 416.666992188 250 l 1
 416.666992188 166.666992188 l 1
 333.333007812 166.666992188 l 1
0 0 m 1
 0 83.3330078125 l 1
 83.3330078125 83.3330078125 l 1
 83.3330078125 0 l 1
 0 0 l 1
166.666992188 0 m 1
 166.666992188 83.3330078125 l 1
 250 83.3330078125 l 1
 250 0 l 1
 166.666992188 0 l 1
333.333007812 0 m 1
 333.333007812 83.3330078125 l 1
 416.666992188 83.3330078125 l 1
 416.666992188 0 l 1
 333.333007812 0 l 1
EndSplineSet
EndChar

StartChar: exclam
Encoding: 33 33 2
Width: 500
VWidth: 833
Flags: HW
LayerCount: 2
Back
Fore
SplineSet
166.666992188 500 m 1
 166.666992188 583.333007812 l 1
 250 583.333007812 l 1
 250 500 l 1
 166.666992188 500 l 1
166.666992188 416.666992188 m 1
 166.666992188 500 l 1
 250 500 l 1
 250 416.666992188 l 1
 166.666992188 416.666992188 l 1
166.666992188 333.333007812 m 1
 166.666992188 416.666992188 l 1
 250 416.666992188 l 1
 250 333.333007812 l 1
 166.666992188 333.333007812 l 1
166.666992188 250 m 1
 166.666992188 333.333007812 l 1
 250 333.333007812 l 1
 250 250 l 1
 166.666992188 250 l 1
166.666992188 166.666992188 m 1
 166.666992188 250 l 1
 250 250 l 1
 250 166.666992188 l 1
 166.666992188 166.666992188 l 1
166.666992188 0 m 1
 166.666992188 83.3330078125 l 1
 250 83.3330078125 l 1
 250 0 l 1
 166.666992188 0 l 1
EndSplineSet
EndChar

StartChar: quotedbl
Encoding: 34 34 3
Width: 500
VWidth: 833
Flags: HW
LayerCount: 2
Back
Fore
SplineSet
83.3330078125 500 m 1
 83.3330078125 583.333007812 l 1
 166.666992188 583.333007812 l 1
 166.666992188 500 l 1
 83.3330078125 500 l 1
250 500 m 1
 250 583.333007812 l 1
 333.333007812 583.333007812 l 1
 333.333007812 500 l 1
 250 500 l 1
83.3330078125 416.666992188 m 1
 83.3330078125 500 l 1
 166.666992188 500 l 1
 166.666992188 416.666992188 l 1
 83.3330078125 416.666992188 l 1
250 416.666992188 m 1
 250 500 l 1
 333.333007812 500 l 1
 333.333007812 416.666992188 l 1
 250 416.666992188 l 1
83.3330078125 333.333007812 m 1
 83.3330078125 416.666992188 l 1
 166.666992188 416.666992188 l 1
 166.666992188 333.333007812 l 1
 83.3330078125 333.333007812 l 1
250 333.333007812 m 1
 250 416.666992188 l 1
 333.333007812 416.666992188 l 1
 333.333007812 333.333007812 l 1
 250 333.333007812 l 1
EndSplineSet
EndChar

StartChar: numbersign
Encoding: 35 35 4
Width: 500
VWidth: 833
Flags: HW
LayerCount: 2
Back
Fore
SplineSet
83.3330078125 500 m 1
 83.3330078125 583.333007812 l 1
 166.666992188 583.333007812 l 1
 166.666992188 500 l 1
 83.3330078125 500 l 1
250 500 m 1
 250 583.333007812 l 1
 333.333007812 583.333007812 l 1
 333.333007812 500 l 1
 250 500 l 1
83.3330078125 416.666992188 m 1
 83.3330078125 500 l 1
 166.666992188 500 l 1
 166.666992188 416.666992188 l 1
 83.3330078125 416.666992188 l 1
250 416.666992188 m 1
 250 500 l 1
 333.333007812 500 l 1
 333.333007812 416.666992188 l 1
 250 416.666992188 l 1
0 333.333007812 m 1
 0 416.666992188 l 1
 83.3330078125 416.666992188 l 1
 83.3330078125 333.333007812 l 1
 0 333.333007812 l 1
83.3330078125 333.333007812 m 1
 83.3330078125 416.666992188 l 1
 166.666992188 416.666992188 l 1
 166.666992188 333.333007812 l 1
 83.3330078125 333.333007812 l 1
166.666992188 333.333007812 m 1
 166.666992188 416.666992188 l 1
 250 416.666992188 l 1
 250 333.333007812 l 1
 166.666992188 333.333007812 l 1
250 333.333007812 m 1
 250 416.666992188 l 1
 333.333007812 416.666992188 l 1
 333.333007812 333.333007812 l 1
 250 333.333007812 l 1
333.333007812 333.333007812 m 1
 333.333007812 416.666992188 l 1
 416.666992188 416.666992188 l 1
 416.666992188 333.333007812 l 1
 333.333007812 333.333007812 l 1
83.3330078125 250 m 1
 83.3330078125 333.333007812 l 1
 166.666992188 333.333007812 l 1
 166.666992188 250 l 1
 83.3330078125 250 l 1
250 250 m 1
 250 333.333007812 l 1
 333.333007812 333.333007812 l 1
 333.333007812 250 l 1
 250 250 l 1
0 166.666992188 m 1
 0 250 l 1
 83.3330078125 250 l 1
 83.3330078125 166.666992188 l 1
 0 166.666992188 l 1
83.3330078125 166.666992188 m 1
 83.3330078125 250 l 1
 166.666992188 250 l 1
 166.666992188 166.666992188 l 1
 83.3330078125 166.666992188 l 1
166.666992188 166.666992188 m 1
 166.666992188 250 l 1
 250 250 l 1
 250 166.666992188 l 1
 166.666992188 166.666992188 l 1
250 166.666992188 m 1
 250 250 l 1
 333.333007812 250 l 1
 333.333007812 166.666992188 l 1
 250 166.666992188 l 1
333.333007812 166.666992188 m 1
 333.333007812 250 l 1
 416.666992188 250 l 1
 416.666992188 166.666992188 l 1
 333.333007812 166.666992188 l 1
83.3330078125 83.3330078125 m 1
 83.3330078125 166.666992188 l 1
 166.666992188 166.666992188 l 1
 166.666992188 83.3330078125 l 1
 83.3330078125 83.3330078125 l 1
250 83.3330078125 m 1
 250 166.666992188 l 1
 333.333007812 166.666992188 l 1
 333.333007812 83.3330078125 l 1
 250 83.3330078125 l 1
83.3330078125 0 m 1
 83.3330078125 83.3330078125 l 1
 166.666992188 83.3330078125 l 1
 166.666992188 0 l 1
 83.3330078125 0 l 1
250 0 m 1
 250 83.3330078125 l 1
 333.333007812 83.3330078125 l 1
 333.333007812 0 l 1
 250 0 l 1
EndSplineSet
EndChar

StartChar: dollar
Encoding: 36 36 5
Width: 500
VWidth: 833
Flags: HW
LayerCount: 2
Back
Fore
SplineSet
166.666992188 500 m 1
 166.666992188 583.333007812 l 1
 250 583.333007812 l 1
 250 500 l 1
 166.666992188 500 l 1
83.3330078125 416.666992188 m 1
 83.3330078125 500 l 1
 166.666992188 500 l 1
 166.666992188 416.666992188 l 1
 83.3330078125 416.666992188 l 1
166.666992188 416.666992188 m 1
 166.666992188 500 l 1
 250 500 l 1
 250 416.666992188 l 1
 166.666992188 416.666992188 l 1
250 416.666992188 m 1
 250 500 l 1
 333.333007812 500 l 1
 333.333007812 416.666992188 l 1
 250 416.666992188 l 1
0 333.333007812 m 1
 0 416.666992188 l 1
 83.3330078125 416.666992188 l 1
 83.3330078125 333.333007812 l 1
 0 333.333007812 l 1
166.666992188 333.333007812 m 1
 166.666992188 416.666992188 l 1
 250 416.666992188 l 1
 250 333.333007812 l 1
 166.666992188 333.333007812 l 1
83.3330078125 250 m 1
 83.3330078125 333.333007812 l 1
 166.666992188 333.333007812 l 1
 166.666992188 250 l 1
 83.3330078125 250 l 1
166.666992188 250 m 1
 166.666992188 333.333007812 l 1
 250 333.333007812 l 1
 250 250 l 1
 166.666992188 250 l 1
250 250 m 1
 250 333.333007812 l 1
 333.333007812 333.333007812 l 1
 333.333007812 250 l 1
 250 250 l 1
166.666992188 166.666992188 m 1
 166.666992188 250 l 1
 250 250 l 1
 250 166.666992188 l 1
 166.666992188 166.666992188 l 1
333.333007812 166.666992188 m 1
 333.333007812 250 l 1
 416.666992188 250 l 1
 416.666992188 166.666992188 l 1
 333.333007812 166.666992188 l 1
83.3330078125 83.3330078125 m 1
 83.3330078125 166.666992188 l 1
 166.666992188 166.666992188 l 1
 166.666992188 83.3330078125 l 1
 83.3330078125 83.3330078125 l 1
166.666992188 83.3330078125 m 1
 166.666992188 166.666992188 l 1
 250 166.666992188 l 1
 250 83.3330078125 l 1
 166.666992188 83.3330078125 l 1
250 83.3330078125 m 1
 250 166.666992188 l 1
 333.333007812 166.666992188 l 1
 333.333007812 83.3330078125 l 1
 250 83.3330078125 l 1
166.666992188 0 m 1
 166.666992188 83.3330078125 l 1
 250 83.3330078125 l 1
 250 0 l 1
 166.666992188 0 l 1
EndSplineSet
EndChar

StartChar: percent
Encoding: 37 37 6
Width: 500
VWidth: 833
Flags: HW
LayerCount: 2
Back
Fore
SplineSet
83.3330078125 500 m 1
 83.3330078125 583.333007812 l 1
 166.666992188 583.333007812 l 1
 166.666992188 500 l 1
 83.3330078125 500 l 1
333.333007812 500 m 1
 333.333007812 583.333007812 l 1
 416.666992188 583.333007812 l 1
 416.666992188 500 l 1
 333.333007812 500 l 1
0 416.666992188 m 1
 0 500 l 1
 83.3330078125 500 l 1
 83.3330078125 416.666992188 l 1
 0 416.666992188 l 1
166.666992188 416.666992188 m 1
 166.666992188 500 l 1
 250 500 l 1
 250 416.666992188 l 1
 166.666992188 416.666992188 l 1
333.333007812 416.666992188 m 1
 333.333007812 500 l 1
 416.666992188 500 l 1
 416.666992188 416.666992188 l 1
 333.333007812 416.666992188 l 1
83.3330078125 333.333007812 m 1
 83.3330078125 416.666992188 l 1
 166.666992188 416.666992188 l 1
 166.666992188 333.333007812 l 1
 83.3330078125 333.333007812 l 1
250 333.333007812 m 1
 250 416.666992188 l 1
 333.333007812 416.666992188 l 1
 333.333007812 333.333007812 l 1
 250 333.333007812 l 1
166.666992188 250 m 1
 166.666992188 333.333007812 l 1
 250 333.333007812 l 1
 250 250 l 1
 166.666992188 250 l 1
83.3330078125 166.666992188 m 1
 83.3330078125 250 l 1
 166.666992188 250 l 1
 166.666992188 166.666992188 l 1
 83.3330078125 166.666992188 l 1
250 166.666992188 m 1
 250 250 l 1
 333.333007812 250 l 1
 333.333007812 166.666992188 l 1
 250 166.666992188 l 1
0 83.3330078125 m 1
 0 166.666992188 l 1
 83.3330078125 166.666992188 l 1
 83.3330078125 83.3330078125 l 1
 0 83.3330078125 l 1
166.666992188 83.3330078125 m 1
 166.666992188 166.666992188 l 1
 250 166.666992188 l 1
 250 83.3330078125 l 1
 166.666992188 83.3330078125 l 1
333.333007812 83.3330078125 m 1
 333.333007812 166.666992188 l 1
 416.666992188 166.666992188 l 1
 416.666992188 83.3330078125 l 1
 333.333007812 83.3330078125 l 1
0 0 m 1
 0 83.3330078125 l 1
 83.3330078125 83.3330078125 l 1
 83.3330078125 0 l 1
 0 0 l 1
250 0 m 1
 250 83.3330078125 l 1
 333.333007812 83.3330078125 l 1
 333.333007812 0 l 1
 250 0 l 1
EndSplineSet
EndChar

StartChar: ampersand
Encoding: 38 38 7
Width: 500
VWidth: 833
Flags: HW
LayerCount: 2
Back
Fore
SplineSet
83.3330078125 500 m 1
 83.3330078125 583.333007812 l 1
 166.666992188 583.333007812 l 1
 166.666992188 500 l 1
 83.3330078125 500 l 1
0 416.666992188 m 1
 0 500 l 1
 83.3330078125 500 l 1
 83.3330078125 416.666992188 l 1
 0 416.666992188 l 1
166.666992188 416.666992188 m 1
 166.666992188 500 l 1
 250 500 l 1
 250 416.666992188 l 1
 166.666992188 416.666992188 l 1
0 333.333007812 m 1
 0 416.666992188 l 1
 83.3330078125 416.666992188 l 1
 83.3330078125 333.333007812 l 1
 0 333.333007812 l 1
166.666992188 333.333007812 m 1
 166.666992188 416.666992188 l 1
 250 416.666992188 l 1
 250 333.333007812 l 1
 166.666992188 333.333007812 l 1
83.3330078125 250 m 1
 83.3330078125 333.333007812 l 1
 166.666992188 333.333007812 l 1
 166.666992188 250 l 1
 83.3330078125 250 l 1
0 166.666992188 m 1
 0 250 l 1
 83.3330078125 250 l 1
 83.3330078125 166.666992188 l 1
 0 166.666992188 l 1
166.666992188 166.666992188 m 1
 166.666992188 250 l 1
 250 250 l 1
 250 166.666992188 l 1
 166.666992188 166.666992188 l 1
333.333007812 166.666992188 m 1
 333.333007812 250 l 1
 416.666992188 250 l 1
 416.666992188 166.666992188 l 1
 333.333007812 166.666992188 l 1
0 83.3330078125 m 1
 0 166.666992188 l 1
 83.3330078125 166.666992188 l 1
 83.3330078125 83.3330078125 l 1
 0 83.3330078125 l 1
250 83.3330078125 m 1
 250 166.666992188 l 1
 333.333007812 166.666992188 l 1
 333.333007812 83.3330078125 l 1
 250 83.3330078125 l 1
83.3330078125 0 m 1
 83.3330078125 83.3330078125 l 1
 166.666992188 83.3330078125 l 1
 166.666992188 0 l 1
 83.3330078125 0 l 1
166.666992188 0 m 1
 166.666992188 83.3330078125 l 1
 250 83.3330078125 l 1
 250 0 l 1
 166.666992188 0 l 1
333.333007812 0 m 1
 333.333007812 83.3330078125 l 1
 416.666992188 83.3330078125 l 1
 416.666992188 0 l 1
 333.333007812 0 l 1
EndSplineSet
EndChar

StartChar: quotesingle
Encoding: 39 39 8
Width: 500
VWidth: 833
Flags: HW
LayerCount: 2
Back
Fore
SplineSet
166.666992188 500 m 1
 166.666992188 583.333007812 l 1
 250 583.333007812 l 1
 250 500 l 1
 166.666992188 500 l 1
166.666992188 416.666992188 m 1
 166.666992188 500 l 1
 250 500 l 1
 250 416.666992188 l 1
 166.666992188 416.666992188 l 1
166.666992188 333.333007812 m 1
 166.666992188 416.666992188 l 1
 250 416.666992188 l 1
 250 333.333007812 l 1
 166.666992188 333.333007812 l 1
EndSplineSet
EndChar

StartChar: parenleft
Encoding: 40 40 9
Width: 500
VWidth: 833
Flags: HW
LayerCount: 2
Back
Fore
SplineSet
250 500 m 1
 250 583.333007812 l 1
 333.333007812 583.333007812 l 1
 333.333007812 500 l 1
 250 500 l 1
166.666992188 416.666992188 m 1
 166.666992188 500 l 1
 250 500 l 1
 250 416.666992188 l 1
 166.666992188 416.666992188 l 1
83.3330078125 333.333007812 m 1
 83.3330078125 416.666992188 l 1
 166.666992188 416.666992188 l 1
 166.666992188 333.333007812 l 1
 83.3330078125 333.333007812 l 1
83.3330078125 250 m 1
 83.3330078125 333.333007812 l 1
 166.666992188 333.333007812 l 1
 166.666992188 250 l 1
 83.3330078125 250 l 1
83.3330078125 166.666992188 m 1
 83.3330078125 250 l 1
 166.666992188 250 l 1
 166.666992188 166.666992188 l 1
 83.3330078125 166.666992188 l 1
166.666992188 83.3330078125 m 1
 166.666992188 166.666992188 l 1
 250 166.666992188 l 1
 250 83.3330078125 l 1
 166.666992188 83.3330078125 l 1
250 0 m 1
 250 83.3330078125 l 1
 333.333007812 83.3330078125 l 1
 333.333007812 0 l 1
 250 0 l 1
EndSplineSet
EndChar

StartChar: parenright
Encoding: 41 41 10
Width: 500
VWidth: 833
Flags: HW
LayerCount: 2
Back
Fore
SplineSet
83.3330078125 500 m 1
 83.3330078125 583.333007812 l 1
 166.666992188 583.333007812 l 1
 166.666992188 500 l 1
 83.3330078125 500 l 1
166.666992188 416.666992188 m 1
 166.666992188 500 l 1
 250 500 l 1
 250 416.666992188 l 1
 166.666992188 416.666992188 l 1
250 333.333007812 m 1
 250 416.666992188 l 1
 333.333007812 416.666992188 l 1
 333.333007812 333.333007812 l 1
 250 333.333007812 l 1
250 250 m 1
 250 333.333007812 l 1
 333.333007812 333.333007812 l 1
 333.333007812 250 l 1
 250 250 l 1
250 166.666992188 m 1
 250 250 l 1
 333.333007812 250 l 1
 333.333007812 166.666992188 l 1
 250 166.666992188 l 1
166.666992188 83.3330078125 m 1
 166.666992188 166.666992188 l 1
 250 166.666992188 l 1
 250 83.3330078125 l 1
 166.666992188 83.3330078125 l 1
83.3330078125 0 m 1
 83.3330078125 83.3330078125 l 1
 166.666992188 83.3330078125 l 1
 166.666992188 0 l 1
 83.3330078125 0 l 1
EndSplineSet
EndChar

StartChar: asterisk
Encoding: 42 42 11
Width: 500
VWidth: 833
Flags: HW
LayerCount: 2
Back
Fore
SplineSet
0 416.666992188 m 1
 0 500 l 1
 83.3330078125 500 l 1
 83.3330078125 416.666992188 l 1
 0 416.666992188 l 1
333.333007812 416.666992188 m 1
 333.333007812 500 l 1
 416.666992188 500 l 1
 416.666992188 416.666992188 l 1
 333.333007812 416.666992188 l 1
83.3330078125 333.333007812 m 1
 83.3330078125 416.666992188 l 1
 166.666992188 416.666992188 l 1
 166.666992188 333.333007812 l 1
 83.3330078125 333.333007812 l 1
250 333.333007812 m 1
 250 416.666992188 l 1
 333.333007812 416.666992188 l 1
 333.333007812 333.333007812 l 1
 250 333.333007812 l 1
0 250 m 1
 0 333.333007812 l 1
 83.3330078125 333.333007812 l 1
 83.3330078125 250 l 1
 0 250 l 1
83.3330078125 250 m 1
 83.3330078125 333.333007812 l 1
 166.666992188 333.333007812 l 1
 166.666992188 250 l 1
 83.3330078125 250 l 1
166.666992188 250 m 1
 166.666992188 333.333007812 l 1
 250 333.333007812 l 1
 250 250 l 1
 166.666992188 250 l 1
250 250 m 1
 250 333.333007812 l 1
 333.333007812 333.333007812 l 1
 333.333007812 250 l 1
 250 250 l 1
333.333007812 250 m 1
 333.333007812 333.333007812 l 1
 416.666992188 333.333007812 l 1
 416.666992188 250 l 1
 333.333007812 250 l 1
83.3330078125 166.666992188 m 1
 83.3330078125 250 l 1
 166.666992188 250 l 1
 166.666992188 166.666992188 l 1
 83.3330078125 166.666992188 l 1
250 166.666992188 m 1
 250 250 l 1
 333.333007812 250 l 1
 333.333007812 166.666992188 l 1
 250 166.666992188 l 1
0 83.3330078125 m 1
 0 166.666992188 l 1
 83.3330078125 166.666992188 l 1
 83.3330078125 83.3330078125 l 1
 0 83.3330078125 l 1
333.333007812 83.3330078125 m 1
 333.333007812 166.666992188 l 1
 416.666992188 166.666992188 l 1
 416.666992188 83.3330078125 l 1
 333.333007812 83.3330078125 l 1
EndSplineSet
EndChar

StartChar: plus
Encoding: 43 43 12
Width: 500
VWidth: 833
Flags: HW
LayerCount: 2
Back
Fore
SplineSet
166.666992188 416.666992188 m 1
 166.666992188 500 l 1
 250 500 l 1
 250 416.666992188 l 1
 166.666992188 416.666992188 l 1
166.666992188 333.333007812 m 1
 166.666992188 416.666992188 l 1
 250 416.666992188 l 1
 250 333.333007812 l 1
 166.666992188 333.333007812 l 1
0 250 m 1
 0 333.333007812 l 1
 83.3330078125 333.333007812 l 1
 83.3330078125 250 l 1
 0 250 l 1
83.3330078125 250 m 1
 83.3330078125 333.333007812 l 1
 166.666992188 333.333007812 l 1
 166.666992188 250 l 1
 83.3330078125 250 l 1
166.666992188 250 m 1
 166.666992188 333.333007812 l 1
 250 333.333007812 l 1
 250 250 l 1
 166.666992188 250 l 1
250 250 m 1
 250 333.333007812 l 1
 333.333007812 333.333007812 l 1
 333.333007812 250 l 1
 250 250 l 1
333.333007812 250 m 1
 333.333007812 333.333007812 l 1
 416.666992188 333.333007812 l 1
 416.666992188 250 l 1
 333.333007812 250 l 1
166.666992188 166.666992188 m 1
 166.666992188 250 l 1
 250 250 l 1
 250 166.666992188 l 1
 166.666992188 166.666992188 l 1
166.666992188 83.3330078125 m 1
 166.666992188 166.666992188 l 1
 250 166.666992188 l 1
 250 83.3330078125 l 1
 166.666992188 83.3330078125 l 1
EndSplineSet
EndChar

StartChar: comma
Encoding: 44 44 13
Width: 500
VWidth: 833
Flags: HW
LayerCount: 2
Back
Fore
SplineSet
166.666992188 83.3330078125 m 1
 166.666992188 166.666992188 l 1
 250 166.666992188 l 1
 250 83.3330078125 l 1
 166.666992188 83.3330078125 l 1
250 83.3330078125 m 1
 250 166.666992188 l 1
 333.333007812 166.666992188 l 1
 333.333007812 83.3330078125 l 1
 250 83.3330078125 l 1
166.666992188 0 m 1
 166.666992188 83.3330078125 l 1
 250 83.3330078125 l 1
 250 0 l 1
 166.666992188 0 l 1
83.3330078125 -83.3330078125 m 1
 83.3330078125 0 l 1
 166.666992188 0 l 1
 166.666992188 -83.3330078125 l 1
 83.3330078125 -83.3330078125 l 1
EndSplineSet
EndChar

StartChar: period
Encoding: 46 46 15
Width: 500
VWidth: 833
Flags: HW
LayerCount: 2
Back
Fore
SplineSet
166.666992188 83.3330078125 m 1
 166.666992188 166.666992188 l 1
 250 166.666992188 l 1
 250 83.3330078125 l 1
 166.666992188 83.3330078125 l 1
83.3330078125 0 m 1
 83.3330078125 83.3330078125 l 1
 166.666992188 83.3330078125 l 1
 166.666992188 0 l 1
 83.3330078125 0 l 1
166.666992188 0 m 1
 166.666992188 83.3330078125 l 1
 250 83.3330078125 l 1
 250 0 l 1
 166.666992188 0 l 1
250 0 m 1
 250 83.3330078125 l 1
 333.333007812 83.3330078125 l 1
 333.333007812 0 l 1
 250 0 l 1
166.666992188 -83.3330078125 m 1
 166.666992188 0 l 1
 250 0 l 1
 250 -83.3330078125 l 1
 166.666992188 -83.3330078125 l 1
EndSplineSet
EndChar

StartChar: slash
Encoding: 47 47 16
Width: 500
VWidth: 833
Flags: HW
LayerCount: 2
Back
Fore
SplineSet
333.333007812 500 m 1
 333.333007812 583.333007812 l 1
 416.666992188 583.333007812 l 1
 416.666992188 500 l 1
 333.333007812 500 l 1
333.333007812 416.666992188 m 1
 333.333007812 500 l 1
 416.666992188 500 l 1
 416.666992188 416.666992188 l 1
 333.333007812 416.666992188 l 1
250 333.333007812 m 1
 250 416.666992188 l 1
 333.333007812 416.666992188 l 1
 333.333007812 333.333007812 l 1
 250 333.333007812 l 1
166.666992188 250 m 1
 166.666992188 333.333007812 l 1
 250 333.333007812 l 1
 250 250 l 1
 166.666992188 250 l 1
83.3330078125 166.666992188 m 1
 83.3330078125 250 l 1
 166.666992188 250 l 1
 166.666992188 166.666992188 l 1
 83.3330078125 166.666992188 l 1
0 83.3330078125 m 1
 0 166.666992188 l 1
 83.3330078125 166.666992188 l 1
 83.3330078125 83.3330078125 l 1
 0 83.3330078125 l 1
0 0 m 1
 0 83.3330078125 l 1
 83.3330078125 83.3330078125 l 1
 83.3330078125 0 l 1
 0 0 l 1
EndSplineSet
EndChar

StartChar: zero
Encoding: 48 48 17
Width: 500
VWidth: 833
Flags: HW
LayerCount: 2
Back
Fore
SplineSet
166.666992188 500 m 1
 166.666992188 583.333007812 l 1
 250 583.333007812 l 1
 250 500 l 1
 166.666992188 500 l 1
83.3330078125 416.666992188 m 1
 83.3330078125 500 l 1
 166.666992188 500 l 1
 166.666992188 416.666992188 l 1
 83.3330078125 416.666992188 l 1
250 416.666992188 m 1
 250 500 l 1
 333.333007812 500 l 1
 333.333007812 416.666992188 l 1
 250 416.666992188 l 1
0 333.333007812 m 1
 0 416.666992188 l 1
 83.3330078125 416.666992188 l 1
 83.3330078125 333.333007812 l 1
 0 333.333007812 l 1
333.333007812 333.333007812 m 1
 333.333007812 416.666992188 l 1
 416.666992188 416.666992188 l 1
 416.666992188 333.333007812 l 1
 333.333007812 333.333007812 l 1
0 250 m 1
 0 333.333007812 l 1
 83.3330078125 333.333007812 l 1
 83.3330078125 250 l 1
 0 250 l 1
333.333007812 250 m 1
 333.333007812 333.333007812 l 1
 416.666992188 333.333007812 l 1
 416.666992188 250 l 1
 333.333007812 250 l 1
0 166.666992188 m 1
 0 250 l 1
 83.3330078125 250 l 1
 83.3330078125 166.666992188 l 1
 0 166.666992188 l 1
333.333007812 166.666992188 m 1
 333.333007812 250 l 1
 416.666992188 250 l 1
 416.666992188 166.666992188 l 1
 333.333007812 166.666992188 l 1
83.3330078125 83.3330078125 m 1
 83.3330078125 166.666992188 l 1
 166.666992188 166.666992188 l 1
 166.666992188 83.3330078125 l 1
 83.3330078125 83.3330078125 l 1
250 83.3330078125 m 1
 250 166.666992188 l 1
 333.333007812 166.666992188 l 1
 333.333007812 83.3330078125 l 1
 250 83.3330078125 l 1
166.666992188 0 m 1
 166.666992188 83.3330078125 l 1
 250 83.3330078125 l 1
 250 0 l 1
 166.666992188 0 l 1
EndSplineSet
EndChar

StartChar: one
Encoding: 49 49 18
Width: 500
VWidth: 833
Flags: HW
LayerCount: 2
Back
Fore
SplineSet
166.666992188 500 m 1
 166.666992188 583.333007812 l 1
 250 583.333007812 l 1
 250 500 l 1
 166.666992188 500 l 1
83.3330078125 416.666992188 m 1
 83.3330078125 500 l 1
 166.666992188 500 l 1
 166.666992188 416.666992188 l 1
 83.3330078125 416.666992188 l 1
166.666992188 416.666992188 m 1
 166.666992188 500 l 1
 250 500 l 1
 250 416.666992188 l 1
 166.666992188 416.666992188 l 1
0 333.333007812 m 1
 0 416.666992188 l 1
 83.3330078125 416.666992188 l 1
 83.3330078125 333.333007812 l 1
 0 333.333007812 l 1
166.666992188 333.333007812 m 1
 166.666992188 416.666992188 l 1
 250 416.666992188 l 1
 250 333.333007812 l 1
 166.666992188 333.333007812 l 1
166.666992188 250 m 1
 166.666992188 333.333007812 l 1
 250 333.333007812 l 1
 250 250 l 1
 166.666992188 250 l 1
166.666992188 166.666992188 m 1
 166.666992188 250 l 1
 250 250 l 1
 250 166.666992188 l 1
 166.666992188 166.666992188 l 1
166.666992188 83.3330078125 m 1
 166.666992188 166.666992188 l 1
 250 166.666992188 l 1
 250 83.3330078125 l 1
 166.666992188 83.3330078125 l 1
0 0 m 1
 0 83.3330078125 l 1
 83.3330078125 83.3330078125 l 1
 83.3330078125 0 l 1
 0 0 l 1
83.3330078125 0 m 1
 83.3330078125 83.3330078125 l 1
 166.666992188 83.3330078125 l 1
 166.666992188 0 l 1
 83.3330078125 0 l 1
166.666992188 0 m 1
 166.666992188 83.3330078125 l 1
 250 83.3330078125 l 1
 250 0 l 1
 166.666992188 0 l 1
250 0 m 1
 250 83.3330078125 l 1
 333.333007812 83.3330078125 l 1
 333.333007812 0 l 1
 250 0 l 1
333.333007812 0 m 1
 333.333007812 83.3330078125 l 1
 416.666992188 83.3330078125 l 1
 416.666992188 0 l 1
 333.333007812 0 l 1
EndSplineSet
EndChar

StartChar: two
Encoding: 50 50 19
Width: 500
VWidth: 833
Flags: HW
LayerCount: 2
Back
Fore
SplineSet
83.3330078125 500 m 1
 83.3330078125 583.333007812 l 1
 166.666992188 583.333007812 l 1
 166.666992188 500 l 1
 83.3330078125 500 l 1
166.666992188 500 m 1
 166.666992188 583.333007812 l 1
 250 583.333007812 l 1
 250 500 l 1
 166.666992188 500 l 1
250 500 m 1
 250 583.333007812 l 1
 333.333007812 583.333007812 l 1
 333.333007812 500 l 1
 250 500 l 1
0 416.666992188 m 1
 0 500 l 1
 83.3330078125 500 l 1
 83.3330078125 416.666992188 l 1
 0 416.666992188 l 1
333.333007812 416.666992188 m 1
 333.333007812 500 l 1
 416.666992188 500 l 1
 416.666992188 416.666992188 l 1
 333.333007812 416.666992188 l 1
333.333007812 333.333007812 m 1
 333.333007812 416.666992188 l 1
 416.666992188 416.666992188 l 1
 416.666992188 333.333007812 l 1
 333.333007812 333.333007812 l 1
166.666992188 250 m 1
 166.666992188 333.333007812 l 1
 250 333.333007812 l 1
 250 250 l 1
 166.666992188 250 l 1
250 250 m 1
 250 333.333007812 l 1
 333.333007812 333.333007812 l 1
 333.333007812 250 l 1
 250 250 l 1
83.3330078125 166.666992188 m 1
 83.3330078125 250 l 1
 166.666992188 250 l 1
 166.666992188 166.666992188 l 1
 83.3330078125 166.666992188 l 1
0 83.3330078125 m 1
 0 166.666992188 l 1
 83.3330078125 166.666992188 l 1
 83.3330078125 83.3330078125 l 1
 0 83.3330078125 l 1
0 0 m 1
 0 83.3330078125 l 1
 83.3330078125 83.3330078125 l 1
 83.3330078125 0 l 1
 0 0 l 1
83.3330078125 0 m 1
 83.3330078125 83.3330078125 l 1
 166.666992188 83.3330078125 l 1
 166.666992188 0 l 1
 83.3330078125 0 l 1
166.666992188 0 m 1
 166.666992188 83.3330078125 l 1
 250 83.3330078125 l 1
 250 0 l 1
 166.666992188 0 l 1
250 0 m 1
 250 83.3330078125 l 1
 333.333007812 83.3330078125 l 1
 333.333007812 0 l 1
 250 0 l 1
333.333007812 0 m 1
 333.333007812 83.3330078125 l 1
 416.666992188 83.3330078125 l 1
 416.666992188 0 l 1
 333.333007812 0 l 1
EndSplineSet
EndChar

StartChar: three
Encoding: 51 51 20
Width: 500
VWidth: 833
Flags: HW
LayerCount: 2
Back
Fore
SplineSet
0 500 m 1
 0 583.333007812 l 1
 83.3330078125 583.333007812 l 1
 83.3330078125 500 l 1
 0 500 l 1
83.3330078125 500 m 1
 83.3330078125 583.333007812 l 1
 166.666992188 583.333007812 l 1
 166.666992188 500 l 1
 83.3330078125 500 l 1
166.666992188 500 m 1
 166.666992188 583.333007812 l 1
 250 583.333007812 l 1
 250 500 l 1
 166.666992188 500 l 1
250 500 m 1
 250 583.333007812 l 1
 333.333007812 583.333007812 l 1
 333.333007812 500 l 1
 250 500 l 1
333.333007812 500 m 1
 333.333007812 583.333007812 l 1
 416.666992188 583.333007812 l 1
 416.666992188 500 l 1
 333.333007812 500 l 1
333.333007812 416.666992188 m 1
 333.333007812 500 l 1
 416.666992188 500 l 1
 416.666992188 416.666992188 l 1
 333.333007812 416.666992188 l 1
250 333.333007812 m 1
 250 416.666992188 l 1
 333.333007812 416.666992188 l 1
 333.333007812 333.333007812 l 1
 250 333.333007812 l 1
166.666992188 250 m 1
 166.666992188 333.333007812 l 1
 250 333.333007812 l 1
 250 250 l 1
 166.666992188 250 l 1
250 250 m 1
 250 333.333007812 l 1
 333.333007812 333.333007812 l 1
 333.333007812 250 l 1
 250 250 l 1
333.333007812 166.666992188 m 1
 333.333007812 250 l 1
 416.666992188 250 l 1
 416.666992188 166.666992188 l 1
 333.333007812 166.666992188 l 1
0 83.3330078125 m 1
 0 166.666992188 l 1
 83.3330078125 166.666992188 l 1
 83.3330078125 83.3330078125 l 1
 0 83.3330078125 l 1
333.333007812 83.3330078125 m 1
 333.333007812 166.666992188 l 1
 416.666992188 166.666992188 l 1
 416.666992188 83.3330078125 l 1
 333.333007812 83.3330078125 l 1
83.3330078125 0 m 1
 83.3330078125 83.3330078125 l 1
 166.666992188 83.3330078125 l 1
 166.666992188 0 l 1
 83.3330078125 0 l 1
166.666992188 0 m 1
 166.666992188 83.3330078125 l 1
 250 83.3330078125 l 1
 250 0 l 1
 166.666992188 0 l 1
250 0 m 1
 250 83.3330078125 l 1
 333.333007812 83.3330078125 l 1
 333.333007812 0 l 1
 250 0 l 1
EndSplineSet
EndChar

StartChar: four
Encoding: 52 52 21
Width: 500
VWidth: 833
Flags: HW
LayerCount: 2
Back
Fore
SplineSet
250 500 m 1
 250 583.333007812 l 1
 333.333007812 583.333007812 l 1
 333.333007812 500 l 1
 250 500 l 1
166.666992188 416.666992188 m 1
 166.666992188 500 l 1
 250 500 l 1
 250 416.666992188 l 1
 166.666992188 416.666992188 l 1
250 416.666992188 m 1
 250 500 l 1
 333.333007812 500 l 1
 333.333007812 416.666992188 l 1
 250 416.666992188 l 1
83.3330078125 333.333007812 m 1
 83.3330078125 416.666992188 l 1
 166.666992188 416.666992188 l 1
 166.666992188 333.333007812 l 1
 83.3330078125 333.333007812 l 1
250 333.333007812 m 1
 250 416.666992188 l 1
 333.333007812 416.666992188 l 1
 333.333007812 333.333007812 l 1
 250 333.333007812 l 1
0 250 m 1
 0 333.333007812 l 1
 83.3330078125 333.333007812 l 1
 83.3330078125 250 l 1
 0 250 l 1
250 250 m 1
 250 333.333007812 l 1
 333.333007812 333.333007812 l 1
 333.333007812 250 l 1
 250 250 l 1
0 166.666992188 m 1
 0 250 l 1
 83.3330078125 250 l 1
 83.3330078125 166.666992188 l 1
 0 166.666992188 l 1
83.3330078125 166.666992188 m 1
 83.3330078125 250 l 1
 166.666992188 250 l 1
 166.666992188 166.666992188 l 1
 83.3330078125 166.666992188 l 1
166.666992188 166.666992188 m 1
 166.666992188 250 l 1
 250 250 l 1
 250 166.666992188 l 1
 166.666992188 166.666992188 l 1
250 166.666992188 m 1
 250 250 l 1
 333.333007812 250 l 1
 333.333007812 166.666992188 l 1
 250 166.666992188 l 1
333.333007812 166.666992188 m 1
 333.333007812 250 l 1
 416.666992188 250 l 1
 416.666992188 166.666992188 l 1
 333.333007812 166.666992188 l 1
250 83.3330078125 m 1
 250 166.666992188 l 1
 333.333007812 166.666992188 l 1
 333.333007812 83.3330078125 l 1
 250 83.3330078125 l 1
250 0 m 1
 250 83.3330078125 l 1
 333.333007812 83.3330078125 l 1
 333.333007812 0 l 1
 250 0 l 1
EndSplineSet
EndChar

StartChar: five
Encoding: 53 53 22
Width: 500
VWidth: 833
Flags: HW
LayerCount: 2
Back
Fore
SplineSet
0 500 m 1
 0 583.333007812 l 1
 83.3330078125 583.333007812 l 1
 83.3330078125 500 l 1
 0 500 l 1
83.3330078125 500 m 1
 83.3330078125 583.333007812 l 1
 166.666992188 583.333007812 l 1
 166.666992188 500 l 1
 83.3330078125 500 l 1
166.666992188 500 m 1
 166.666992188 583.333007812 l 1
 250 583.333007812 l 1
 250 500 l 1
 166.666992188 500 l 1
250 500 m 1
 250 583.333007812 l 1
 333.333007812 583.333007812 l 1
 333.333007812 500 l 1
 250 500 l 1
333.333007812 500 m 1
 333.333007812 583.333007812 l 1
 416.666992188 583.333007812 l 1
 416.666992188 500 l 1
 333.333007812 500 l 1
0 416.666992188 m 1
 0 500 l 1
 83.3330078125 500 l 1
 83.3330078125 416.666992188 l 1
 0 416.666992188 l 1
0 333.333007812 m 1
 0 416.666992188 l 1
 83.3330078125 416.666992188 l 1
 83.3330078125 333.333007812 l 1
 0 333.333007812 l 1
166.666992188 333.333007812 m 1
 166.666992188 416.666992188 l 1
 250 416.666992188 l 1
 250 333.333007812 l 1
 166.666992188 333.333007812 l 1
250 333.333007812 m 1
 250 416.666992188 l 1
 333.333007812 416.666992188 l 1
 333.333007812 333.333007812 l 1
 250 333.333007812 l 1
0 250 m 1
 0 333.333007812 l 1
 83.3330078125 333.333007812 l 1
 83.3330078125 250 l 1
 0 250 l 1
83.3330078125 250 m 1
 83.3330078125 333.333007812 l 1
 166.666992188 333.333007812 l 1
 166.666992188 250 l 1
 83.3330078125 250 l 1
333.333007812 250 m 1
 333.333007812 333.333007812 l 1
 416.666992188 333.333007812 l 1
 416.666992188 250 l 1
 333.333007812 250 l 1
333.333007812 166.666992188 m 1
 333.333007812 250 l 1
 416.666992188 250 l 1
 416.666992188 166.666992188 l 1
 333.333007812 166.666992188 l 1
0 83.3330078125 m 1
 0 166.666992188 l 1
 83.3330078125 166.666992188 l 1
 83.3330078125 83.3330078125 l 1
 0 83.3330078125 l 1
333.333007812 83.3330078125 m 1
 333.333007812 166.666992188 l 1
 416.666992188 166.666992188 l 1
 416.666992188 83.3330078125 l 1
 333.333007812 83.3330078125 l 1
83.3330078125 0 m 1
 83.3330078125 83.3330078125 l 1
 166.666992188 83.3330078125 l 1
 166.666992188 0 l 1
 83.3330078125 0 l 1
166.666992188 0 m 1
 166.666992188 83.3330078125 l 1
 250 83.3330078125 l 1
 250 0 l 1
 166.666992188 0 l 1
250 0 m 1
 250 83.3330078125 l 1
 333.333007812 83.3330078125 l 1
 333.333007812 0 l 1
 250 0 l 1
EndSplineSet
EndChar

StartChar: six
Encoding: 54 54 23
Width: 500
VWidth: 833
Flags: HW
LayerCount: 2
Back
Fore
SplineSet
166.666992188 500 m 1
 166.666992188 583.333007812 l 1
 250 583.333007812 l 1
 250 500 l 1
 166.666992188 500 l 1
250 500 m 1
 250 583.333007812 l 1
 333.333007812 583.333007812 l 1
 333.333007812 500 l 1
 250 500 l 1
83.3330078125 416.666992188 m 1
 83.3330078125 500 l 1
 166.666992188 500 l 1
 166.666992188 416.666992188 l 1
 83.3330078125 416.666992188 l 1
0 333.333007812 m 1
 0 416.666992188 l 1
 83.3330078125 416.666992188 l 1
 83.3330078125 333.333007812 l 1
 0 333.333007812 l 1
0 250 m 1
 0 333.333007812 l 1
 83.3330078125 333.333007812 l 1
 83.3330078125 250 l 1
 0 250 l 1
166.666992188 250 m 1
 166.666992188 333.333007812 l 1
 250 333.333007812 l 1
 250 250 l 1
 166.666992188 250 l 1
250 250 m 1
 250 333.333007812 l 1
 333.333007812 333.333007812 l 1
 333.333007812 250 l 1
 250 250 l 1
0 166.666992188 m 1
 0 250 l 1
 83.3330078125 250 l 1
 83.3330078125 166.666992188 l 1
 0 166.666992188 l 1
83.3330078125 166.666992188 m 1
 83.3330078125 250 l 1
 166.666992188 250 l 1
 166.666992188 166.666992188 l 1
 83.3330078125 166.666992188 l 1
333.333007812 166.666992188 m 1
 333.333007812 250 l 1
 416.666992188 250 l 1
 416.666992188 166.666992188 l 1
 333.333007812 166.666992188 l 1
0 83.3330078125 m 1
 0 166.666992188 l 1
 83.3330078125 166.666992188 l 1
 83.3330078125 83.3330078125 l 1
 0 83.3330078125 l 1
333.333007812 83.3330078125 m 1
 333.333007812 166.666992188 l 1
 416.666992188 166.666992188 l 1
 416.666992188 83.3330078125 l 1
 333.333007812 83.3330078125 l 1
83.3330078125 0 m 1
 83.3330078125 83.3330078125 l 1
 166.666992188 83.3330078125 l 1
 166.666992188 0 l 1
 83.3330078125 0 l 1
166.666992188 0 m 1
 166.666992188 83.3330078125 l 1
 250 83.3330078125 l 1
 250 0 l 1
 166.666992188 0 l 1
250 0 m 1
 250 83.3330078125 l 1
 333.333007812 83.3330078125 l 1
 333.333007812 0 l 1
 250 0 l 1
EndSplineSet
EndChar

StartChar: seven
Encoding: 55 55 24
Width: 500
VWidth: 833
Flags: HW
LayerCount: 2
Back
Fore
SplineSet
0 500 m 1
 0 583.333007812 l 1
 83.3330078125 583.333007812 l 1
 83.3330078125 500 l 1
 0 500 l 1
83.3330078125 500 m 1
 83.3330078125 583.333007812 l 1
 166.666992188 583.333007812 l 1
 166.666992188 500 l 1
 83.3330078125 500 l 1
166.666992188 500 m 1
 166.666992188 583.333007812 l 1
 250 583.333007812 l 1
 250 500 l 1
 166.666992188 500 l 1
250 500 m 1
 250 583.333007812 l 1
 333.333007812 583.333007812 l 1
 333.333007812 500 l 1
 250 500 l 1
333.333007812 500 m 1
 333.333007812 583.333007812 l 1
 416.666992188 583.333007812 l 1
 416.666992188 500 l 1
 333.333007812 500 l 1
333.333007812 416.666992188 m 1
 333.333007812 500 l 1
 416.666992188 500 l 1
 416.666992188 416.666992188 l 1
 333.333007812 416.666992188 l 1
250 333.333007812 m 1
 250 416.666992188 l 1
 333.333007812 416.666992188 l 1
 333.333007812 333.333007812 l 1
 250 333.333007812 l 1
250 250 m 1
 250 333.333007812 l 1
 333.333007812 333.333007812 l 1
 333.333007812 250 l 1
 250 250 l 1
166.666992188 166.666992188 m 1
 166.666992188 250 l 1
 250 250 l 1
 250 166.666992188 l 1
 166.666992188 166.666992188 l 1
83.3330078125 83.3330078125 m 1
 83.3330078125 166.666992188 l 1
 166.666992188 166.666992188 l 1
 166.666992188 83.3330078125 l 1
 83.3330078125 83.3330078125 l 1
83.3330078125 0 m 1
 83.3330078125 83.3330078125 l 1
 166.666992188 83.3330078125 l 1
 166.666992188 0 l 1
 83.3330078125 0 l 1
EndSplineSet
EndChar

StartChar: eight
Encoding: 56 56 25
Width: 500
VWidth: 833
Flags: HW
LayerCount: 2
Back
Fore
SplineSet
83.3330078125 500 m 1
 83.3330078125 583.333007812 l 1
 166.666992188 583.333007812 l 1
 166.666992188 500 l 1
 83.3330078125 500 l 1
166.666992188 500 m 1
 166.666992188 583.333007812 l 1
 250 583.333007812 l 1
 250 500 l 1
 166.666992188 500 l 1
250 500 m 1
 250 583.333007812 l 1
 333.333007812 583.333007812 l 1
 333.333007812 500 l 1
 250 500 l 1
0 416.666992188 m 1
 0 500 l 1
 83.3330078125 500 l 1
 83.3330078125 416.666992188 l 1
 0 416.666992188 l 1
333.333007812 416.666992188 m 1
 333.333007812 500 l 1
 416.666992188 500 l 1
 416.666992188 416.666992188 l 1
 333.333007812 416.666992188 l 1
0 333.333007812 m 1
 0 416.666992188 l 1
 83.3330078125 416.666992188 l 1
 83.3330078125 333.333007812 l 1
 0 333.333007812 l 1
333.333007812 333.333007812 m 1
 333.333007812 416.666992188 l 1
 416.666992188 416.666992188 l 1
 416.666992188 333.333007812 l 1
 333.333007812 333.333007812 l 1
83.3330078125 250 m 1
 83.3330078125 333.333007812 l 1
 166.666992188 333.333007812 l 1
 166.666992188 250 l 1
 83.3330078125 250 l 1
166.666992188 250 m 1
 166.666992188 333.333007812 l 1
 250 333.333007812 l 1
 250 250 l 1
 166.666992188 250 l 1
250 250 m 1
 250 333.333007812 l 1
 333.333007812 333.333007812 l 1
 333.333007812 250 l 1
 250 250 l 1
0 166.666992188 m 1
 0 250 l 1
 83.3330078125 250 l 1
 83.3330078125 166.666992188 l 1
 0 166.666992188 l 1
333.333007812 166.666992188 m 1
 333.333007812 250 l 1
 416.666992188 250 l 1
 416.666992188 166.666992188 l 1
 333.333007812 166.666992188 l 1
0 83.3330078125 m 1
 0 166.666992188 l 1
 83.3330078125 166.666992188 l 1
 83.3330078125 83.3330078125 l 1
 0 83.3330078125 l 1
333.333007812 83.3330078125 m 1
 333.333007812 166.666992188 l 1
 416.666992188 166.666992188 l 1
 416.666992188 83.3330078125 l 1
 333.333007812 83.3330078125 l 1
83.3330078125 0 m 1
 83.3330078125 83.3330078125 l 1
 166.666992188 83.3330078125 l 1
 166.666992188 0 l 1
 83.3330078125 0 l 1
166.666992188 0 m 1
 166.666992188 83.3330078125 l 1
 250 83.3330078125 l 1
 250 0 l 1
 166.666992188 0 l 1
250 0 m 1
 250 83.3330078125 l 1
 333.333007812 83.3330078125 l 1
 333.333007812 0 l 1
 250 0 l 1
EndSplineSet
EndChar

StartChar: nine
Encoding: 57 57 26
Width: 500
VWidth: 833
Flags: HW
LayerCount: 2
Back
Fore
SplineSet
83.3330078125 500 m 1
 83.3330078125 583.333007812 l 1
 166.666992188 583.333007812 l 1
 166.666992188 500 l 1
 83.3330078125 500 l 1
166.666992188 500 m 1
 166.666992188 583.333007812 l 1
 250 583.333007812 l 1
 250 500 l 1
 166.666992188 500 l 1
250 500 m 1
 250 583.333007812 l 1
 333.333007812 583.333007812 l 1
 333.333007812 500 l 1
 250 500 l 1
0 416.666992188 m 1
 0 500 l 1
 83.3330078125 500 l 1
 83.3330078125 416.666992188 l 1
 0 416.666992188 l 1
333.333007812 416.666992188 m 1
 333.333007812 500 l 1
 416.666992188 500 l 1
 416.666992188 416.666992188 l 1
 333.333007812 416.666992188 l 1
0 333.333007812 m 1
 0 416.666992188 l 1
 83.3330078125 416.666992188 l 1
 83.3330078125 333.333007812 l 1
 0 333.333007812 l 1
250 333.333007812 m 1
 250 416.666992188 l 1
 333.333007812 416.666992188 l 1
 333.333007812 333.333007812 l 1
 250 333.333007812 l 1
333.333007812 333.333007812 m 1
 333.333007812 416.666992188 l 1
 416.666992188 416.666992188 l 1
 416.666992188 333.333007812 l 1
 333.333007812 333.333007812 l 1
83.3330078125 250 m 1
 83.3330078125 333.333007812 l 1
 166.666992188 333.333007812 l 1
 166.666992188 250 l 1
 83.3330078125 250 l 1
166.666992188 250 m 1
 166.666992188 333.333007812 l 1
 250 333.333007812 l 1
 250 250 l 1
 166.666992188 250 l 1
333.333007812 250 m 1
 333.333007812 333.333007812 l 1
 416.666992188 333.333007812 l 1
 416.666992188 250 l 1
 333.333007812 250 l 1
333.333007812 166.666992188 m 1
 333.333007812 250 l 1
 416.666992188 250 l 1
 416.666992188 166.666992188 l 1
 333.333007812 166.666992188 l 1
250 83.3330078125 m 1
 250 166.666992188 l 1
 333.333007812 166.666992188 l 1
 333.333007812 83.3330078125 l 1
 250 83.3330078125 l 1
83.3330078125 0 m 1
 83.3330078125 83.3330078125 l 1
 166.666992188 83.3330078125 l 1
 166.666992188 0 l 1
 83.3330078125 0 l 1
166.666992188 0 m 1
 166.666992188 83.3330078125 l 1
 250 83.3330078125 l 1
 250 0 l 1
 166.666992188 0 l 1
EndSplineSet
EndChar

StartChar: colon
Encoding: 58 58 27
Width: 500
VWidth: 833
Flags: HW
LayerCount: 2
Back
Fore
SplineSet
166.666992188 416.666992188 m 1
 166.666992188 500 l 1
 250 500 l 1
 250 416.666992188 l 1
 166.666992188 416.666992188 l 1
83.3330078125 333.333007812 m 1
 83.3330078125 416.666992188 l 1
 166.666992188 416.666992188 l 1
 166.666992188 333.333007812 l 1
 83.3330078125 333.333007812 l 1
166.666992188 333.333007812 m 1
 166.666992188 416.666992188 l 1
 250 416.666992188 l 1
 250 333.333007812 l 1
 166.666992188 333.333007812 l 1
250 333.333007812 m 1
 250 416.666992188 l 1
 333.333007812 416.666992188 l 1
 333.333007812 333.333007812 l 1
 250 333.333007812 l 1
166.666992188 250 m 1
 166.666992188 333.333007812 l 1
 250 333.333007812 l 1
 250 250 l 1
 166.666992188 250 l 1
166.666992188 83.3330078125 m 1
 166.666992188 166.666992188 l 1
 250 166.666992188 l 1
 250 83.3330078125 l 1
 166.666992188 83.3330078125 l 1
83.3330078125 0 m 1
 83.3330078125 83.3330078125 l 1
 166.666992188 83.3330078125 l 1
 166.666992188 0 l 1
 83.3330078125 0 l 1
166.666992188 0 m 1
 166.666992188 83.3330078125 l 1
 250 83.3330078125 l 1
 250 0 l 1
 166.666992188 0 l 1
250 0 m 1
 250 83.3330078125 l 1
 333.333007812 83.3330078125 l 1
 333.333007812 0 l 1
 250 0 l 1
166.666992188 -83.3330078125 m 1
 166.666992188 0 l 1
 250 0 l 1
 250 -83.3330078125 l 1
 166.666992188 -83.3330078125 l 1
EndSplineSet
EndChar

StartChar: semicolon
Encoding: 59 59 28
Width: 500
VWidth: 833
Flags: HW
LayerCount: 2
Back
Fore
SplineSet
166.666992188 416.666992188 m 1
 166.666992188 500 l 1
 250 500 l 1
 250 416.666992188 l 1
 166.666992188 416.666992188 l 1
83.3330078125 333.333007812 m 1
 83.3330078125 416.666992188 l 1
 166.666992188 416.666992188 l 1
 166.666992188 333.333007812 l 1
 83.3330078125 333.333007812 l 1
166.666992188 333.333007812 m 1
 166.666992188 416.666992188 l 1
 250 416.666992188 l 1
 250 333.333007812 l 1
 166.666992188 333.333007812 l 1
250 333.333007812 m 1
 250 416.666992188 l 1
 333.333007812 416.666992188 l 1
 333.333007812 333.333007812 l 1
 250 333.333007812 l 1
166.666992188 250 m 1
 166.666992188 333.333007812 l 1
 250 333.333007812 l 1
 250 250 l 1
 166.666992188 250 l 1
166.666992188 83.3330078125 m 1
 166.666992188 166.666992188 l 1
 250 166.666992188 l 1
 250 83.3330078125 l 1
 166.666992188 83.3330078125 l 1
250 83.3330078125 m 1
 250 166.666992188 l 1
 333.333007812 166.666992188 l 1
 333.333007812 83.3330078125 l 1
 250 83.3330078125 l 1
166.666992188 0 m 1
 166.666992188 83.3330078125 l 1
 250 83.3330078125 l 1
 250 0 l 1
 166.666992188 0 l 1
83.3330078125 -83.3330078125 m 1
 83.3330078125 0 l 1
 166.666992188 0 l 1
 166.666992188 -83.3330078125 l 1
 83.3330078125 -83.3330078125 l 1
EndSplineSet
EndChar

StartChar: less
Encoding: 60 60 29
Width: 500
VWidth: 833
Flags: HW
LayerCount: 2
Back
Fore
SplineSet
333.333007812 500 m 1
 333.333007812 583.333007812 l 1
 416.666992188 583.333007812 l 1
 416.666992188 500 l 1
 333.333007812 500 l 1
250 416.666992188 m 1
 250 500 l 1
 333.333007812 500 l 1
 333.333007812 416.666992188 l 1
 250 416.666992188 l 1
166.666992188 333.333007812 m 1
 166.666992188 416.666992188 l 1
 250 416.666992188 l 1
 250 333.333007812 l 1
 166.666992188 333.333007812 l 1
83.3330078125 250 m 1
 83.3330078125 333.333007812 l 1
 166.666992188 333.333007812 l 1
 166.666992188 250 l 1
 83.3330078125 250 l 1
166.666992188 166.666992188 m 1
 166.666992188 250 l 1
 250 250 l 1
 250 166.666992188 l 1
 166.666992188 166.666992188 l 1
250 83.3330078125 m 1
 250 166.666992188 l 1
 333.333007812 166.666992188 l 1
 333.333007812 83.3330078125 l 1
 250 83.3330078125 l 1
333.333007812 0 m 1
 333.333007812 83.3330078125 l 1
 416.666992188 83.3330078125 l 1
 416.666992188 0 l 1
 333.333007812 0 l 1
EndSplineSet
EndChar

StartChar: equal
Encoding: 61 61 30
Width: 500
VWidth: 833
Flags: HW
LayerCount: 2
Back
Fore
SplineSet
0 333.333007812 m 1
 0 416.666992188 l 1
 83.3330078125 416.666992188 l 1
 83.3330078125 333.333007812 l 1
 0 333.333007812 l 1
83.3330078125 333.333007812 m 1
 83.3330078125 416.666992188 l 1
 166.666992188 416.666992188 l 1
 166.666992188 333.333007812 l 1
 83.3330078125 333.333007812 l 1
166.666992188 333.333007812 m 1
 166.666992188 416.666992188 l 1
 250 416.666992188 l 1
 250 333.333007812 l 1
 166.666992188 333.333007812 l 1
250 333.333007812 m 1
 250 416.666992188 l 1
 333.333007812 416.666992188 l 1
 333.333007812 333.333007812 l 1
 250 333.333007812 l 1
333.333007812 333.333007812 m 1
 333.333007812 416.666992188 l 1
 416.666992188 416.666992188 l 1
 416.666992188 333.333007812 l 1
 333.333007812 333.333007812 l 1
0 166.666992188 m 1
 0 250 l 1
 83.3330078125 250 l 1
 83.3330078125 166.666992188 l 1
 0 166.666992188 l 1
83.3330078125 166.666992188 m 1
 83.3330078125 250 l 1
 166.666992188 250 l 1
 166.666992188 166.666992188 l 1
 83.3330078125 166.666992188 l 1
166.666992188 166.666992188 m 1
 166.666992188 250 l 1
 250 250 l 1
 250 166.666992188 l 1
 166.666992188 166.666992188 l 1
250 166.666992188 m 1
 250 250 l 1
 333.333007812 250 l 1
 333.333007812 166.666992188 l 1
 250 166.666992188 l 1
333.333007812 166.666992188 m 1
 333.333007812 250 l 1
 416.666992188 250 l 1
 416.666992188 166.666992188 l 1
 333.333007812 166.666992188 l 1
EndSplineSet
EndChar

StartChar: greater
Encoding: 62 62 31
Width: 500
VWidth: 833
Flags: HW
LayerCount: 2
Back
Fore
SplineSet
83.3330078125 500 m 1
 83.3330078125 583.333007812 l 1
 166.666992188 583.333007812 l 1
 166.666992188 500 l 1
 83.3330078125 500 l 1
166.666992188 416.666992188 m 1
 166.666992188 500 l 1
 250 500 l 1
 250 416.666992188 l 1
 166.666992188 416.666992188 l 1
250 333.333007812 m 1
 250 416.666992188 l 1
 333.333007812 416.666992188 l 1
 333.333007812 333.333007812 l 1
 250 333.333007812 l 1
333.333007812 250 m 1
 333.333007812 333.333007812 l 1
 416.666992188 333.333007812 l 1
 416.666992188 250 l 1
 333.333007812 250 l 1
250 166.666992188 m 1
 250 250 l 1
 333.333007812 250 l 1
 333.333007812 166.666992188 l 1
 250 166.666992188 l 1
166.666992188 83.3330078125 m 1
 166.666992188 166.666992188 l 1
 250 166.666992188 l 1
 250 83.3330078125 l 1
 166.666992188 83.3330078125 l 1
83.3330078125 0 m 1
 83.3330078125 83.3330078125 l 1
 166.666992188 83.3330078125 l 1
 166.666992188 0 l 1
 83.3330078125 0 l 1
EndSplineSet
EndChar

StartChar: question
Encoding: 63 63 32
Width: 500
VWidth: 833
Flags: HW
LayerCount: 2
Back
Fore
SplineSet
83.3330078125 500 m 1
 83.3330078125 583.333007812 l 1
 166.666992188 583.333007812 l 1
 166.666992188 500 l 1
 83.3330078125 500 l 1
166.666992188 500 m 1
 166.666992188 583.333007812 l 1
 250 583.333007812 l 1
 250 500 l 1
 166.666992188 500 l 1
250 500 m 1
 250 583.333007812 l 1
 333.333007812 583.333007812 l 1
 333.333007812 500 l 1
 250 500 l 1
0 416.666992188 m 1
 0 500 l 1
 83.3330078125 500 l 1
 83.3330078125 416.666992188 l 1
 0 416.666992188 l 1
333.333007812 416.666992188 m 1
 333.333007812 500 l 1
 416.666992188 500 l 1
 416.666992188 416.666992188 l 1
 333.333007812 416.666992188 l 1
250 333.333007812 m 1
 250 416.666992188 l 1
 333.333007812 416.666992188 l 1
 333.333007812 333.333007812 l 1
 250 333.333007812 l 1
166.666992188 250 m 1
 166.666992188 333.333007812 l 1
 250 333.333007812 l 1
 250 250 l 1
 166.666992188 250 l 1
166.666992188 166.666992188 m 1
 166.666992188 250 l 1
 250 250 l 1
 250 166.666992188 l 1
 166.666992188 166.666992188 l 1
166.666992188 0 m 1
 166.666992188 83.3330078125 l 1
 250 83.3330078125 l 1
 250 0 l 1
 166.666992188 0 l 1
EndSplineSet
EndChar

StartChar: at
Encoding: 64 64 33
Width: 500
VWidth: 833
Flags: HW
LayerCount: 2
Back
Fore
SplineSet
83.3330078125 500 m 1
 83.3330078125 583.333007812 l 1
 166.666992188 583.333007812 l 1
 166.666992188 500 l 1
 83.3330078125 500 l 1
166.666992188 500 m 1
 166.666992188 583.333007812 l 1
 250 583.333007812 l 1
 250 500 l 1
 166.666992188 500 l 1
250 500 m 1
 250 583.333007812 l 1
 333.333007812 583.333007812 l 1
 333.333007812 500 l 1
 250 500 l 1
0 416.666992188 m 1
 0 500 l 1
 83.3330078125 500 l 1
 83.3330078125 416.666992188 l 1
 0 416.666992188 l 1
333.333007812 416.666992188 m 1
 333.333007812 500 l 1
 416.666992188 500 l 1
 416.666992188 416.666992188 l 1
 333.333007812 416.666992188 l 1
0 333.333007812 m 1
 0 416.666992188 l 1
 83.3330078125 416.666992188 l 1
 83.3330078125 333.333007812 l 1
 0 333.333007812 l 1
250 333.333007812 m 1
 250 416.666992188 l 1
 333.333007812 416.666992188 l 1
 333.333007812 333.333007812 l 1
 250 333.333007812 l 1
333.333007812 333.333007812 m 1
 333.333007812 416.666992188 l 1
 416.666992188 416.666992188 l 1
 416.666992188 333.333007812 l 1
 333.333007812 333.333007812 l 1
0 250 m 1
 0 333.333007812 l 1
 83.3330078125 333.333007812 l 1
 83.3330078125 250 l 1
 0 250 l 1
166.666992188 250 m 1
 166.666992188 333.333007812 l 1
 250 333.333007812 l 1
 250 250 l 1
 166.666992188 250 l 1
333.333007812 250 m 1
 333.333007812 333.333007812 l 1
 416.666992188 333.333007812 l 1
 416.666992188 250 l 1
 333.333007812 250 l 1
0 166.666992188 m 1
 0 250 l 1
 83.3330078125 250 l 1
 83.3330078125 166.666992188 l 1
 0 166.666992188 l 1
166.666992188 166.666992188 m 1
 166.666992188 250 l 1
 250 250 l 1
 250 166.666992188 l 1
 166.666992188 166.666992188 l 1
250 166.666992188 m 1
 250 250 l 1
 333.333007812 250 l 1
 333.333007812 166.666992188 l 1
 250 166.666992188 l 1
0 83.3330078125 m 1
 0 166.666992188 l 1
 83.3330078125 166.666992188 l 1
 83.3330078125 83.3330078125 l 1
 0 83.3330078125 l 1
83.3330078125 0 m 1
 83.3330078125 83.3330078125 l 1
 166.666992188 83.3330078125 l 1
 166.666992188 0 l 1
 83.3330078125 0 l 1
166.666992188 0 m 1
 166.666992188 83.3330078125 l 1
 250 83.3330078125 l 1
 250 0 l 1
 166.666992188 0 l 1
250 0 m 1
 250 83.3330078125 l 1
 333.333007812 83.3330078125 l 1
 333.333007812 0 l 1
 250 0 l 1
EndSplineSet
EndChar

StartChar: A
Encoding: 65 65 34
Width: 500
VWidth: 833
Flags: HW
LayerCount: 2
Back
Fore
SplineSet
166.666992188 500 m 1
 166.666992188 583.333007812 l 1
 250 583.333007812 l 1
 250 500 l 1
 166.666992188 500 l 1
83.3330078125 416.666992188 m 1
 83.3330078125 500 l 1
 166.666992188 500 l 1
 166.666992188 416.666992188 l 1
 83.3330078125 416.666992188 l 1
250 416.666992188 m 1
 250 500 l 1
 333.333007812 500 l 1
 333.333007812 416.666992188 l 1
 250 416.666992188 l 1
0 333.333007812 m 1
 0 416.666992188 l 1
 83.3330078125 416.666992188 l 1
 83.3330078125 333.333007812 l 1
 0 333.333007812 l 1
333.333007812 333.333007812 m 1
 333.333007812 416.666992188 l 1
 416.666992188 416.666992188 l 1
 416.666992188 333.333007812 l 1
 333.333007812 333.333007812 l 1
0 250 m 1
 0 333.333007812 l 1
 83.3330078125 333.333007812 l 1
 83.3330078125 250 l 1
 0 250 l 1
333.333007812 250 m 1
 333.333007812 333.333007812 l 1
 416.666992188 333.333007812 l 1
 416.666992188 250 l 1
 333.333007812 250 l 1
0 166.666992188 m 1
 0 250 l 1
 83.3330078125 250 l 1
 83.3330078125 166.666992188 l 1
 0 166.666992188 l 1
83.3330078125 166.666992188 m 1
 83.3330078125 250 l 1
 166.666992188 250 l 1
 166.666992188 166.666992188 l 1
 83.3330078125 166.666992188 l 1
166.666992188 166.666992188 m 1
 166.666992188 250 l 1
 250 250 l 1
 250 166.666992188 l 1
 166.666992188 166.666992188 l 1
250 166.666992188 m 1
 250 250 l 1
 333.333007812 250 l 1
 333.333007812 166.666992188 l 1
 250 166.666992188 l 1
333.333007812 166.666992188 m 1
 333.333007812 250 l 1
 416.666992188 250 l 1
 416.666992188 166.666992188 l 1
 333.333007812 166.666992188 l 1
0 83.3330078125 m 1
 0 166.666992188 l 1
 83.3330078125 166.666992188 l 1
 83.3330078125 83.3330078125 l 1
 0 83.3330078125 l 1
333.333007812 83.3330078125 m 1
 333.333007812 166.666992188 l 1
 416.666992188 166.666992188 l 1
 416.666992188 83.3330078125 l 1
 333.333007812 83.3330078125 l 1
0 0 m 1
 0 83.3330078125 l 1
 83.3330078125 83.3330078125 l 1
 83.3330078125 0 l 1
 0 0 l 1
333.333007812 0 m 1
 333.333007812 83.3330078125 l 1
 416.666992188 83.3330078125 l 1
 416.666992188 0 l 1
 333.333007812 0 l 1
EndSplineSet
EndChar

StartChar: B
Encoding: 66 66 35
Width: 500
VWidth: 833
Flags: HW
LayerCount: 2
Back
Fore
SplineSet
0 500 m 1
 0 583.333007812 l 1
 83.3330078125 583.333007812 l 1
 83.3330078125 500 l 1
 0 500 l 1
83.3330078125 500 m 1
 83.3330078125 583.333007812 l 1
 166.666992188 583.333007812 l 1
 166.666992188 500 l 1
 83.3330078125 500 l 1
166.666992188 500 m 1
 166.666992188 583.333007812 l 1
 250 583.333007812 l 1
 250 500 l 1
 166.666992188 500 l 1
250 500 m 1
 250 583.333007812 l 1
 333.333007812 583.333007812 l 1
 333.333007812 500 l 1
 250 500 l 1
83.3330078125 416.666992188 m 1
 83.3330078125 500 l 1
 166.666992188 500 l 1
 166.666992188 416.666992188 l 1
 83.3330078125 416.666992188 l 1
333.333007812 416.666992188 m 1
 333.333007812 500 l 1
 416.666992188 500 l 1
 416.666992188 416.666992188 l 1
 333.333007812 416.666992188 l 1
83.3330078125 333.333007812 m 1
 83.3330078125 416.666992188 l 1
 166.666992188 416.666992188 l 1
 166.666992188 333.333007812 l 1
 83.3330078125 333.333007812 l 1
333.333007812 333.333007812 m 1
 333.333007812 416.666992188 l 1
 416.666992188 416.666992188 l 1
 416.666992188 333.333007812 l 1
 333.333007812 333.333007812 l 1
83.3330078125 250 m 1
 83.3330078125 333.333007812 l 1
 166.666992188 333.333007812 l 1
 166.666992188 250 l 1
 83.3330078125 250 l 1
166.666992188 250 m 1
 166.666992188 333.333007812 l 1
 250 333.333007812 l 1
 250 250 l 1
 166.666992188 250 l 1
250 250 m 1
 250 333.333007812 l 1
 333.333007812 333.333007812 l 1
 333.333007812 250 l 1
 250 250 l 1
83.3330078125 166.666992188 m 1
 83.3330078125 250 l 1
 166.666992188 250 l 1
 166.666992188 166.666992188 l 1
 83.3330078125 166.666992188 l 1
333.333007812 166.666992188 m 1
 333.333007812 250 l 1
 416.666992188 250 l 1
 416.666992188 166.666992188 l 1
 333.333007812 166.666992188 l 1
83.3330078125 83.3330078125 m 1
 83.3330078125 166.666992188 l 1
 166.666992188 166.666992188 l 1
 166.666992188 83.3330078125 l 1
 83.3330078125 83.3330078125 l 1
333.333007812 83.3330078125 m 1
 333.333007812 166.666992188 l 1
 416.666992188 166.666992188 l 1
 416.666992188 83.3330078125 l 1
 333.333007812 83.3330078125 l 1
0 0 m 1
 0 83.3330078125 l 1
 83.3330078125 83.3330078125 l 1
 83.3330078125 0 l 1
 0 0 l 1
83.3330078125 0 m 1
 83.3330078125 83.3330078125 l 1
 166.666992188 83.3330078125 l 1
 166.666992188 0 l 1
 83.3330078125 0 l 1
166.666992188 0 m 1
 166.666992188 83.3330078125 l 1
 250 83.3330078125 l 1
 250 0 l 1
 166.666992188 0 l 1
250 0 m 1
 250 83.3330078125 l 1
 333.333007812 83.3330078125 l 1
 333.333007812 0 l 1
 250 0 l 1
EndSplineSet
EndChar

StartChar: C
Encoding: 67 67 36
Width: 500
VWidth: 833
Flags: HW
LayerCount: 2
Back
Fore
SplineSet
83.3330078125 500 m 1
 83.3330078125 583.333007812 l 1
 166.666992188 583.333007812 l 1
 166.666992188 500 l 1
 83.3330078125 500 l 1
166.666992188 500 m 1
 166.666992188 583.333007812 l 1
 250 583.333007812 l 1
 250 500 l 1
 166.666992188 500 l 1
250 500 m 1
 250 583.333007812 l 1
 333.333007812 583.333007812 l 1
 333.333007812 500 l 1
 250 500 l 1
0 416.666992188 m 1
 0 500 l 1
 83.3330078125 500 l 1
 83.3330078125 416.666992188 l 1
 0 416.666992188 l 1
333.333007812 416.666992188 m 1
 333.333007812 500 l 1
 416.666992188 500 l 1
 416.666992188 416.666992188 l 1
 333.333007812 416.666992188 l 1
0 333.333007812 m 1
 0 416.666992188 l 1
 83.3330078125 416.666992188 l 1
 83.3330078125 333.333007812 l 1
 0 333.333007812 l 1
0 250 m 1
 0 333.333007812 l 1
 83.3330078125 333.333007812 l 1
 83.3330078125 250 l 1
 0 250 l 1
0 166.666992188 m 1
 0 250 l 1
 83.3330078125 250 l 1
 83.3330078125 166.666992188 l 1
 0 166.666992188 l 1
0 83.3330078125 m 1
 0 166.666992188 l 1
 83.3330078125 166.666992188 l 1
 83.3330078125 83.3330078125 l 1
 0 83.3330078125 l 1
333.333007812 83.3330078125 m 1
 333.333007812 166.666992188 l 1
 416.666992188 166.666992188 l 1
 416.666992188 83.3330078125 l 1
 333.333007812 83.3330078125 l 1
83.3330078125 0 m 1
 83.3330078125 83.3330078125 l 1
 166.666992188 83.3330078125 l 1
 166.666992188 0 l 1
 83.3330078125 0 l 1
166.666992188 0 m 1
 166.666992188 83.3330078125 l 1
 250 83.3330078125 l 1
 250 0 l 1
 166.666992188 0 l 1
250 0 m 1
 250 83.3330078125 l 1
 333.333007812 83.3330078125 l 1
 333.333007812 0 l 1
 250 0 l 1
EndSplineSet
EndChar

StartChar: D
Encoding: 68 68 37
Width: 500
VWidth: 833
Flags: HW
LayerCount: 2
Back
Fore
SplineSet
0 500 m 1
 0 583.333007812 l 1
 83.3330078125 583.333007812 l 1
 83.3330078125 500 l 1
 0 500 l 1
83.3330078125 500 m 1
 83.3330078125 583.333007812 l 1
 166.666992188 583.333007812 l 1
 166.666992188 500 l 1
 83.3330078125 500 l 1
166.666992188 500 m 1
 166.666992188 583.333007812 l 1
 250 583.333007812 l 1
 250 500 l 1
 166.666992188 500 l 1
250 500 m 1
 250 583.333007812 l 1
 333.333007812 583.333007812 l 1
 333.333007812 500 l 1
 250 500 l 1
83.3330078125 416.666992188 m 1
 83.3330078125 500 l 1
 166.666992188 500 l 1
 166.666992188 416.666992188 l 1
 83.3330078125 416.666992188 l 1
333.333007812 416.666992188 m 1
 333.333007812 500 l 1
 416.666992188 500 l 1
 416.666992188 416.666992188 l 1
 333.333007812 416.666992188 l 1
83.3330078125 333.333007812 m 1
 83.3330078125 416.666992188 l 1
 166.666992188 416.666992188 l 1
 166.666992188 333.333007812 l 1
 83.3330078125 333.333007812 l 1
333.333007812 333.333007812 m 1
 333.333007812 416.666992188 l 1
 416.666992188 416.666992188 l 1
 416.666992188 333.333007812 l 1
 333.333007812 333.333007812 l 1
83.3330078125 250 m 1
 83.3330078125 333.333007812 l 1
 166.666992188 333.333007812 l 1
 166.666992188 250 l 1
 83.3330078125 250 l 1
333.333007812 250 m 1
 333.333007812 333.333007812 l 1
 416.666992188 333.333007812 l 1
 416.666992188 250 l 1
 333.333007812 250 l 1
83.3330078125 166.666992188 m 1
 83.3330078125 250 l 1
 166.666992188 250 l 1
 166.666992188 166.666992188 l 1
 83.3330078125 166.666992188 l 1
333.333007812 166.666992188 m 1
 333.333007812 250 l 1
 416.666992188 250 l 1
 416.666992188 166.666992188 l 1
 333.333007812 166.666992188 l 1
83.3330078125 83.3330078125 m 1
 83.3330078125 166.666992188 l 1
 166.666992188 166.666992188 l 1
 166.666992188 83.3330078125 l 1
 83.3330078125 83.3330078125 l 1
333.333007812 83.3330078125 m 1
 333.333007812 166.666992188 l 1
 416.666992188 166.666992188 l 1
 416.666992188 83.3330078125 l 1
 333.333007812 83.3330078125 l 1
0 0 m 1
 0 83.3330078125 l 1
 83.3330078125 83.3330078125 l 1
 83.3330078125 0 l 1
 0 0 l 1
83.3330078125 0 m 1
 83.3330078125 83.3330078125 l 1
 166.666992188 83.3330078125 l 1
 166.666992188 0 l 1
 83.3330078125 0 l 1
166.666992188 0 m 1
 166.666992188 83.3330078125 l 1
 250 83.3330078125 l 1
 250 0 l 1
 166.666992188 0 l 1
250 0 m 1
 250 83.3330078125 l 1
 333.333007812 83.3330078125 l 1
 333.333007812 0 l 1
 250 0 l 1
EndSplineSet
EndChar

StartChar: E
Encoding: 69 69 38
Width: 500
VWidth: 833
Flags: HW
LayerCount: 2
Back
Fore
SplineSet
0 500 m 1
 0 583.333007812 l 1
 83.3330078125 583.333007812 l 1
 83.3330078125 500 l 1
 0 500 l 1
83.3330078125 500 m 1
 83.3330078125 583.333007812 l 1
 166.666992188 583.333007812 l 1
 166.666992188 500 l 1
 83.3330078125 500 l 1
166.666992188 500 m 1
 166.666992188 583.333007812 l 1
 250 583.333007812 l 1
 250 500 l 1
 166.666992188 500 l 1
250 500 m 1
 250 583.333007812 l 1
 333.333007812 583.333007812 l 1
 333.333007812 500 l 1
 250 500 l 1
333.333007812 500 m 1
 333.333007812 583.333007812 l 1
 416.666992188 583.333007812 l 1
 416.666992188 500 l 1
 333.333007812 500 l 1
0 416.666992188 m 1
 0 500 l 1
 83.3330078125 500 l 1
 83.3330078125 416.666992188 l 1
 0 416.666992188 l 1
0 333.333007812 m 1
 0 416.666992188 l 1
 83.3330078125 416.666992188 l 1
 83.3330078125 333.333007812 l 1
 0 333.333007812 l 1
0 250 m 1
 0 333.333007812 l 1
 83.3330078125 333.333007812 l 1
 83.3330078125 250 l 1
 0 250 l 1
83.3330078125 250 m 1
 83.3330078125 333.333007812 l 1
 166.666992188 333.333007812 l 1
 166.666992188 250 l 1
 83.3330078125 250 l 1
166.666992188 250 m 1
 166.666992188 333.333007812 l 1
 250 333.333007812 l 1
 250 250 l 1
 166.666992188 250 l 1
250 250 m 1
 250 333.333007812 l 1
 333.333007812 333.333007812 l 1
 333.333007812 250 l 1
 250 250 l 1
0 166.666992188 m 1
 0 250 l 1
 83.3330078125 250 l 1
 83.3330078125 166.666992188 l 1
 0 166.666992188 l 1
0 83.3330078125 m 1
 0 166.666992188 l 1
 83.3330078125 166.666992188 l 1
 83.3330078125 83.3330078125 l 1
 0 83.3330078125 l 1
0 0 m 1
 0 83.3330078125 l 1
 83.3330078125 83.3330078125 l 1
 83.3330078125 0 l 1
 0 0 l 1
83.3330078125 0 m 1
 83.3330078125 83.3330078125 l 1
 166.666992188 83.3330078125 l 1
 166.666992188 0 l 1
 83.3330078125 0 l 1
166.666992188 0 m 1
 166.666992188 83.3330078125 l 1
 250 83.3330078125 l 1
 250 0 l 1
 166.666992188 0 l 1
250 0 m 1
 250 83.3330078125 l 1
 333.333007812 83.3330078125 l 1
 333.333007812 0 l 1
 250 0 l 1
333.333007812 0 m 1
 333.333007812 83.3330078125 l 1
 416.666992188 83.3330078125 l 1
 416.666992188 0 l 1
 333.333007812 0 l 1
EndSplineSet
EndChar

StartChar: F
Encoding: 70 70 39
Width: 500
VWidth: 833
Flags: HW
LayerCount: 2
Back
Fore
SplineSet
0 500 m 1
 0 583.333007812 l 1
 83.3330078125 583.333007812 l 1
 83.3330078125 500 l 1
 0 500 l 1
83.3330078125 500 m 1
 83.3330078125 583.333007812 l 1
 166.666992188 583.333007812 l 1
 166.666992188 500 l 1
 83.3330078125 500 l 1
166.666992188 500 m 1
 166.666992188 583.333007812 l 1
 250 583.333007812 l 1
 250 500 l 1
 166.666992188 500 l 1
250 500 m 1
 250 583.333007812 l 1
 333.333007812 583.333007812 l 1
 333.333007812 500 l 1
 250 500 l 1
333.333007812 500 m 1
 333.333007812 583.333007812 l 1
 416.666992188 583.333007812 l 1
 416.666992188 500 l 1
 333.333007812 500 l 1
0 416.666992188 m 1
 0 500 l 1
 83.3330078125 500 l 1
 83.3330078125 416.666992188 l 1
 0 416.666992188 l 1
0 333.333007812 m 1
 0 416.666992188 l 1
 83.3330078125 416.666992188 l 1
 83.3330078125 333.333007812 l 1
 0 333.333007812 l 1
0 250 m 1
 0 333.333007812 l 1
 83.3330078125 333.333007812 l 1
 83.3330078125 250 l 1
 0 250 l 1
83.3330078125 250 m 1
 83.3330078125 333.333007812 l 1
 166.666992188 333.333007812 l 1
 166.666992188 250 l 1
 83.3330078125 250 l 1
166.666992188 250 m 1
 166.666992188 333.333007812 l 1
 250 333.333007812 l 1
 250 250 l 1
 166.666992188 250 l 1
250 250 m 1
 250 333.333007812 l 1
 333.333007812 333.333007812 l 1
 333.333007812 250 l 1
 250 250 l 1
0 166.666992188 m 1
 0 250 l 1
 83.3330078125 250 l 1
 83.3330078125 166.666992188 l 1
 0 166.666992188 l 1
0 83.3330078125 m 1
 0 166.666992188 l 1
 83.3330078125 166.666992188 l 1
 83.3330078125 83.3330078125 l 1
 0 83.3330078125 l 1
0 0 m 1
 0 83.3330078125 l 1
 83.3330078125 83.3330078125 l 1
 83.3330078125 0 l 1
 0 0 l 1
EndSplineSet
EndChar

StartChar: G
Encoding: 71 71 40
Width: 500
VWidth: 833
Flags: HW
LayerCount: 2
Back
Fore
SplineSet
83.3330078125 500 m 1
 83.3330078125 583.333007812 l 1
 166.666992188 583.333007812 l 1
 166.666992188 500 l 1
 83.3330078125 500 l 1
166.666992188 500 m 1
 166.666992188 583.333007812 l 1
 250 583.333007812 l 1
 250 500 l 1
 166.666992188 500 l 1
250 500 m 1
 250 583.333007812 l 1
 333.333007812 583.333007812 l 1
 333.333007812 500 l 1
 250 500 l 1
0 416.666992188 m 1
 0 500 l 1
 83.3330078125 500 l 1
 83.3330078125 416.666992188 l 1
 0 416.666992188 l 1
333.333007812 416.666992188 m 1
 333.333007812 500 l 1
 416.666992188 500 l 1
 416.666992188 416.666992188 l 1
 333.333007812 416.666992188 l 1
0 333.333007812 m 1
 0 416.666992188 l 1
 83.3330078125 416.666992188 l 1
 83.3330078125 333.333007812 l 1
 0 333.333007812 l 1
0 250 m 1
 0 333.333007812 l 1
 83.3330078125 333.333007812 l 1
 83.3330078125 250 l 1
 0 250 l 1
0 166.666992188 m 1
 0 250 l 1
 83.3330078125 250 l 1
 83.3330078125 166.666992188 l 1
 0 166.666992188 l 1
250 166.666992188 m 1
 250 250 l 1
 333.333007812 250 l 1
 333.333007812 166.666992188 l 1
 250 166.666992188 l 1
333.333007812 166.666992188 m 1
 333.333007812 250 l 1
 416.666992188 250 l 1
 416.666992188 166.666992188 l 1
 333.333007812 166.666992188 l 1
0 83.3330078125 m 1
 0 166.666992188 l 1
 83.3330078125 166.666992188 l 1
 83.3330078125 83.3330078125 l 1
 0 83.3330078125 l 1
333.333007812 83.3330078125 m 1
 333.333007812 166.666992188 l 1
 416.666992188 166.666992188 l 1
 416.666992188 83.3330078125 l 1
 333.333007812 83.3330078125 l 1
83.3330078125 0 m 1
 83.3330078125 83.3330078125 l 1
 166.666992188 83.3330078125 l 1
 166.666992188 0 l 1
 83.3330078125 0 l 1
166.666992188 0 m 1
 166.666992188 83.3330078125 l 1
 250 83.3330078125 l 1
 250 0 l 1
 166.666992188 0 l 1
250 0 m 1
 250 83.3330078125 l 1
 333.333007812 83.3330078125 l 1
 333.333007812 0 l 1
 250 0 l 1
EndSplineSet
EndChar

StartChar: H
Encoding: 72 72 41
Width: 500
VWidth: 833
Flags: HW
LayerCount: 2
Back
Fore
SplineSet
0 500 m 1
 0 583.333007812 l 1
 83.3330078125 583.333007812 l 1
 83.3330078125 500 l 1
 0 500 l 1
333.333007812 500 m 1
 333.333007812 583.333007812 l 1
 416.666992188 583.333007812 l 1
 416.666992188 500 l 1
 333.333007812 500 l 1
0 416.666992188 m 1
 0 500 l 1
 83.3330078125 500 l 1
 83.3330078125 416.666992188 l 1
 0 416.666992188 l 1
333.333007812 416.666992188 m 1
 333.333007812 500 l 1
 416.666992188 500 l 1
 416.666992188 416.666992188 l 1
 333.333007812 416.666992188 l 1
0 333.333007812 m 1
 0 416.666992188 l 1
 83.3330078125 416.666992188 l 1
 83.3330078125 333.333007812 l 1
 0 333.333007812 l 1
333.333007812 333.333007812 m 1
 333.333007812 416.666992188 l 1
 416.666992188 416.666992188 l 1
 416.666992188 333.333007812 l 1
 333.333007812 333.333007812 l 1
0 250 m 1
 0 333.333007812 l 1
 83.3330078125 333.333007812 l 1
 83.3330078125 250 l 1
 0 250 l 1
83.3330078125 250 m 1
 83.3330078125 333.333007812 l 1
 166.666992188 333.333007812 l 1
 166.666992188 250 l 1
 83.3330078125 250 l 1
166.666992188 250 m 1
 166.666992188 333.333007812 l 1
 250 333.333007812 l 1
 250 250 l 1
 166.666992188 250 l 1
250 250 m 1
 250 333.333007812 l 1
 333.333007812 333.333007812 l 1
 333.333007812 250 l 1
 250 250 l 1
333.333007812 250 m 1
 333.333007812 333.333007812 l 1
 416.666992188 333.333007812 l 1
 416.666992188 250 l 1
 333.333007812 250 l 1
0 166.666992188 m 1
 0 250 l 1
 83.3330078125 250 l 1
 83.3330078125 166.666992188 l 1
 0 166.666992188 l 1
333.333007812 166.666992188 m 1
 333.333007812 250 l 1
 416.666992188 250 l 1
 416.666992188 166.666992188 l 1
 333.333007812 166.666992188 l 1
0 83.3330078125 m 1
 0 166.666992188 l 1
 83.3330078125 166.666992188 l 1
 83.3330078125 83.3330078125 l 1
 0 83.3330078125 l 1
333.333007812 83.3330078125 m 1
 333.333007812 166.666992188 l 1
 416.666992188 166.666992188 l 1
 416.666992188 83.3330078125 l 1
 333.333007812 83.3330078125 l 1
0 0 m 1
 0 83.3330078125 l 1
 83.3330078125 83.3330078125 l 1
 83.3330078125 0 l 1
 0 0 l 1
333.333007812 0 m 1
 333.333007812 83.3330078125 l 1
 416.666992188 83.3330078125 l 1
 416.666992188 0 l 1
 333.333007812 0 l 1
EndSplineSet
EndChar

StartChar: I
Encoding: 73 73 42
Width: 500
VWidth: 833
Flags: HW
LayerCount: 2
Back
Fore
SplineSet
83.3330078125 500 m 1
 83.3330078125 583.333007812 l 1
 166.666992188 583.333007812 l 1
 166.666992188 500 l 1
 83.3330078125 500 l 1
166.666992188 500 m 1
 166.666992188 583.333007812 l 1
 250 583.333007812 l 1
 250 500 l 1
 166.666992188 500 l 1
250 500 m 1
 250 583.333007812 l 1
 333.333007812 583.333007812 l 1
 333.333007812 500 l 1
 250 500 l 1
166.666992188 416.666992188 m 1
 166.666992188 500 l 1
 250 500 l 1
 250 416.666992188 l 1
 166.666992188 416.666992188 l 1
166.666992188 333.333007812 m 1
 166.666992188 416.666992188 l 1
 250 416.666992188 l 1
 250 333.333007812 l 1
 166.666992188 333.333007812 l 1
166.666992188 250 m 1
 166.666992188 333.333007812 l 1
 250 333.333007812 l 1
 250 250 l 1
 166.666992188 250 l 1
166.666992188 166.666992188 m 1
 166.666992188 250 l 1
 250 250 l 1
 250 166.666992188 l 1
 166.666992188 166.666992188 l 1
166.666992188 83.3330078125 m 1
 166.666992188 166.666992188 l 1
 250 166.666992188 l 1
 250 83.3330078125 l 1
 166.666992188 83.3330078125 l 1
83.3330078125 0 m 1
 83.3330078125 83.3330078125 l 1
 166.666992188 83.3330078125 l 1
 166.666992188 0 l 1
 83.3330078125 0 l 1
166.666992188 0 m 1
 166.666992188 83.3330078125 l 1
 250 83.3330078125 l 1
 250 0 l 1
 166.666992188 0 l 1
250 0 m 1
 250 83.3330078125 l 1
 333.333007812 83.3330078125 l 1
 333.333007812 0 l 1
 250 0 l 1
EndSplineSet
EndChar

StartChar: J
Encoding: 74 74 43
Width: 500
VWidth: 833
Flags: HW
LayerCount: 2
Back
Fore
SplineSet
166.666992188 500 m 1
 166.666992188 583.333007812 l 1
 250 583.333007812 l 1
 250 500 l 1
 166.666992188 500 l 1
250 500 m 1
 250 583.333007812 l 1
 333.333007812 583.333007812 l 1
 333.333007812 500 l 1
 250 500 l 1
333.333007812 500 m 1
 333.333007812 583.333007812 l 1
 416.666992188 583.333007812 l 1
 416.666992188 500 l 1
 333.333007812 500 l 1
250 416.666992188 m 1
 250 500 l 1
 333.333007812 500 l 1
 333.333007812 416.666992188 l 1
 250 416.666992188 l 1
250 333.333007812 m 1
 250 416.666992188 l 1
 333.333007812 416.666992188 l 1
 333.333007812 333.333007812 l 1
 250 333.333007812 l 1
250 250 m 1
 250 333.333007812 l 1
 333.333007812 333.333007812 l 1
 333.333007812 250 l 1
 250 250 l 1
250 166.666992188 m 1
 250 250 l 1
 333.333007812 250 l 1
 333.333007812 166.666992188 l 1
 250 166.666992188 l 1
0 83.3330078125 m 1
 0 166.666992188 l 1
 83.3330078125 166.666992188 l 1
 83.3330078125 83.3330078125 l 1
 0 83.3330078125 l 1
250 83.3330078125 m 1
 250 166.666992188 l 1
 333.333007812 166.666992188 l 1
 333.333007812 83.3330078125 l 1
 250 83.3330078125 l 1
83.3330078125 0 m 1
 83.3330078125 83.3330078125 l 1
 166.666992188 83.3330078125 l 1
 166.666992188 0 l 1
 83.3330078125 0 l 1
166.666992188 0 m 1
 166.666992188 83.3330078125 l 1
 250 83.3330078125 l 1
 250 0 l 1
 166.666992188 0 l 1
EndSplineSet
EndChar

StartChar: K
Encoding: 75 75 44
Width: 500
VWidth: 833
Flags: HW
LayerCount: 2
Back
Fore
SplineSet
0 500 m 1
 0 583.333007812 l 1
 83.3330078125 583.333007812 l 1
 83.3330078125 500 l 1
 0 500 l 1
333.333007812 500 m 1
 333.333007812 583.333007812 l 1
 416.666992188 583.333007812 l 1
 416.666992188 500 l 1
 333.333007812 500 l 1
0 416.666992188 m 1
 0 500 l 1
 83.3330078125 500 l 1
 83.3330078125 416.666992188 l 1
 0 416.666992188 l 1
250 416.666992188 m 1
 250 500 l 1
 333.333007812 500 l 1
 333.333007812 416.666992188 l 1
 250 416.666992188 l 1
0 333.333007812 m 1
 0 416.666992188 l 1
 83.3330078125 416.666992188 l 1
 83.3330078125 333.333007812 l 1
 0 333.333007812 l 1
166.666992188 333.333007812 m 1
 166.666992188 416.666992188 l 1
 250 416.666992188 l 1
 250 333.333007812 l 1
 166.666992188 333.333007812 l 1
0 250 m 1
 0 333.333007812 l 1
 83.3330078125 333.333007812 l 1
 83.3330078125 250 l 1
 0 250 l 1
83.3330078125 250 m 1
 83.3330078125 333.333007812 l 1
 166.666992188 333.333007812 l 1
 166.666992188 250 l 1
 83.3330078125 250 l 1
0 166.666992188 m 1
 0 250 l 1
 83.3330078125 250 l 1
 83.3330078125 166.666992188 l 1
 0 166.666992188 l 1
166.666992188 166.666992188 m 1
 166.666992188 250 l 1
 250 250 l 1
 250 166.666992188 l 1
 166.666992188 166.666992188 l 1
0 83.3330078125 m 1
 0 166.666992188 l 1
 83.3330078125 166.666992188 l 1
 83.3330078125 83.3330078125 l 1
 0 83.3330078125 l 1
250 83.3330078125 m 1
 250 166.666992188 l 1
 333.333007812 166.666992188 l 1
 333.333007812 83.3330078125 l 1
 250 83.3330078125 l 1
0 0 m 1
 0 83.3330078125 l 1
 83.3330078125 83.3330078125 l 1
 83.3330078125 0 l 1
 0 0 l 1
333.333007812 0 m 1
 333.333007812 83.3330078125 l 1
 416.666992188 83.3330078125 l 1
 416.666992188 0 l 1
 333.333007812 0 l 1
EndSplineSet
EndChar

StartChar: L
Encoding: 76 76 45
Width: 500
VWidth: 833
Flags: HW
LayerCount: 2
Back
Fore
SplineSet
0 500 m 1
 0 583.333007812 l 1
 83.3330078125 583.333007812 l 1
 83.3330078125 500 l 1
 0 500 l 1
0 416.666992188 m 1
 0 500 l 1
 83.3330078125 500 l 1
 83.3330078125 416.666992188 l 1
 0 416.666992188 l 1
0 333.333007812 m 1
 0 416.666992188 l 1
 83.3330078125 416.666992188 l 1
 83.3330078125 333.333007812 l 1
 0 333.333007812 l 1
0 250 m 1
 0 333.333007812 l 1
 83.3330078125 333.333007812 l 1
 83.3330078125 250 l 1
 0 250 l 1
0 166.666992188 m 1
 0 250 l 1
 83.3330078125 250 l 1
 83.3330078125 166.666992188 l 1
 0 166.666992188 l 1
0 83.3330078125 m 1
 0 166.666992188 l 1
 83.3330078125 166.666992188 l 1
 83.3330078125 83.3330078125 l 1
 0 83.3330078125 l 1
0 0 m 1
 0 83.3330078125 l 1
 83.3330078125 83.3330078125 l 1
 83.3330078125 0 l 1
 0 0 l 1
83.3330078125 0 m 1
 83.3330078125 83.3330078125 l 1
 166.666992188 83.3330078125 l 1
 166.666992188 0 l 1
 83.3330078125 0 l 1
166.666992188 0 m 1
 166.666992188 83.3330078125 l 1
 250 83.3330078125 l 1
 250 0 l 1
 166.666992188 0 l 1
250 0 m 1
 250 83.3330078125 l 1
 333.333007812 83.3330078125 l 1
 333.333007812 0 l 1
 250 0 l 1
333.333007812 0 m 1
 333.333007812 83.3330078125 l 1
 416.666992188 83.3330078125 l 1
 416.666992188 0 l 1
 333.333007812 0 l 1
EndSplineSet
EndChar

StartChar: M
Encoding: 77 77 46
Width: 500
VWidth: 833
Flags: HW
LayerCount: 2
Back
Fore
SplineSet
0 500 m 1
 0 583.333007812 l 1
 83.3330078125 583.333007812 l 1
 83.3330078125 500 l 1
 0 500 l 1
333.333007812 500 m 1
 333.333007812 583.333007812 l 1
 416.666992188 583.333007812 l 1
 416.666992188 500 l 1
 333.333007812 500 l 1
0 416.666992188 m 1
 0 500 l 1
 83.3330078125 500 l 1
 83.3330078125 416.666992188 l 1
 0 416.666992188 l 1
333.333007812 416.666992188 m 1
 333.333007812 500 l 1
 416.666992188 500 l 1
 416.666992188 416.666992188 l 1
 333.333007812 416.666992188 l 1
0 333.333007812 m 1
 0 416.666992188 l 1
 83.3330078125 416.666992188 l 1
 83.3330078125 333.333007812 l 1
 0 333.333007812 l 1
83.3330078125 333.333007812 m 1
 83.3330078125 416.666992188 l 1
 166.666992188 416.666992188 l 1
 166.666992188 333.333007812 l 1
 83.3330078125 333.333007812 l 1
250 333.333007812 m 1
 250 416.666992188 l 1
 333.333007812 416.666992188 l 1
 333.333007812 333.333007812 l 1
 250 333.333007812 l 1
333.333007812 333.333007812 m 1
 333.333007812 416.666992188 l 1
 416.666992188 416.666992188 l 1
 416.666992188 333.333007812 l 1
 333.333007812 333.333007812 l 1
0 250 m 1
 0 333.333007812 l 1
 83.3330078125 333.333007812 l 1
 83.3330078125 250 l 1
 0 250 l 1
166.666992188 250 m 1
 166.666992188 333.333007812 l 1
 250 333.333007812 l 1
 250 250 l 1
 166.666992188 250 l 1
333.333007812 250 m 1
 333.333007812 333.333007812 l 1
 416.666992188 333.333007812 l 1
 416.666992188 250 l 1
 333.333007812 250 l 1
0 166.666992188 m 1
 0 250 l 1
 83.3330078125 250 l 1
 83.3330078125 166.666992188 l 1
 0 166.666992188 l 1
333.333007812 166.666992188 m 1
 333.333007812 250 l 1
 416.666992188 250 l 1
 416.666992188 166.666992188 l 1
 333.333007812 166.666992188 l 1
0 83.3330078125 m 1
 0 166.666992188 l 1
 83.3330078125 166.666992188 l 1
 83.3330078125 83.3330078125 l 1
 0 83.3330078125 l 1
333.333007812 83.3330078125 m 1
 333.333007812 166.666992188 l 1
 416.666992188 166.666992188 l 1
 416.666992188 83.3330078125 l 1
 333.333007812 83.3330078125 l 1
0 0 m 1
 0 83.3330078125 l 1
 83.3330078125 83.3330078125 l 1
 83.3330078125 0 l 1
 0 0 l 1
333.333007812 0 m 1
 333.333007812 83.3330078125 l 1
 416.666992188 83.3330078125 l 1
 416.666992188 0 l 1
 333.333007812 0 l 1
EndSplineSet
EndChar

StartChar: N
Encoding: 78 78 47
Width: 500
VWidth: 833
Flags: HW
LayerCount: 2
Back
Fore
SplineSet
0 500 m 1
 0 583.333007812 l 1
 83.3330078125 583.333007812 l 1
 83.3330078125 500 l 1
 0 500 l 1
333.333007812 500 m 1
 333.333007812 583.333007812 l 1
 416.666992188 583.333007812 l 1
 416.666992188 500 l 1
 333.333007812 500 l 1
0 416.666992188 m 1
 0 500 l 1
 83.3330078125 500 l 1
 83.3330078125 416.666992188 l 1
 0 416.666992188 l 1
333.333007812 416.666992188 m 1
 333.333007812 500 l 1
 416.666992188 500 l 1
 416.666992188 416.666992188 l 1
 333.333007812 416.666992188 l 1
0 333.333007812 m 1
 0 416.666992188 l 1
 83.3330078125 416.666992188 l 1
 83.3330078125 333.333007812 l 1
 0 333.333007812 l 1
83.3330078125 333.333007812 m 1
 83.3330078125 416.666992188 l 1
 166.666992188 416.666992188 l 1
 166.666992188 333.333007812 l 1
 83.3330078125 333.333007812 l 1
333.333007812 333.333007812 m 1
 333.333007812 416.666992188 l 1
 416.666992188 416.666992188 l 1
 416.666992188 333.333007812 l 1
 333.333007812 333.333007812 l 1
0 250 m 1
 0 333.333007812 l 1
 83.3330078125 333.333007812 l 1
 83.3330078125 250 l 1
 0 250 l 1
166.666992188 250 m 1
 166.666992188 333.333007812 l 1
 250 333.333007812 l 1
 250 250 l 1
 166.666992188 250 l 1
333.333007812 250 m 1
 333.333007812 333.333007812 l 1
 416.666992188 333.333007812 l 1
 416.666992188 250 l 1
 333.333007812 250 l 1
0 166.666992188 m 1
 0 250 l 1
 83.3330078125 250 l 1
 83.3330078125 166.666992188 l 1
 0 166.666992188 l 1
250 166.666992188 m 1
 250 250 l 1
 333.333007812 250 l 1
 333.333007812 166.666992188 l 1
 250 166.666992188 l 1
333.333007812 166.666992188 m 1
 333.333007812 250 l 1
 416.666992188 250 l 1
 416.666992188 166.666992188 l 1
 333.333007812 166.666992188 l 1
0 83.3330078125 m 1
 0 166.666992188 l 1
 83.3330078125 166.666992188 l 1
 83.3330078125 83.3330078125 l 1
 0 83.3330078125 l 1
333.333007812 83.3330078125 m 1
 333.333007812 166.666992188 l 1
 416.666992188 166.666992188 l 1
 416.666992188 83.3330078125 l 1
 333.333007812 83.3330078125 l 1
0 0 m 1
 0 83.3330078125 l 1
 83.3330078125 83.3330078125 l 1
 83.3330078125 0 l 1
 0 0 l 1
333.333007812 0 m 1
 333.333007812 83.3330078125 l 1
 416.666992188 83.3330078125 l 1
 416.666992188 0 l 1
 333.333007812 0 l 1
EndSplineSet
EndChar

StartChar: O
Encoding: 79 79 48
Width: 500
VWidth: 833
Flags: HW
LayerCount: 2
Back
Fore
SplineSet
83.3330078125 500 m 1
 83.3330078125 583.333007812 l 1
 166.666992188 583.333007812 l 1
 166.666992188 500 l 1
 83.3330078125 500 l 1
166.666992188 500 m 1
 166.666992188 583.333007812 l 1
 250 583.333007812 l 1
 250 500 l 1
 166.666992188 500 l 1
250 500 m 1
 250 583.333007812 l 1
 333.333007812 583.333007812 l 1
 333.333007812 500 l 1
 250 500 l 1
0 416.666992188 m 1
 0 500 l 1
 83.3330078125 500 l 1
 83.3330078125 416.666992188 l 1
 0 416.666992188 l 1
333.333007812 416.666992188 m 1
 333.333007812 500 l 1
 416.666992188 500 l 1
 416.666992188 416.666992188 l 1
 333.333007812 416.666992188 l 1
0 333.333007812 m 1
 0 416.666992188 l 1
 83.3330078125 416.666992188 l 1
 83.3330078125 333.333007812 l 1
 0 333.333007812 l 1
333.333007812 333.333007812 m 1
 333.333007812 416.666992188 l 1
 416.666992188 416.666992188 l 1
 416.666992188 333.333007812 l 1
 333.333007812 333.333007812 l 1
0 250 m 1
 0 333.333007812 l 1
 83.3330078125 333.333007812 l 1
 83.3330078125 250 l 1
 0 250 l 1
333.333007812 250 m 1
 333.333007812 333.333007812 l 1
 416.666992188 333.333007812 l 1
 416.666992188 250 l 1
 333.333007812 250 l 1
0 166.666992188 m 1
 0 250 l 1
 83.3330078125 250 l 1
 83.3330078125 166.666992188 l 1
 0 166.666992188 l 1
333.333007812 166.666992188 m 1
 333.333007812 250 l 1
 416.666992188 250 l 1
 416.666992188 166.666992188 l 1
 333.333007812 166.666992188 l 1
0 83.3330078125 m 1
 0 166.666992188 l 1
 83.3330078125 166.666992188 l 1
 83.3330078125 83.3330078125 l 1
 0 83.3330078125 l 1
333.333007812 83.3330078125 m 1
 333.333007812 166.666992188 l 1
 416.666992188 166.666992188 l 1
 416.666992188 83.3330078125 l 1
 333.333007812 83.3330078125 l 1
83.3330078125 0 m 1
 83.3330078125 83.3330078125 l 1
 166.666992188 83.3330078125 l 1
 166.666992188 0 l 1
 83.3330078125 0 l 1
166.666992188 0 m 1
 166.666992188 83.3330078125 l 1
 250 83.3330078125 l 1
 250 0 l 1
 166.666992188 0 l 1
250 0 m 1
 250 83.3330078125 l 1
 333.333007812 83.3330078125 l 1
 333.333007812 0 l 1
 250 0 l 1
EndSplineSet
EndChar

StartChar: P
Encoding: 80 80 49
Width: 500
VWidth: 833
Flags: HW
LayerCount: 2
Back
Fore
SplineSet
0 500 m 1
 0 583.333007812 l 1
 83.3330078125 583.333007812 l 1
 83.3330078125 500 l 1
 0 500 l 1
83.3330078125 500 m 1
 83.3330078125 583.333007812 l 1
 166.666992188 583.333007812 l 1
 166.666992188 500 l 1
 83.3330078125 500 l 1
166.666992188 500 m 1
 166.666992188 583.333007812 l 1
 250 583.333007812 l 1
 250 500 l 1
 166.666992188 500 l 1
250 500 m 1
 250 583.333007812 l 1
 333.333007812 583.333007812 l 1
 333.333007812 500 l 1
 250 500 l 1
0 416.666992188 m 1
 0 500 l 1
 83.3330078125 500 l 1
 83.3330078125 416.666992188 l 1
 0 416.666992188 l 1
333.333007812 416.666992188 m 1
 333.333007812 500 l 1
 416.666992188 500 l 1
 416.666992188 416.666992188 l 1
 333.333007812 416.666992188 l 1
0 333.333007812 m 1
 0 416.666992188 l 1
 83.3330078125 416.666992188 l 1
 83.3330078125 333.333007812 l 1
 0 333.333007812 l 1
333.333007812 333.333007812 m 1
 333.333007812 416.666992188 l 1
 416.666992188 416.666992188 l 1
 416.666992188 333.333007812 l 1
 333.333007812 333.333007812 l 1
0 250 m 1
 0 333.333007812 l 1
 83.3330078125 333.333007812 l 1
 83.3330078125 250 l 1
 0 250 l 1
83.3330078125 250 m 1
 83.3330078125 333.333007812 l 1
 166.666992188 333.333007812 l 1
 166.666992188 250 l 1
 83.3330078125 250 l 1
166.666992188 250 m 1
 166.666992188 333.333007812 l 1
 250 333.333007812 l 1
 250 250 l 1
 166.666992188 250 l 1
250 250 m 1
 250 333.333007812 l 1
 333.333007812 333.333007812 l 1
 333.333007812 250 l 1
 250 250 l 1
0 166.666992188 m 1
 0 250 l 1
 83.3330078125 250 l 1
 83.3330078125 166.666992188 l 1
 0 166.666992188 l 1
0 83.3330078125 m 1
 0 166.666992188 l 1
 83.3330078125 166.666992188 l 1
 83.3330078125 83.3330078125 l 1
 0 83.3330078125 l 1
0 0 m 1
 0 83.3330078125 l 1
 83.3330078125 83.3330078125 l 1
 83.3330078125 0 l 1
 0 0 l 1
EndSplineSet
EndChar

StartChar: Q
Encoding: 81 81 50
Width: 500
VWidth: 833
Flags: HW
LayerCount: 2
Back
Fore
SplineSet
83.3330078125 500 m 1
 83.3330078125 583.333007812 l 1
 166.666992188 583.333007812 l 1
 166.666992188 500 l 1
 83.3330078125 500 l 1
166.666992188 500 m 1
 166.666992188 583.333007812 l 1
 250 583.333007812 l 1
 250 500 l 1
 166.666992188 500 l 1
250 500 m 1
 250 583.333007812 l 1
 333.333007812 583.333007812 l 1
 333.333007812 500 l 1
 250 500 l 1
0 416.666992188 m 1
 0 500 l 1
 83.3330078125 500 l 1
 83.3330078125 416.666992188 l 1
 0 416.666992188 l 1
333.333007812 416.666992188 m 1
 333.333007812 500 l 1
 416.666992188 500 l 1
 416.666992188 416.666992188 l 1
 333.333007812 416.666992188 l 1
0 333.333007812 m 1
 0 416.666992188 l 1
 83.3330078125 416.666992188 l 1
 83.3330078125 333.333007812 l 1
 0 333.333007812 l 1
333.333007812 333.333007812 m 1
 333.333007812 416.666992188 l 1
 416.666992188 416.666992188 l 1
 416.666992188 333.333007812 l 1
 333.333007812 333.333007812 l 1
0 250 m 1
 0 333.333007812 l 1
 83.3330078125 333.333007812 l 1
 83.3330078125 250 l 1
 0 250 l 1
333.333007812 250 m 1
 333.333007812 333.333007812 l 1
 416.666992188 333.333007812 l 1
 416.666992188 250 l 1
 333.333007812 250 l 1
0 166.666992188 m 1
 0 250 l 1
 83.3330078125 250 l 1
 83.3330078125 166.666992188 l 1
 0 166.666992188 l 1
333.333007812 166.666992188 m 1
 333.333007812 250 l 1
 416.666992188 250 l 1
 416.666992188 166.666992188 l 1
 333.333007812 166.666992188 l 1
0 83.3330078125 m 1
 0 166.666992188 l 1
 83.3330078125 166.666992188 l 1
 83.3330078125 83.3330078125 l 1
 0 83.3330078125 l 1
166.666992188 83.3330078125 m 1
 166.666992188 166.666992188 l 1
 250 166.666992188 l 1
 250 83.3330078125 l 1
 166.666992188 83.3330078125 l 1
333.333007812 83.3330078125 m 1
 333.333007812 166.666992188 l 1
 416.666992188 166.666992188 l 1
 416.666992188 83.3330078125 l 1
 333.333007812 83.3330078125 l 1
83.3330078125 0 m 1
 83.3330078125 83.3330078125 l 1
 166.666992188 83.3330078125 l 1
 166.666992188 0 l 1
 83.3330078125 0 l 1
166.666992188 0 m 1
 166.666992188 83.3330078125 l 1
 250 83.3330078125 l 1
 250 0 l 1
 166.666992188 0 l 1
250 0 m 1
 250 83.3330078125 l 1
 333.333007812 83.3330078125 l 1
 333.333007812 0 l 1
 250 0 l 1
333.333007812 -83.3330078125 m 1
 333.333007812 0 l 1
 416.666992188 0 l 1
 416.666992188 -83.3330078125 l 1
 333.333007812 -83.3330078125 l 1
EndSplineSet
EndChar

StartChar: R
Encoding: 82 82 51
Width: 500
VWidth: 833
Flags: HW
LayerCount: 2
Back
Fore
SplineSet
0 500 m 1
 0 583.333007812 l 1
 83.3330078125 583.333007812 l 1
 83.3330078125 500 l 1
 0 500 l 1
83.3330078125 500 m 1
 83.3330078125 583.333007812 l 1
 166.666992188 583.333007812 l 1
 166.666992188 500 l 1
 83.3330078125 500 l 1
166.666992188 500 m 1
 166.666992188 583.333007812 l 1
 250 583.333007812 l 1
 250 500 l 1
 166.666992188 500 l 1
250 500 m 1
 250 583.333007812 l 1
 333.333007812 583.333007812 l 1
 333.333007812 500 l 1
 250 500 l 1
0 416.666992188 m 1
 0 500 l 1
 83.3330078125 500 l 1
 83.3330078125 416.666992188 l 1
 0 416.666992188 l 1
333.333007812 416.666992188 m 1
 333.333007812 500 l 1
 416.666992188 500 l 1
 416.666992188 416.666992188 l 1
 333.333007812 416.666992188 l 1
0 333.333007812 m 1
 0 416.666992188 l 1
 83.3330078125 416.666992188 l 1
 83.3330078125 333.333007812 l 1
 0 333.333007812 l 1
333.333007812 333.333007812 m 1
 333.333007812 416.666992188 l 1
 416.666992188 416.666992188 l 1
 416.666992188 333.333007812 l 1
 333.333007812 333.333007812 l 1
0 250 m 1
 0 333.333007812 l 1
 83.3330078125 333.333007812 l 1
 83.3330078125 250 l 1
 0 250 l 1
83.3330078125 250 m 1
 83.3330078125 333.333007812 l 1
 166.666992188 333.333007812 l 1
 166.666992188 250 l 1
 83.3330078125 250 l 1
166.666992188 250 m 1
 166.666992188 333.333007812 l 1
 250 333.333007812 l 1
 250 250 l 1
 166.666992188 250 l 1
250 250 m 1
 250 333.333007812 l 1
 333.333007812 333.333007812 l 1
 333.333007812 250 l 1
 250 250 l 1
0 166.666992188 m 1
 0 250 l 1
 83.3330078125 250 l 1
 83.3330078125 166.666992188 l 1
 0 166.666992188 l 1
166.666992188 166.666992188 m 1
 166.666992188 250 l 1
 250 250 l 1
 250 166.666992188 l 1
 166.666992188 166.666992188 l 1
0 83.3330078125 m 1
 0 166.666992188 l 1
 83.3330078125 166.666992188 l 1
 83.3330078125 83.3330078125 l 1
 0 83.3330078125 l 1
250 83.3330078125 m 1
 250 166.666992188 l 1
 333.333007812 166.666992188 l 1
 333.333007812 83.3330078125 l 1
 250 83.3330078125 l 1
0 0 m 1
 0 83.3330078125 l 1
 83.3330078125 83.3330078125 l 1
 83.3330078125 0 l 1
 0 0 l 1
333.333007812 0 m 1
 333.333007812 83.3330078125 l 1
 416.666992188 83.3330078125 l 1
 416.666992188 0 l 1
 333.333007812 0 l 1
EndSplineSet
EndChar

StartChar: S
Encoding: 83 83 52
Width: 500
VWidth: 833
Flags: HW
LayerCount: 2
Back
Fore
SplineSet
83.3330078125 500 m 1
 83.3330078125 583.333007812 l 1
 166.666992188 583.333007812 l 1
 166.666992188 500 l 1
 83.3330078125 500 l 1
166.666992188 500 m 1
 166.666992188 583.333007812 l 1
 250 583.333007812 l 1
 250 500 l 1
 166.666992188 500 l 1
250 500 m 1
 250 583.333007812 l 1
 333.333007812 583.333007812 l 1
 333.333007812 500 l 1
 250 500 l 1
0 416.666992188 m 1
 0 500 l 1
 83.3330078125 500 l 1
 83.3330078125 416.666992188 l 1
 0 416.666992188 l 1
333.333007812 416.666992188 m 1
 333.333007812 500 l 1
 416.666992188 500 l 1
 416.666992188 416.666992188 l 1
 333.333007812 416.666992188 l 1
0 333.333007812 m 1
 0 416.666992188 l 1
 83.3330078125 416.666992188 l 1
 83.3330078125 333.333007812 l 1
 0 333.333007812 l 1
83.3330078125 250 m 1
 83.3330078125 333.333007812 l 1
 166.666992188 333.333007812 l 1
 166.666992188 250 l 1
 83.3330078125 250 l 1
166.666992188 250 m 1
 166.666992188 333.333007812 l 1
 250 333.333007812 l 1
 250 250 l 1
 166.666992188 250 l 1
250 250 m 1
 250 333.333007812 l 1
 333.333007812 333.333007812 l 1
 333.333007812 250 l 1
 250 250 l 1
333.333007812 166.666992188 m 1
 333.333007812 250 l 1
 416.666992188 250 l 1
 416.666992188 166.666992188 l 1
 333.333007812 166.666992188 l 1
0 83.3330078125 m 1
 0 166.666992188 l 1
 83.3330078125 166.666992188 l 1
 83.3330078125 83.3330078125 l 1
 0 83.3330078125 l 1
333.333007812 83.3330078125 m 1
 333.333007812 166.666992188 l 1
 416.666992188 166.666992188 l 1
 416.666992188 83.3330078125 l 1
 333.333007812 83.3330078125 l 1
83.3330078125 0 m 1
 83.3330078125 83.3330078125 l 1
 166.666992188 83.3330078125 l 1
 166.666992188 0 l 1
 83.3330078125 0 l 1
166.666992188 0 m 1
 166.666992188 83.3330078125 l 1
 250 83.3330078125 l 1
 250 0 l 1
 166.666992188 0 l 1
250 0 m 1
 250 83.3330078125 l 1
 333.333007812 83.3330078125 l 1
 333.333007812 0 l 1
 250 0 l 1
EndSplineSet
EndChar

StartChar: T
Encoding: 84 84 53
Width: 500
VWidth: 833
Flags: HW
LayerCount: 2
Back
Fore
SplineSet
0 500 m 1
 0 583.333007812 l 1
 83.3330078125 583.333007812 l 1
 83.3330078125 500 l 1
 0 500 l 1
83.3330078125 500 m 1
 83.3330078125 583.333007812 l 1
 166.666992188 583.333007812 l 1
 166.666992188 500 l 1
 83.3330078125 500 l 1
166.666992188 500 m 1
 166.666992188 583.333007812 l 1
 250 583.333007812 l 1
 250 500 l 1
 166.666992188 500 l 1
250 500 m 1
 250 583.333007812 l 1
 333.333007812 583.333007812 l 1
 333.333007812 500 l 1
 250 500 l 1
333.333007812 500 m 1
 333.333007812 583.333007812 l 1
 416.666992188 583.333007812 l 1
 416.666992188 500 l 1
 333.333007812 500 l 1
166.666992188 416.666992188 m 1
 166.666992188 500 l 1
 250 500 l 1
 250 416.666992188 l 1
 166.666992188 416.666992188 l 1
166.666992188 333.333007812 m 1
 166.666992188 416.666992188 l 1
 250 416.666992188 l 1
 250 333.333007812 l 1
 166.666992188 333.333007812 l 1
166.666992188 250 m 1
 166.666992188 333.333007812 l 1
 250 333.333007812 l 1
 250 250 l 1
 166.666992188 250 l 1
166.666992188 166.666992188 m 1
 166.666992188 250 l 1
 250 250 l 1
 250 166.666992188 l 1
 166.666992188 166.666992188 l 1
166.666992188 83.3330078125 m 1
 166.666992188 166.666992188 l 1
 250 166.666992188 l 1
 250 83.3330078125 l 1
 166.666992188 83.3330078125 l 1
166.666992188 0 m 1
 166.666992188 83.3330078125 l 1
 250 83.3330078125 l 1
 250 0 l 1
 166.666992188 0 l 1
EndSplineSet
EndChar

StartChar: U
Encoding: 85 85 54
Width: 500
VWidth: 833
Flags: HW
LayerCount: 2
Back
Fore
SplineSet
0 500 m 1
 0 583.333007812 l 1
 83.3330078125 583.333007812 l 1
 83.3330078125 500 l 1
 0 500 l 1
333.333007812 500 m 1
 333.333007812 583.333007812 l 1
 416.666992188 583.333007812 l 1
 416.666992188 500 l 1
 333.333007812 500 l 1
0 416.666992188 m 1
 0 500 l 1
 83.3330078125 500 l 1
 83.3330078125 416.666992188 l 1
 0 416.666992188 l 1
333.333007812 416.666992188 m 1
 333.333007812 500 l 1
 416.666992188 500 l 1
 416.666992188 416.666992188 l 1
 333.333007812 416.666992188 l 1
0 333.333007812 m 1
 0 416.666992188 l 1
 83.3330078125 416.666992188 l 1
 83.3330078125 333.333007812 l 1
 0 333.333007812 l 1
333.333007812 333.333007812 m 1
 333.333007812 416.666992188 l 1
 416.666992188 416.666992188 l 1
 416.666992188 333.333007812 l 1
 333.333007812 333.333007812 l 1
0 250 m 1
 0 333.333007812 l 1
 83.3330078125 333.333007812 l 1
 83.3330078125 250 l 1
 0 250 l 1
333.333007812 250 m 1
 333.333007812 333.333007812 l 1
 416.666992188 333.333007812 l 1
 416.666992188 250 l 1
 333.333007812 250 l 1
0 166.666992188 m 1
 0 250 l 1
 83.3330078125 250 l 1
 83.3330078125 166.666992188 l 1
 0 166.666992188 l 1
333.333007812 166.666992188 m 1
 333.333007812 250 l 1
 416.666992188 250 l 1
 416.666992188 166.666992188 l 1
 333.333007812 166.666992188 l 1
0 83.3330078125 m 1
 0 166.666992188 l 1
 83.3330078125 166.666992188 l 1
 83.3330078125 83.3330078125 l 1
 0 83.3330078125 l 1
333.333007812 83.3330078125 m 1
 333.333007812 166.666992188 l 1
 416.666992188 166.666992188 l 1
 416.666992188 83.3330078125 l 1
 333.333007812 83.3330078125 l 1
83.3330078125 0 m 1
 83.3330078125 83.3330078125 l 1
 166.666992188 83.3330078125 l 1
 166.666992188 0 l 1
 83.3330078125 0 l 1
166.666992188 0 m 1
 166.666992188 83.3330078125 l 1
 250 83.3330078125 l 1
 250 0 l 1
 166.666992188 0 l 1
250 0 m 1
 250 83.3330078125 l 1
 333.333007812 83.3330078125 l 1
 333.333007812 0 l 1
 250 0 l 1
EndSplineSet
EndChar

StartChar: V
Encoding: 86 86 55
Width: 500
VWidth: 833
Flags: HW
LayerCount: 2
Back
Fore
SplineSet
0 500 m 1
 0 583.333007812 l 1
 83.3330078125 583.333007812 l 1
 83.3330078125 500 l 1
 0 500 l 1
333.333007812 500 m 1
 333.333007812 583.333007812 l 1
 416.666992188 583.333007812 l 1
 416.666992188 500 l 1
 333.333007812 500 l 1
0 416.666992188 m 1
 0 500 l 1
 83.3330078125 500 l 1
 83.3330078125 416.666992188 l 1
 0 416.666992188 l 1
333.333007812 416.666992188 m 1
 333.333007812 500 l 1
 416.666992188 500 l 1
 416.666992188 416.666992188 l 1
 333.333007812 416.666992188 l 1
0 333.333007812 m 1
 0 416.666992188 l 1
 83.3330078125 416.666992188 l 1
 83.3330078125 333.333007812 l 1
 0 333.333007812 l 1
333.333007812 333.333007812 m 1
 333.333007812 416.666992188 l 1
 416.666992188 416.666992188 l 1
 416.666992188 333.333007812 l 1
 333.333007812 333.333007812 l 1
83.3330078125 250 m 1
 83.3330078125 333.333007812 l 1
 166.666992188 333.333007812 l 1
 166.666992188 250 l 1
 83.3330078125 250 l 1
250 250 m 1
 250 333.333007812 l 1
 333.333007812 333.333007812 l 1
 333.333007812 250 l 1
 250 250 l 1
83.3330078125 166.666992188 m 1
 83.3330078125 250 l 1
 166.666992188 250 l 1
 166.666992188 166.666992188 l 1
 83.3330078125 166.666992188 l 1
250 166.666992188 m 1
 250 250 l 1
 333.333007812 250 l 1
 333.333007812 166.666992188 l 1
 250 166.666992188 l 1
83.3330078125 83.3330078125 m 1
 83.3330078125 166.666992188 l 1
 166.666992188 166.666992188 l 1
 166.666992188 83.3330078125 l 1
 83.3330078125 83.3330078125 l 1
250 83.3330078125 m 1
 250 166.666992188 l 1
 333.333007812 166.666992188 l 1
 333.333007812 83.3330078125 l 1
 250 83.3330078125 l 1
166.666992188 0 m 1
 166.666992188 83.3330078125 l 1
 250 83.3330078125 l 1
 250 0 l 1
 166.666992188 0 l 1
EndSplineSet
EndChar

StartChar: W
Encoding: 87 87 56
Width: 500
VWidth: 833
Flags: HW
LayerCount: 2
Back
Fore
SplineSet
0 500 m 1
 0 583.333007812 l 1
 83.3330078125 583.333007812 l 1
 83.3330078125 500 l 1
 0 500 l 1
333.333007812 500 m 1
 333.333007812 583.333007812 l 1
 416.666992188 583.333007812 l 1
 416.666992188 500 l 1
 333.333007812 500 l 1
0 416.666992188 m 1
 0 500 l 1
 83.3330078125 500 l 1
 83.3330078125 416.666992188 l 1
 0 416.666992188 l 1
333.333007812 416.666992188 m 1
 333.333007812 500 l 1
 416.666992188 500 l 1
 416.666992188 416.666992188 l 1
 333.333007812 416.666992188 l 1
0 333.333007812 m 1
 0 416.666992188 l 1
 83.3330078125 416.666992188 l 1
 83.3330078125 333.333007812 l 1
 0 333.333007812 l 1
333.333007812 333.333007812 m 1
 333.333007812 416.666992188 l 1
 416.666992188 416.666992188 l 1
 416.666992188 333.333007812 l 1
 333.333007812 333.333007812 l 1
0 250 m 1
 0 333.333007812 l 1
 83.3330078125 333.333007812 l 1
 83.3330078125 250 l 1
 0 250 l 1
166.666992188 250 m 1
 166.666992188 333.333007812 l 1
 250 333.333007812 l 1
 250 250 l 1
 166.666992188 250 l 1
333.333007812 250 m 1
 333.333007812 333.333007812 l 1
 416.666992188 333.333007812 l 1
 416.666992188 250 l 1
 333.333007812 250 l 1
0 166.666992188 m 1
 0 250 l 1
 83.3330078125 250 l 1
 83.3330078125 166.666992188 l 1
 0 166.666992188 l 1
166.666992188 166.666992188 m 1
 166.666992188 250 l 1
 250 250 l 1
 250 166.666992188 l 1
 166.666992188 166.666992188 l 1
333.333007812 166.666992188 m 1
 333.333007812 250 l 1
 416.666992188 250 l 1
 416.666992188 166.666992188 l 1
 333.333007812 166.666992188 l 1
0 83.3330078125 m 1
 0 166.666992188 l 1
 83.3330078125 166.666992188 l 1
 83.3330078125 83.3330078125 l 1
 0 83.3330078125 l 1
83.3330078125 83.3330078125 m 1
 83.3330078125 166.666992188 l 1
 166.666992188 166.666992188 l 1
 166.666992188 83.3330078125 l 1
 83.3330078125 83.3330078125 l 1
250 83.3330078125 m 1
 250 166.666992188 l 1
 333.333007812 166.666992188 l 1
 333.333007812 83.3330078125 l 1
 250 83.3330078125 l 1
333.333007812 83.3330078125 m 1
 333.333007812 166.666992188 l 1
 416.666992188 166.666992188 l 1
 416.666992188 83.3330078125 l 1
 333.333007812 83.3330078125 l 1
0 0 m 1
 0 83.3330078125 l 1
 83.3330078125 83.3330078125 l 1
 83.3330078125 0 l 1
 0 0 l 1
333.333007812 0 m 1
 333.333007812 83.3330078125 l 1
 416.666992188 83.3330078125 l 1
 416.666992188 0 l 1
 333.333007812 0 l 1
EndSplineSet
EndChar

StartChar: X
Encoding: 88 88 57
Width: 500
VWidth: 833
Flags: HW
LayerCount: 2
Back
Fore
SplineSet
0 500 m 1
 0 583.333007812 l 1
 83.3330078125 583.333007812 l 1
 83.3330078125 500 l 1
 0 500 l 1
333.333007812 500 m 1
 333.333007812 583.333007812 l 1
 416.666992188 583.333007812 l 1
 416.666992188 500 l 1
 333.333007812 500 l 1
0 416.666992188 m 1
 0 500 l 1
 83.3330078125 500 l 1
 83.3330078125 416.666992188 l 1
 0 416.666992188 l 1
333.333007812 416.666992188 m 1
 333.333007812 500 l 1
 416.666992188 500 l 1
 416.666992188 416.666992188 l 1
 333.333007812 416.666992188 l 1
83.3330078125 333.333007812 m 1
 83.3330078125 416.666992188 l 1
 166.666992188 416.666992188 l 1
 166.666992188 333.333007812 l 1
 83.3330078125 333.333007812 l 1
250 333.333007812 m 1
 250 416.666992188 l 1
 333.333007812 416.666992188 l 1
 333.333007812 333.333007812 l 1
 250 333.333007812 l 1
166.666992188 250 m 1
 166.666992188 333.333007812 l 1
 250 333.333007812 l 1
 250 250 l 1
 166.666992188 250 l 1
83.3330078125 166.666992188 m 1
 83.3330078125 250 l 1
 166.666992188 250 l 1
 166.666992188 166.666992188 l 1
 83.3330078125 166.666992188 l 1
250 166.666992188 m 1
 250 250 l 1
 333.333007812 250 l 1
 333.333007812 166.666992188 l 1
 250 166.666992188 l 1
0 83.3330078125 m 1
 0 166.666992188 l 1
 83.3330078125 166.666992188 l 1
 83.3330078125 83.3330078125 l 1
 0 83.3330078125 l 1
333.333007812 83.3330078125 m 1
 333.333007812 166.666992188 l 1
 416.666992188 166.666992188 l 1
 416.666992188 83.3330078125 l 1
 333.333007812 83.3330078125 l 1
0 0 m 1
 0 83.3330078125 l 1
 83.3330078125 83.3330078125 l 1
 83.3330078125 0 l 1
 0 0 l 1
333.333007812 0 m 1
 333.333007812 83.3330078125 l 1
 416.666992188 83.3330078125 l 1
 416.666992188 0 l 1
 333.333007812 0 l 1
EndSplineSet
EndChar

StartChar: Y
Encoding: 89 89 58
Width: 500
VWidth: 833
Flags: HW
LayerCount: 2
Back
Fore
SplineSet
0 500 m 1
 0 583.333007812 l 1
 83.3330078125 583.333007812 l 1
 83.3330078125 500 l 1
 0 500 l 1
333.333007812 500 m 1
 333.333007812 583.333007812 l 1
 416.666992188 583.333007812 l 1
 416.666992188 500 l 1
 333.333007812 500 l 1
0 416.666992188 m 1
 0 500 l 1
 83.3330078125 500 l 1
 83.3330078125 416.666992188 l 1
 0 416.666992188 l 1
333.333007812 416.666992188 m 1
 333.333007812 500 l 1
 416.666992188 500 l 1
 416.666992188 416.666992188 l 1
 333.333007812 416.666992188 l 1
83.3330078125 333.333007812 m 1
 83.3330078125 416.666992188 l 1
 166.666992188 416.666992188 l 1
 166.666992188 333.333007812 l 1
 83.3330078125 333.333007812 l 1
250 333.333007812 m 1
 250 416.666992188 l 1
 333.333007812 416.666992188 l 1
 333.333007812 333.333007812 l 1
 250 333.333007812 l 1
166.666992188 250 m 1
 166.666992188 333.333007812 l 1
 250 333.333007812 l 1
 250 250 l 1
 166.666992188 250 l 1
166.666992188 166.666992188 m 1
 166.666992188 250 l 1
 250 250 l 1
 250 166.666992188 l 1
 166.666992188 166.666992188 l 1
166.666992188 83.3330078125 m 1
 166.666992188 166.666992188 l 1
 250 166.666992188 l 1
 250 83.3330078125 l 1
 166.666992188 83.3330078125 l 1
166.666992188 0 m 1
 166.666992188 83.3330078125 l 1
 250 83.3330078125 l 1
 250 0 l 1
 166.666992188 0 l 1
EndSplineSet
EndChar

StartChar: Z
Encoding: 90 90 59
Width: 500
VWidth: 833
Flags: HW
LayerCount: 2
Back
Fore
SplineSet
0 500 m 1
 0 583.333007812 l 1
 83.3330078125 583.333007812 l 1
 83.3330078125 500 l 1
 0 500 l 1
83.3330078125 500 m 1
 83.3330078125 583.333007812 l 1
 166.666992188 583.333007812 l 1
 166.666992188 500 l 1
 83.3330078125 500 l 1
166.666992188 500 m 1
 166.666992188 583.333007812 l 1
 250 583.333007812 l 1
 250 500 l 1
 166.666992188 500 l 1
250 500 m 1
 250 583.333007812 l 1
 333.333007812 583.333007812 l 1
 333.333007812 500 l 1
 250 500 l 1
333.333007812 500 m 1
 333.333007812 583.333007812 l 1
 416.666992188 583.333007812 l 1
 416.666992188 500 l 1
 333.333007812 500 l 1
333.333007812 416.666992188 m 1
 333.333007812 500 l 1
 416.666992188 500 l 1
 416.666992188 416.666992188 l 1
 333.333007812 416.666992188 l 1
250 333.333007812 m 1
 250 416.666992188 l 1
 333.333007812 416.666992188 l 1
 333.333007812 333.333007812 l 1
 250 333.333007812 l 1
166.666992188 250 m 1
 166.666992188 333.333007812 l 1
 250 333.333007812 l 1
 250 250 l 1
 166.666992188 250 l 1
83.3330078125 166.666992188 m 1
 83.3330078125 250 l 1
 166.666992188 250 l 1
 166.666992188 166.666992188 l 1
 83.3330078125 166.666992188 l 1
0 83.3330078125 m 1
 0 166.666992188 l 1
 83.3330078125 166.666992188 l 1
 83.3330078125 83.3330078125 l 1
 0 83.3330078125 l 1
0 0 m 1
 0 83.3330078125 l 1
 83.3330078125 83.3330078125 l 1
 83.3330078125 0 l 1
 0 0 l 1
83.3330078125 0 m 1
 83.3330078125 83.3330078125 l 1
 166.666992188 83.3330078125 l 1
 166.666992188 0 l 1
 83.3330078125 0 l 1
166.666992188 0 m 1
 166.666992188 83.3330078125 l 1
 250 83.3330078125 l 1
 250 0 l 1
 166.666992188 0 l 1
250 0 m 1
 250 83.3330078125 l 1
 333.333007812 83.3330078125 l 1
 333.333007812 0 l 1
 250 0 l 1
333.333007812 0 m 1
 333.333007812 83.3330078125 l 1
 416.666992188 83.3330078125 l 1
 416.666992188 0 l 1
 333.333007812 0 l 1
EndSplineSet
EndChar

StartChar: bracketleft
Encoding: 91 91 60
Width: 500
VWidth: 833
Flags: HW
LayerCount: 2
Back
Fore
SplineSet
83.3330078125 500 m 1
 83.3330078125 583.333007812 l 1
 166.666992188 583.333007812 l 1
 166.666992188 500 l 1
 83.3330078125 500 l 1
166.666992188 500 m 1
 166.666992188 583.333007812 l 1
 250 583.333007812 l 1
 250 500 l 1
 166.666992188 500 l 1
250 500 m 1
 250 583.333007812 l 1
 333.333007812 583.333007812 l 1
 333.333007812 500 l 1
 250 500 l 1
83.3330078125 416.666992188 m 1
 83.3330078125 500 l 1
 166.666992188 500 l 1
 166.666992188 416.666992188 l 1
 83.3330078125 416.666992188 l 1
83.3330078125 333.333007812 m 1
 83.3330078125 416.666992188 l 1
 166.666992188 416.666992188 l 1
 166.666992188 333.333007812 l 1
 83.3330078125 333.333007812 l 1
83.3330078125 250 m 1
 83.3330078125 333.333007812 l 1
 166.666992188 333.333007812 l 1
 166.666992188 250 l 1
 83.3330078125 250 l 1
83.3330078125 166.666992188 m 1
 83.3330078125 250 l 1
 166.666992188 250 l 1
 166.666992188 166.666992188 l 1
 83.3330078125 166.666992188 l 1
83.3330078125 83.3330078125 m 1
 83.3330078125 166.666992188 l 1
 166.666992188 166.666992188 l 1
 166.666992188 83.3330078125 l 1
 83.3330078125 83.3330078125 l 1
83.3330078125 0 m 1
 83.3330078125 83.3330078125 l 1
 166.666992188 83.3330078125 l 1
 166.666992188 0 l 1
 83.3330078125 0 l 1
166.666992188 0 m 1
 166.666992188 83.3330078125 l 1
 250 83.3330078125 l 1
 250 0 l 1
 166.666992188 0 l 1
250 0 m 1
 250 83.3330078125 l 1
 333.333007812 83.3330078125 l 1
 333.333007812 0 l 1
 250 0 l 1
EndSplineSet
EndChar

StartChar: backslash
Encoding: 92 92 61
Width: 500
VWidth: 833
Flags: HW
LayerCount: 2
Back
Fore
SplineSet
0 500 m 1
 0 583.333007812 l 1
 83.3330078125 583.333007812 l 1
 83.3330078125 500 l 1
 0 500 l 1
0 416.666992188 m 1
 0 500 l 1
 83.3330078125 500 l 1
 83.3330078125 416.666992188 l 1
 0 416.666992188 l 1
83.3330078125 333.333007812 m 1
 83.3330078125 416.666992188 l 1
 166.666992188 416.666992188 l 1
 166.666992188 333.333007812 l 1
 83.3330078125 333.333007812 l 1
166.666992188 250 m 1
 166.666992188 333.333007812 l 1
 250 333.333007812 l 1
 250 250 l 1
 166.666992188 250 l 1
250 166.666992188 m 1
 250 250 l 1
 333.333007812 250 l 1
 333.333007812 166.666992188 l 1
 250 166.666992188 l 1
333.333007812 83.3330078125 m 1
 333.333007812 166.666992188 l 1
 416.666992188 166.666992188 l 1
 416.666992188 83.3330078125 l 1
 333.333007812 83.3330078125 l 1
333.333007812 0 m 1
 333.333007812 83.3330078125 l 1
 416.666992188 83.3330078125 l 1
 416.666992188 0 l 1
 333.333007812 0 l 1
EndSplineSet
EndChar

StartChar: bracketright
Encoding: 93 93 62
Width: 500
VWidth: 833
Flags: HW
LayerCount: 2
Back
Fore
SplineSet
83.3330078125 500 m 1
 83.3330078125 583.333007812 l 1
 166.666992188 583.333007812 l 1
 166.666992188 500 l 1
 83.3330078125 500 l 1
166.666992188 500 m 1
 166.666992188 583.333007812 l 1
 250 583.333007812 l 1
 250 500 l 1
 166.666992188 500 l 1
250 500 m 1
 250 583.333007812 l 1
 333.333007812 583.333007812 l 1
 333.333007812 500 l 1
 250 500 l 1
250 416.666992188 m 1
 250 500 l 1
 333.333007812 500 l 1
 333.333007812 416.666992188 l 1
 250 416.666992188 l 1
250 333.333007812 m 1
 250 416.666992188 l 1
 333.333007812 416.666992188 l 1
 333.333007812 333.333007812 l 1
 250 333.333007812 l 1
250 250 m 1
 250 333.333007812 l 1
 333.333007812 333.333007812 l 1
 333.333007812 250 l 1
 250 250 l 1
250 166.666992188 m 1
 250 250 l 1
 333.333007812 250 l 1
 333.333007812 166.666992188 l 1
 250 166.666992188 l 1
250 83.3330078125 m 1
 250 166.666992188 l 1
 333.333007812 166.666992188 l 1
 333.333007812 83.3330078125 l 1
 250 83.3330078125 l 1
83.3330078125 0 m 1
 83.3330078125 83.3330078125 l 1
 166.666992188 83.3330078125 l 1
 166.666992188 0 l 1
 83.3330078125 0 l 1
166.666992188 0 m 1
 166.666992188 83.3330078125 l 1
 250 83.3330078125 l 1
 250 0 l 1
 166.666992188 0 l 1
250 0 m 1
 250 83.3330078125 l 1
 333.333007812 83.3330078125 l 1
 333.333007812 0 l 1
 250 0 l 1
EndSplineSet
EndChar

StartChar: asciicircum
Encoding: 94 94 63
Width: 500
VWidth: 833
Flags: HW
LayerCount: 2
Back
Fore
SplineSet
166.666992188 500 m 1
 166.666992188 583.333007812 l 1
 250 583.333007812 l 1
 250 500 l 1
 166.666992188 500 l 1
83.3330078125 416.666992188 m 1
 83.3330078125 500 l 1
 166.666992188 500 l 1
 166.666992188 416.666992188 l 1
 83.3330078125 416.666992188 l 1
250 416.666992188 m 1
 250 500 l 1
 333.333007812 500 l 1
 333.333007812 416.666992188 l 1
 250 416.666992188 l 1
0 333.333007812 m 1
 0 416.666992188 l 1
 83.3330078125 416.666992188 l 1
 83.3330078125 333.333007812 l 1
 0 333.333007812 l 1
333.333007812 333.333007812 m 1
 333.333007812 416.666992188 l 1
 416.666992188 416.666992188 l 1
 416.666992188 333.333007812 l 1
 333.333007812 333.333007812 l 1
EndSplineSet
EndChar

StartChar: underscore
Encoding: 95 95 64
Width: 500
VWidth: 833
Flags: HW
LayerCount: 2
Back
Fore
SplineSet
0 -83.3330078125 m 1
 0 0 l 1
 83.3330078125 0 l 1
 83.3330078125 -83.3330078125 l 1
 0 -83.3330078125 l 1
83.3330078125 -83.3330078125 m 1
 83.3330078125 0 l 1
 166.666992188 0 l 1
 166.666992188 -83.3330078125 l 1
 83.3330078125 -83.3330078125 l 1
166.666992188 -83.3330078125 m 1
 166.666992188 0 l 1
 250 0 l 1
 250 -83.3330078125 l 1
 166.666992188 -83.3330078125 l 1
250 -83.3330078125 m 1
 250 0 l 1
 333.333007812 0 l 1
 333.333007812 -83.3330078125 l 1
 250 -83.3330078125 l 1
333.333007812 -83.3330078125 m 1
 333.333007812 0 l 1
 416.666992188 0 l 1
 416.666992188 -83.3330078125 l 1
 333.333007812 -83.3330078125 l 1
EndSplineSet
EndChar

StartChar: grave
Encoding: 96 96 65
Width: 500
VWidth: 833
Flags: HW
LayerCount: 2
Back
Fore
SplineSet
166.666992188 583.333007812 m 1
 166.666992188 666.666992188 l 1
 250 666.666992188 l 1
 250 583.333007812 l 1
 166.666992188 583.333007812 l 1
250 500 m 1
 250 583.333007812 l 1
 333.333007812 583.333007812 l 1
 333.333007812 500 l 1
 250 500 l 1
EndSplineSet
EndChar

StartChar: a
Encoding: 97 97 66
Width: 500
VWidth: 833
Flags: HW
LayerCount: 2
Back
Fore
SplineSet
83.3330078125 333.333007812 m 1
 83.3330078125 416.666992188 l 1
 166.666992188 416.666992188 l 1
 166.666992188 333.333007812 l 1
 83.3330078125 333.333007812 l 1
166.666992188 333.333007812 m 1
 166.666992188 416.666992188 l 1
 250 416.666992188 l 1
 250 333.333007812 l 1
 166.666992188 333.333007812 l 1
250 333.333007812 m 1
 250 416.666992188 l 1
 333.333007812 416.666992188 l 1
 333.333007812 333.333007812 l 1
 250 333.333007812 l 1
333.333007812 250 m 1
 333.333007812 333.333007812 l 1
 416.666992188 333.333007812 l 1
 416.666992188 250 l 1
 333.333007812 250 l 1
83.3330078125 166.666992188 m 1
 83.3330078125 250 l 1
 166.666992188 250 l 1
 166.666992188 166.666992188 l 1
 83.3330078125 166.666992188 l 1
166.666992188 166.666992188 m 1
 166.666992188 250 l 1
 250 250 l 1
 250 166.666992188 l 1
 166.666992188 166.666992188 l 1
250 166.666992188 m 1
 250 250 l 1
 333.333007812 250 l 1
 333.333007812 166.666992188 l 1
 250 166.666992188 l 1
333.333007812 166.666992188 m 1
 333.333007812 250 l 1
 416.666992188 250 l 1
 416.666992188 166.666992188 l 1
 333.333007812 166.666992188 l 1
0 83.3330078125 m 1
 0 166.666992188 l 1
 83.3330078125 166.666992188 l 1
 83.3330078125 83.3330078125 l 1
 0 83.3330078125 l 1
333.333007812 83.3330078125 m 1
 333.333007812 166.666992188 l 1
 416.666992188 166.666992188 l 1
 416.666992188 83.3330078125 l 1
 333.333007812 83.3330078125 l 1
83.3330078125 0 m 1
 83.3330078125 83.3330078125 l 1
 166.666992188 83.3330078125 l 1
 166.666992188 0 l 1
 83.3330078125 0 l 1
166.666992188 0 m 1
 166.666992188 83.3330078125 l 1
 250 83.3330078125 l 1
 250 0 l 1
 166.666992188 0 l 1
250 0 m 1
 250 83.3330078125 l 1
 333.333007812 83.3330078125 l 1
 333.333007812 0 l 1
 250 0 l 1
333.333007812 0 m 1
 333.333007812 83.3330078125 l 1
 416.666992188 83.3330078125 l 1
 416.666992188 0 l 1
 333.333007812 0 l 1
EndSplineSet
EndChar

StartChar: b
Encoding: 98 98 67
Width: 500
VWidth: 833
Flags: HW
LayerCount: 2
Back
Fore
SplineSet
0 500 m 1
 0 583.333007812 l 1
 83.3330078125 583.333007812 l 1
 83.3330078125 500 l 1
 0 500 l 1
0 416.666992188 m 1
 0 500 l 1
 83.3330078125 500 l 1
 83.3330078125 416.666992188 l 1
 0 416.666992188 l 1
0 333.333007812 m 1
 0 416.666992188 l 1
 83.3330078125 416.666992188 l 1
 83.3330078125 333.333007812 l 1
 0 333.333007812 l 1
166.666992188 333.333007812 m 1
 166.666992188 416.666992188 l 1
 250 416.666992188 l 1
 250 333.333007812 l 1
 166.666992188 333.333007812 l 1
250 333.333007812 m 1
 250 416.666992188 l 1
 333.333007812 416.666992188 l 1
 333.333007812 333.333007812 l 1
 250 333.333007812 l 1
0 250 m 1
 0 333.333007812 l 1
 83.3330078125 333.333007812 l 1
 83.3330078125 250 l 1
 0 250 l 1
83.3330078125 250 m 1
 83.3330078125 333.333007812 l 1
 166.666992188 333.333007812 l 1
 166.666992188 250 l 1
 83.3330078125 250 l 1
333.333007812 250 m 1
 333.333007812 333.333007812 l 1
 416.666992188 333.333007812 l 1
 416.666992188 250 l 1
 333.333007812 250 l 1
0 166.666992188 m 1
 0 250 l 1
 83.3330078125 250 l 1
 83.3330078125 166.666992188 l 1
 0 166.666992188 l 1
333.333007812 166.666992188 m 1
 333.333007812 250 l 1
 416.666992188 250 l 1
 416.666992188 166.666992188 l 1
 333.333007812 166.666992188 l 1
0 83.3330078125 m 1
 0 166.666992188 l 1
 83.3330078125 166.666992188 l 1
 83.3330078125 83.3330078125 l 1
 0 83.3330078125 l 1
83.3330078125 83.3330078125 m 1
 83.3330078125 166.666992188 l 1
 166.666992188 166.666992188 l 1
 166.666992188 83.3330078125 l 1
 83.3330078125 83.3330078125 l 1
333.333007812 83.3330078125 m 1
 333.333007812 166.666992188 l 1
 416.666992188 166.666992188 l 1
 416.666992188 83.3330078125 l 1
 333.333007812 83.3330078125 l 1
0 0 m 1
 0 83.3330078125 l 1
 83.3330078125 83.3330078125 l 1
 83.3330078125 0 l 1
 0 0 l 1
166.666992188 0 m 1
 166.666992188 83.3330078125 l 1
 250 83.3330078125 l 1
 250 0 l 1
 166.666992188 0 l 1
250 0 m 1
 250 83.3330078125 l 1
 333.333007812 83.3330078125 l 1
 333.333007812 0 l 1
 250 0 l 1
EndSplineSet
EndChar

StartChar: c
Encoding: 99 99 68
Width: 500
VWidth: 833
Flags: HW
LayerCount: 2
Back
Fore
SplineSet
83.3330078125 333.333007812 m 1
 83.3330078125 416.666992188 l 1
 166.666992188 416.666992188 l 1
 166.666992188 333.333007812 l 1
 83.3330078125 333.333007812 l 1
166.666992188 333.333007812 m 1
 166.666992188 416.666992188 l 1
 250 416.666992188 l 1
 250 333.333007812 l 1
 166.666992188 333.333007812 l 1
250 333.333007812 m 1
 250 416.666992188 l 1
 333.333007812 416.666992188 l 1
 333.333007812 333.333007812 l 1
 250 333.333007812 l 1
0 250 m 1
 0 333.333007812 l 1
 83.3330078125 333.333007812 l 1
 83.3330078125 250 l 1
 0 250 l 1
333.333007812 250 m 1
 333.333007812 333.333007812 l 1
 416.666992188 333.333007812 l 1
 416.666992188 250 l 1
 333.333007812 250 l 1
0 166.666992188 m 1
 0 250 l 1
 83.3330078125 250 l 1
 83.3330078125 166.666992188 l 1
 0 166.666992188 l 1
0 83.3330078125 m 1
 0 166.666992188 l 1
 83.3330078125 166.666992188 l 1
 83.3330078125 83.3330078125 l 1
 0 83.3330078125 l 1
333.333007812 83.3330078125 m 1
 333.333007812 166.666992188 l 1
 416.666992188 166.666992188 l 1
 416.666992188 83.3330078125 l 1
 333.333007812 83.3330078125 l 1
83.3330078125 0 m 1
 83.3330078125 83.3330078125 l 1
 166.666992188 83.3330078125 l 1
 166.666992188 0 l 1
 83.3330078125 0 l 1
166.666992188 0 m 1
 166.666992188 83.3330078125 l 1
 250 83.3330078125 l 1
 250 0 l 1
 166.666992188 0 l 1
250 0 m 1
 250 83.3330078125 l 1
 333.333007812 83.3330078125 l 1
 333.333007812 0 l 1
 250 0 l 1
EndSplineSet
EndChar

StartChar: d
Encoding: 100 100 69
Width: 500
VWidth: 833
Flags: HW
LayerCount: 2
Back
Fore
SplineSet
333.333007812 500 m 1
 333.333007812 583.333007812 l 1
 416.666992188 583.333007812 l 1
 416.666992188 500 l 1
 333.333007812 500 l 1
333.333007812 416.666992188 m 1
 333.333007812 500 l 1
 416.666992188 500 l 1
 416.666992188 416.666992188 l 1
 333.333007812 416.666992188 l 1
83.3330078125 333.333007812 m 1
 83.3330078125 416.666992188 l 1
 166.666992188 416.666992188 l 1
 166.666992188 333.333007812 l 1
 83.3330078125 333.333007812 l 1
166.666992188 333.333007812 m 1
 166.666992188 416.666992188 l 1
 250 416.666992188 l 1
 250 333.333007812 l 1
 166.666992188 333.333007812 l 1
333.333007812 333.333007812 m 1
 333.333007812 416.666992188 l 1
 416.666992188 416.666992188 l 1
 416.666992188 333.333007812 l 1
 333.333007812 333.333007812 l 1
0 250 m 1
 0 333.333007812 l 1
 83.3330078125 333.333007812 l 1
 83.3330078125 250 l 1
 0 250 l 1
250 250 m 1
 250 333.333007812 l 1
 333.333007812 333.333007812 l 1
 333.333007812 250 l 1
 250 250 l 1
333.333007812 250 m 1
 333.333007812 333.333007812 l 1
 416.666992188 333.333007812 l 1
 416.666992188 250 l 1
 333.333007812 250 l 1
0 166.666992188 m 1
 0 250 l 1
 83.3330078125 250 l 1
 83.3330078125 166.666992188 l 1
 0 166.666992188 l 1
333.333007812 166.666992188 m 1
 333.333007812 250 l 1
 416.666992188 250 l 1
 416.666992188 166.666992188 l 1
 333.333007812 166.666992188 l 1
0 83.3330078125 m 1
 0 166.666992188 l 1
 83.3330078125 166.666992188 l 1
 83.3330078125 83.3330078125 l 1
 0 83.3330078125 l 1
250 83.3330078125 m 1
 250 166.666992188 l 1
 333.333007812 166.666992188 l 1
 333.333007812 83.3330078125 l 1
 250 83.3330078125 l 1
333.333007812 83.3330078125 m 1
 333.333007812 166.666992188 l 1
 416.666992188 166.666992188 l 1
 416.666992188 83.3330078125 l 1
 333.333007812 83.3330078125 l 1
83.3330078125 0 m 1
 83.3330078125 83.3330078125 l 1
 166.666992188 83.3330078125 l 1
 166.666992188 0 l 1
 83.3330078125 0 l 1
166.666992188 0 m 1
 166.666992188 83.3330078125 l 1
 250 83.3330078125 l 1
 250 0 l 1
 166.666992188 0 l 1
333.333007812 0 m 1
 333.333007812 83.3330078125 l 1
 416.666992188 83.3330078125 l 1
 416.666992188 0 l 1
 333.333007812 0 l 1
EndSplineSet
EndChar

StartChar: e
Encoding: 101 101 70
Width: 500
VWidth: 833
Flags: HW
LayerCount: 2
Back
Fore
SplineSet
83.3330078125 333.333007812 m 1
 83.3330078125 416.666992188 l 1
 166.666992188 416.666992188 l 1
 166.666992188 333.333007812 l 1
 83.3330078125 333.333007812 l 1
166.666992188 333.333007812 m 1
 166.666992188 416.666992188 l 1
 250 416.666992188 l 1
 250 333.333007812 l 1
 166.666992188 333.333007812 l 1
250 333.333007812 m 1
 250 416.666992188 l 1
 333.333007812 416.666992188 l 1
 333.333007812 333.333007812 l 1
 250 333.333007812 l 1
0 250 m 1
 0 333.333007812 l 1
 83.3330078125 333.333007812 l 1
 83.3330078125 250 l 1
 0 250 l 1
333.333007812 250 m 1
 333.333007812 333.333007812 l 1
 416.666992188 333.333007812 l 1
 416.666992188 250 l 1
 333.333007812 250 l 1
0 166.666992188 m 1
 0 250 l 1
 83.3330078125 250 l 1
 83.3330078125 166.666992188 l 1
 0 166.666992188 l 1
83.3330078125 166.666992188 m 1
 83.3330078125 250 l 1
 166.666992188 250 l 1
 166.666992188 166.666992188 l 1
 83.3330078125 166.666992188 l 1
166.666992188 166.666992188 m 1
 166.666992188 250 l 1
 250 250 l 1
 250 166.666992188 l 1
 166.666992188 166.666992188 l 1
250 166.666992188 m 1
 250 250 l 1
 333.333007812 250 l 1
 333.333007812 166.666992188 l 1
 250 166.666992188 l 1
333.333007812 166.666992188 m 1
 333.333007812 250 l 1
 416.666992188 250 l 1
 416.666992188 166.666992188 l 1
 333.333007812 166.666992188 l 1
0 83.3330078125 m 1
 0 166.666992188 l 1
 83.3330078125 166.666992188 l 1
 83.3330078125 83.3330078125 l 1
 0 83.3330078125 l 1
83.3330078125 0 m 1
 83.3330078125 83.3330078125 l 1
 166.666992188 83.3330078125 l 1
 166.666992188 0 l 1
 83.3330078125 0 l 1
166.666992188 0 m 1
 166.666992188 83.3330078125 l 1
 250 83.3330078125 l 1
 250 0 l 1
 166.666992188 0 l 1
250 0 m 1
 250 83.3330078125 l 1
 333.333007812 83.3330078125 l 1
 333.333007812 0 l 1
 250 0 l 1
EndSplineSet
EndChar

StartChar: f
Encoding: 102 102 71
Width: 500
VWidth: 833
Flags: HW
LayerCount: 2
Back
Fore
SplineSet
166.666992188 500 m 1
 166.666992188 583.333007812 l 1
 250 583.333007812 l 1
 250 500 l 1
 166.666992188 500 l 1
250 500 m 1
 250 583.333007812 l 1
 333.333007812 583.333007812 l 1
 333.333007812 500 l 1
 250 500 l 1
83.3330078125 416.666992188 m 1
 83.3330078125 500 l 1
 166.666992188 500 l 1
 166.666992188 416.666992188 l 1
 83.3330078125 416.666992188 l 1
333.333007812 416.666992188 m 1
 333.333007812 500 l 1
 416.666992188 500 l 1
 416.666992188 416.666992188 l 1
 333.333007812 416.666992188 l 1
83.3330078125 333.333007812 m 1
 83.3330078125 416.666992188 l 1
 166.666992188 416.666992188 l 1
 166.666992188 333.333007812 l 1
 83.3330078125 333.333007812 l 1
0 250 m 1
 0 333.333007812 l 1
 83.3330078125 333.333007812 l 1
 83.3330078125 250 l 1
 0 250 l 1
83.3330078125 250 m 1
 83.3330078125 333.333007812 l 1
 166.666992188 333.333007812 l 1
 166.666992188 250 l 1
 83.3330078125 250 l 1
166.666992188 250 m 1
 166.666992188 333.333007812 l 1
 250 333.333007812 l 1
 250 250 l 1
 166.666992188 250 l 1
250 250 m 1
 250 333.333007812 l 1
 333.333007812 333.333007812 l 1
 333.333007812 250 l 1
 250 250 l 1
83.3330078125 166.666992188 m 1
 83.3330078125 250 l 1
 166.666992188 250 l 1
 166.666992188 166.666992188 l 1
 83.3330078125 166.666992188 l 1
83.3330078125 83.3330078125 m 1
 83.3330078125 166.666992188 l 1
 166.666992188 166.666992188 l 1
 166.666992188 83.3330078125 l 1
 83.3330078125 83.3330078125 l 1
83.3330078125 0 m 1
 83.3330078125 83.3330078125 l 1
 166.666992188 83.3330078125 l 1
 166.666992188 0 l 1
 83.3330078125 0 l 1
EndSplineSet
EndChar

StartChar: g
Encoding: 103 103 72
Width: 500
VWidth: 833
Flags: HW
LayerCount: 2
Back
Fore
SplineSet
83.3330078125 333.333007812 m 1
 83.3330078125 416.666992188 l 1
 166.666992188 416.666992188 l 1
 166.666992188 333.333007812 l 1
 83.3330078125 333.333007812 l 1
166.666992188 333.333007812 m 1
 166.666992188 416.666992188 l 1
 250 416.666992188 l 1
 250 333.333007812 l 1
 166.666992188 333.333007812 l 1
250 333.333007812 m 1
 250 416.666992188 l 1
 333.333007812 416.666992188 l 1
 333.333007812 333.333007812 l 1
 250 333.333007812 l 1
333.333007812 333.333007812 m 1
 333.333007812 416.666992188 l 1
 416.666992188 416.666992188 l 1
 416.666992188 333.333007812 l 1
 333.333007812 333.333007812 l 1
0 250 m 1
 0 333.333007812 l 1
 83.3330078125 333.333007812 l 1
 83.3330078125 250 l 1
 0 250 l 1
333.333007812 250 m 1
 333.333007812 333.333007812 l 1
 416.666992188 333.333007812 l 1
 416.666992188 250 l 1
 333.333007812 250 l 1
0 166.666992188 m 1
 0 250 l 1
 83.3330078125 250 l 1
 83.3330078125 166.666992188 l 1
 0 166.666992188 l 1
333.333007812 166.666992188 m 1
 333.333007812 250 l 1
 416.666992188 250 l 1
 416.666992188 166.666992188 l 1
 333.333007812 166.666992188 l 1
83.3330078125 83.3330078125 m 1
 83.3330078125 166.666992188 l 1
 166.666992188 166.666992188 l 1
 166.666992188 83.3330078125 l 1
 83.3330078125 83.3330078125 l 1
166.666992188 83.3330078125 m 1
 166.666992188 166.666992188 l 1
 250 166.666992188 l 1
 250 83.3330078125 l 1
 166.666992188 83.3330078125 l 1
250 83.3330078125 m 1
 250 166.666992188 l 1
 333.333007812 166.666992188 l 1
 333.333007812 83.3330078125 l 1
 250 83.3330078125 l 1
333.333007812 83.3330078125 m 1
 333.333007812 166.666992188 l 1
 416.666992188 166.666992188 l 1
 416.666992188 83.3330078125 l 1
 333.333007812 83.3330078125 l 1
333.333007812 0 m 1
 333.333007812 83.3330078125 l 1
 416.666992188 83.3330078125 l 1
 416.666992188 0 l 1
 333.333007812 0 l 1
0 -83.3330078125 m 1
 0 0 l 1
 83.3330078125 0 l 1
 83.3330078125 -83.3330078125 l 1
 0 -83.3330078125 l 1
333.333007812 -83.3330078125 m 1
 333.333007812 0 l 1
 416.666992188 0 l 1
 416.666992188 -83.3330078125 l 1
 333.333007812 -83.3330078125 l 1
83.3330078125 -166.666992188 m 1
 83.3330078125 -83.3330078125 l 1
 166.666992188 -83.3330078125 l 1
 166.666992188 -166.666992188 l 1
 83.3330078125 -166.666992188 l 1
166.666992188 -166.666992188 m 1
 166.666992188 -83.3330078125 l 1
 250 -83.3330078125 l 1
 250 -166.666992188 l 1
 166.666992188 -166.666992188 l 1
250 -166.666992188 m 1
 250 -83.3330078125 l 1
 333.333007812 -83.3330078125 l 1
 333.333007812 -166.666992188 l 1
 250 -166.666992188 l 1
EndSplineSet
EndChar

StartChar: h
Encoding: 104 104 73
Width: 500
VWidth: 833
Flags: HW
LayerCount: 2
Back
Fore
SplineSet
0 500 m 1
 0 583.333007812 l 1
 83.3330078125 583.333007812 l 1
 83.3330078125 500 l 1
 0 500 l 1
0 416.666992188 m 1
 0 500 l 1
 83.3330078125 500 l 1
 83.3330078125 416.666992188 l 1
 0 416.666992188 l 1
0 333.333007812 m 1
 0 416.666992188 l 1
 83.3330078125 416.666992188 l 1
 83.3330078125 333.333007812 l 1
 0 333.333007812 l 1
166.666992188 333.333007812 m 1
 166.666992188 416.666992188 l 1
 250 416.666992188 l 1
 250 333.333007812 l 1
 166.666992188 333.333007812 l 1
250 333.333007812 m 1
 250 416.666992188 l 1
 333.333007812 416.666992188 l 1
 333.333007812 333.333007812 l 1
 250 333.333007812 l 1
0 250 m 1
 0 333.333007812 l 1
 83.3330078125 333.333007812 l 1
 83.3330078125 250 l 1
 0 250 l 1
83.3330078125 250 m 1
 83.3330078125 333.333007812 l 1
 166.666992188 333.333007812 l 1
 166.666992188 250 l 1
 83.3330078125 250 l 1
333.333007812 250 m 1
 333.333007812 333.333007812 l 1
 416.666992188 333.333007812 l 1
 416.666992188 250 l 1
 333.333007812 250 l 1
0 166.666992188 m 1
 0 250 l 1
 83.3330078125 250 l 1
 83.3330078125 166.666992188 l 1
 0 166.666992188 l 1
333.333007812 166.666992188 m 1
 333.333007812 250 l 1
 416.666992188 250 l 1
 416.666992188 166.666992188 l 1
 333.333007812 166.666992188 l 1
0 83.3330078125 m 1
 0 166.666992188 l 1
 83.3330078125 166.666992188 l 1
 83.3330078125 83.3330078125 l 1
 0 83.3330078125 l 1
333.333007812 83.3330078125 m 1
 333.333007812 166.666992188 l 1
 416.666992188 166.666992188 l 1
 416.666992188 83.3330078125 l 1
 333.333007812 83.3330078125 l 1
0 0 m 1
 0 83.3330078125 l 1
 83.3330078125 83.3330078125 l 1
 83.3330078125 0 l 1
 0 0 l 1
333.333007812 0 m 1
 333.333007812 83.3330078125 l 1
 416.666992188 83.3330078125 l 1
 416.666992188 0 l 1
 333.333007812 0 l 1
EndSplineSet
EndChar

StartChar: i
Encoding: 105 105 74
Width: 500
VWidth: 833
Flags: HW
LayerCount: 2
Back
Fore
SplineSet
166.666992188 500 m 1
 166.666992188 583.333007812 l 1
 250 583.333007812 l 1
 250 500 l 1
 166.666992188 500 l 1
83.3330078125 333.333007812 m 1
 83.3330078125 416.666992188 l 1
 166.666992188 416.666992188 l 1
 166.666992188 333.333007812 l 1
 83.3330078125 333.333007812 l 1
166.666992188 333.333007812 m 1
 166.666992188 416.666992188 l 1
 250 416.666992188 l 1
 250 333.333007812 l 1
 166.666992188 333.333007812 l 1
166.666992188 250 m 1
 166.666992188 333.333007812 l 1
 250 333.333007812 l 1
 250 250 l 1
 166.666992188 250 l 1
166.666992188 166.666992188 m 1
 166.666992188 250 l 1
 250 250 l 1
 250 166.666992188 l 1
 166.666992188 166.666992188 l 1
166.666992188 83.3330078125 m 1
 166.666992188 166.666992188 l 1
 250 166.666992188 l 1
 250 83.3330078125 l 1
 166.666992188 83.3330078125 l 1
83.3330078125 0 m 1
 83.3330078125 83.3330078125 l 1
 166.666992188 83.3330078125 l 1
 166.666992188 0 l 1
 83.3330078125 0 l 1
166.666992188 0 m 1
 166.666992188 83.3330078125 l 1
 250 83.3330078125 l 1
 250 0 l 1
 166.666992188 0 l 1
250 0 m 1
 250 83.3330078125 l 1
 333.333007812 83.3330078125 l 1
 333.333007812 0 l 1
 250 0 l 1
EndSplineSet
EndChar

StartChar: j
Encoding: 106 106 75
Width: 500
VWidth: 833
Flags: HW
LayerCount: 2
Back
Fore
SplineSet
333.333007812 500 m 1
 333.333007812 583.333007812 l 1
 416.666992188 583.333007812 l 1
 416.666992188 500 l 1
 333.333007812 500 l 1
250 333.333007812 m 1
 250 416.666992188 l 1
 333.333007812 416.666992188 l 1
 333.333007812 333.333007812 l 1
 250 333.333007812 l 1
333.333007812 333.333007812 m 1
 333.333007812 416.666992188 l 1
 416.666992188 416.666992188 l 1
 416.666992188 333.333007812 l 1
 333.333007812 333.333007812 l 1
333.333007812 250 m 1
 333.333007812 333.333007812 l 1
 416.666992188 333.333007812 l 1
 416.666992188 250 l 1
 333.333007812 250 l 1
333.333007812 166.666992188 m 1
 333.333007812 250 l 1
 416.666992188 250 l 1
 416.666992188 166.666992188 l 1
 333.333007812 166.666992188 l 1
333.333007812 83.3330078125 m 1
 333.333007812 166.666992188 l 1
 416.666992188 166.666992188 l 1
 416.666992188 83.3330078125 l 1
 333.333007812 83.3330078125 l 1
83.3330078125 0 m 1
 83.3330078125 83.3330078125 l 1
 166.666992188 83.3330078125 l 1
 166.666992188 0 l 1
 83.3330078125 0 l 1
333.333007812 0 m 1
 333.333007812 83.3330078125 l 1
 416.666992188 83.3330078125 l 1
 416.666992188 0 l 1
 333.333007812 0 l 1
83.3330078125 -83.3330078125 m 1
 83.3330078125 0 l 1
 166.666992188 0 l 1
 166.666992188 -83.3330078125 l 1
 83.3330078125 -83.3330078125 l 1
333.333007812 -83.3330078125 m 1
 333.333007812 0 l 1
 416.666992188 0 l 1
 416.666992188 -83.3330078125 l 1
 333.333007812 -83.3330078125 l 1
166.666992188 -166.666992188 m 1
 166.666992188 -83.3330078125 l 1
 250 -83.3330078125 l 1
 250 -166.666992188 l 1
 166.666992188 -166.666992188 l 1
250 -166.666992188 m 1
 250 -83.3330078125 l 1
 333.333007812 -83.3330078125 l 1
 333.333007812 -166.666992188 l 1
 250 -166.666992188 l 1
EndSplineSet
EndChar

StartChar: k
Encoding: 107 107 76
Width: 500
VWidth: 833
Flags: HW
LayerCount: 2
Back
Fore
SplineSet
0 500 m 1
 0 583.333007812 l 1
 83.3330078125 583.333007812 l 1
 83.3330078125 500 l 1
 0 500 l 1
0 416.666992188 m 1
 0 500 l 1
 83.3330078125 500 l 1
 83.3330078125 416.666992188 l 1
 0 416.666992188 l 1
0 333.333007812 m 1
 0 416.666992188 l 1
 83.3330078125 416.666992188 l 1
 83.3330078125 333.333007812 l 1
 0 333.333007812 l 1
333.333007812 333.333007812 m 1
 333.333007812 416.666992188 l 1
 416.666992188 416.666992188 l 1
 416.666992188 333.333007812 l 1
 333.333007812 333.333007812 l 1
0 250 m 1
 0 333.333007812 l 1
 83.3330078125 333.333007812 l 1
 83.3330078125 250 l 1
 0 250 l 1
250 250 m 1
 250 333.333007812 l 1
 333.333007812 333.333007812 l 1
 333.333007812 250 l 1
 250 250 l 1
0 166.666992188 m 1
 0 250 l 1
 83.3330078125 250 l 1
 83.3330078125 166.666992188 l 1
 0 166.666992188 l 1
83.3330078125 166.666992188 m 1
 83.3330078125 250 l 1
 166.666992188 250 l 1
 166.666992188 166.666992188 l 1
 83.3330078125 166.666992188 l 1
166.666992188 166.666992188 m 1
 166.666992188 250 l 1
 250 250 l 1
 250 166.666992188 l 1
 166.666992188 166.666992188 l 1
0 83.3330078125 m 1
 0 166.666992188 l 1
 83.3330078125 166.666992188 l 1
 83.3330078125 83.3330078125 l 1
 0 83.3330078125 l 1
250 83.3330078125 m 1
 250 166.666992188 l 1
 333.333007812 166.666992188 l 1
 333.333007812 83.3330078125 l 1
 250 83.3330078125 l 1
0 0 m 1
 0 83.3330078125 l 1
 83.3330078125 83.3330078125 l 1
 83.3330078125 0 l 1
 0 0 l 1
333.333007812 0 m 1
 333.333007812 83.3330078125 l 1
 416.666992188 83.3330078125 l 1
 416.666992188 0 l 1
 333.333007812 0 l 1
EndSplineSet
EndChar

StartChar: l
Encoding: 108 108 77
Width: 500
VWidth: 833
Flags: HW
LayerCount: 2
Back
Fore
SplineSet
83.3330078125 500 m 1
 83.3330078125 583.333007812 l 1
 166.666992188 583.333007812 l 1
 166.666992188 500 l 1
 83.3330078125 500 l 1
166.666992188 500 m 1
 166.666992188 583.333007812 l 1
 250 583.333007812 l 1
 250 500 l 1
 166.666992188 500 l 1
166.666992188 416.666992188 m 1
 166.666992188 500 l 1
 250 500 l 1
 250 416.666992188 l 1
 166.666992188 416.666992188 l 1
166.666992188 333.333007812 m 1
 166.666992188 416.666992188 l 1
 250 416.666992188 l 1
 250 333.333007812 l 1
 166.666992188 333.333007812 l 1
166.666992188 250 m 1
 166.666992188 333.333007812 l 1
 250 333.333007812 l 1
 250 250 l 1
 166.666992188 250 l 1
166.666992188 166.666992188 m 1
 166.666992188 250 l 1
 250 250 l 1
 250 166.666992188 l 1
 166.666992188 166.666992188 l 1
166.666992188 83.3330078125 m 1
 166.666992188 166.666992188 l 1
 250 166.666992188 l 1
 250 83.3330078125 l 1
 166.666992188 83.3330078125 l 1
83.3330078125 0 m 1
 83.3330078125 83.3330078125 l 1
 166.666992188 83.3330078125 l 1
 166.666992188 0 l 1
 83.3330078125 0 l 1
166.666992188 0 m 1
 166.666992188 83.3330078125 l 1
 250 83.3330078125 l 1
 250 0 l 1
 166.666992188 0 l 1
250 0 m 1
 250 83.3330078125 l 1
 333.333007812 83.3330078125 l 1
 333.333007812 0 l 1
 250 0 l 1
EndSplineSet
EndChar

StartChar: m
Encoding: 109 109 78
Width: 500
VWidth: 833
Flags: HW
LayerCount: 2
Back
Fore
SplineSet
0 333.333007812 m 1
 0 416.666992188 l 1
 83.3330078125 416.666992188 l 1
 83.3330078125 333.333007812 l 1
 0 333.333007812 l 1
83.3330078125 333.333007812 m 1
 83.3330078125 416.666992188 l 1
 166.666992188 416.666992188 l 1
 166.666992188 333.333007812 l 1
 83.3330078125 333.333007812 l 1
250 333.333007812 m 1
 250 416.666992188 l 1
 333.333007812 416.666992188 l 1
 333.333007812 333.333007812 l 1
 250 333.333007812 l 1
0 250 m 1
 0 333.333007812 l 1
 83.3330078125 333.333007812 l 1
 83.3330078125 250 l 1
 0 250 l 1
166.666992188 250 m 1
 166.666992188 333.333007812 l 1
 250 333.333007812 l 1
 250 250 l 1
 166.666992188 250 l 1
333.333007812 250 m 1
 333.333007812 333.333007812 l 1
 416.666992188 333.333007812 l 1
 416.666992188 250 l 1
 333.333007812 250 l 1
0 166.666992188 m 1
 0 250 l 1
 83.3330078125 250 l 1
 83.3330078125 166.666992188 l 1
 0 166.666992188 l 1
166.666992188 166.666992188 m 1
 166.666992188 250 l 1
 250 250 l 1
 250 166.666992188 l 1
 166.666992188 166.666992188 l 1
333.333007812 166.666992188 m 1
 333.333007812 250 l 1
 416.666992188 250 l 1
 416.666992188 166.666992188 l 1
 333.333007812 166.666992188 l 1
0 83.3330078125 m 1
 0 166.666992188 l 1
 83.3330078125 166.666992188 l 1
 83.3330078125 83.3330078125 l 1
 0 83.3330078125 l 1
166.666992188 83.3330078125 m 1
 166.666992188 166.666992188 l 1
 250 166.666992188 l 1
 250 83.3330078125 l 1
 166.666992188 83.3330078125 l 1
333.333007812 83.3330078125 m 1
 333.333007812 166.666992188 l 1
 416.666992188 166.666992188 l 1
 416.666992188 83.3330078125 l 1
 333.333007812 83.3330078125 l 1
0 0 m 1
 0 83.3330078125 l 1
 83.3330078125 83.3330078125 l 1
 83.3330078125 0 l 1
 0 0 l 1
333.333007812 0 m 1
 333.333007812 83.3330078125 l 1
 416.666992188 83.3330078125 l 1
 416.666992188 0 l 1
 333.333007812 0 l 1
EndSplineSet
EndChar

StartChar: n
Encoding: 110 110 79
Width: 500
VWidth: 833
Flags: HW
LayerCount: 2
Back
Fore
SplineSet
0 333.333007812 m 1
 0 416.666992188 l 1
 83.3330078125 416.666992188 l 1
 83.3330078125 333.333007812 l 1
 0 333.333007812 l 1
166.666992188 333.333007812 m 1
 166.666992188 416.666992188 l 1
 250 416.666992188 l 1
 250 333.333007812 l 1
 166.666992188 333.333007812 l 1
250 333.333007812 m 1
 250 416.666992188 l 1
 333.333007812 416.666992188 l 1
 333.333007812 333.333007812 l 1
 250 333.333007812 l 1
0 250 m 1
 0 333.333007812 l 1
 83.3330078125 333.333007812 l 1
 83.3330078125 250 l 1
 0 250 l 1
83.3330078125 250 m 1
 83.3330078125 333.333007812 l 1
 166.666992188 333.333007812 l 1
 166.666992188 250 l 1
 83.3330078125 250 l 1
333.333007812 250 m 1
 333.333007812 333.333007812 l 1
 416.666992188 333.333007812 l 1
 416.666992188 250 l 1
 333.333007812 250 l 1
0 166.666992188 m 1
 0 250 l 1
 83.3330078125 250 l 1
 83.3330078125 166.666992188 l 1
 0 166.666992188 l 1
333.333007812 166.666992188 m 1
 333.333007812 250 l 1
 416.666992188 250 l 1
 416.666992188 166.666992188 l 1
 333.333007812 166.666992188 l 1
0 83.3330078125 m 1
 0 166.666992188 l 1
 83.3330078125 166.666992188 l 1
 83.3330078125 83.3330078125 l 1
 0 83.3330078125 l 1
333.333007812 83.3330078125 m 1
 333.333007812 166.666992188 l 1
 416.666992188 166.666992188 l 1
 416.666992188 83.3330078125 l 1
 333.333007812 83.3330078125 l 1
0 0 m 1
 0 83.3330078125 l 1
 83.3330078125 83.3330078125 l 1
 83.3330078125 0 l 1
 0 0 l 1
333.333007812 0 m 1
 333.333007812 83.3330078125 l 1
 416.666992188 83.3330078125 l 1
 416.666992188 0 l 1
 333.333007812 0 l 1
EndSplineSet
EndChar

StartChar: o
Encoding: 111 111 80
Width: 500
VWidth: 833
Flags: HW
LayerCount: 2
Back
Fore
SplineSet
83.3330078125 333.333007812 m 1
 83.3330078125 416.666992188 l 1
 166.666992188 416.666992188 l 1
 166.666992188 333.333007812 l 1
 83.3330078125 333.333007812 l 1
166.666992188 333.333007812 m 1
 166.666992188 416.666992188 l 1
 250 416.666992188 l 1
 250 333.333007812 l 1
 166.666992188 333.333007812 l 1
250 333.333007812 m 1
 250 416.666992188 l 1
 333.333007812 416.666992188 l 1
 333.333007812 333.333007812 l 1
 250 333.333007812 l 1
0 250 m 1
 0 333.333007812 l 1
 83.3330078125 333.333007812 l 1
 83.3330078125 250 l 1
 0 250 l 1
333.333007812 250 m 1
 333.333007812 333.333007812 l 1
 416.666992188 333.333007812 l 1
 416.666992188 250 l 1
 333.333007812 250 l 1
0 166.666992188 m 1
 0 250 l 1
 83.3330078125 250 l 1
 83.3330078125 166.666992188 l 1
 0 166.666992188 l 1
333.333007812 166.666992188 m 1
 333.333007812 250 l 1
 416.666992188 250 l 1
 416.666992188 166.666992188 l 1
 333.333007812 166.666992188 l 1
0 83.3330078125 m 1
 0 166.666992188 l 1
 83.3330078125 166.666992188 l 1
 83.3330078125 83.3330078125 l 1
 0 83.3330078125 l 1
333.333007812 83.3330078125 m 1
 333.333007812 166.666992188 l 1
 416.666992188 166.666992188 l 1
 416.666992188 83.3330078125 l 1
 333.333007812 83.3330078125 l 1
83.3330078125 0 m 1
 83.3330078125 83.3330078125 l 1
 166.666992188 83.3330078125 l 1
 166.666992188 0 l 1
 83.3330078125 0 l 1
166.666992188 0 m 1
 166.666992188 83.3330078125 l 1
 250 83.3330078125 l 1
 250 0 l 1
 166.666992188 0 l 1
250 0 m 1
 250 83.3330078125 l 1
 333.333007812 83.3330078125 l 1
 333.333007812 0 l 1
 250 0 l 1
EndSplineSet
EndChar

StartChar: p
Encoding: 112 112 81
Width: 500
VWidth: 833
Flags: HW
LayerCount: 2
Back
Fore
SplineSet
0 333.333007812 m 1
 0 416.666992188 l 1
 83.3330078125 416.666992188 l 1
 83.3330078125 333.333007812 l 1
 0 333.333007812 l 1
166.666992188 333.333007812 m 1
 166.666992188 416.666992188 l 1
 250 416.666992188 l 1
 250 333.333007812 l 1
 166.666992188 333.333007812 l 1
250 333.333007812 m 1
 250 416.666992188 l 1
 333.333007812 416.666992188 l 1
 333.333007812 333.333007812 l 1
 250 333.333007812 l 1
0 250 m 1
 0 333.333007812 l 1
 83.3330078125 333.333007812 l 1
 83.3330078125 250 l 1
 0 250 l 1
83.3330078125 250 m 1
 83.3330078125 333.333007812 l 1
 166.666992188 333.333007812 l 1
 166.666992188 250 l 1
 83.3330078125 250 l 1
333.333007812 250 m 1
 333.333007812 333.333007812 l 1
 416.666992188 333.333007812 l 1
 416.666992188 250 l 1
 333.333007812 250 l 1
0 166.666992188 m 1
 0 250 l 1
 83.3330078125 250 l 1
 83.3330078125 166.666992188 l 1
 0 166.666992188 l 1
333.333007812 166.666992188 m 1
 333.333007812 250 l 1
 416.666992188 250 l 1
 416.666992188 166.666992188 l 1
 333.333007812 166.666992188 l 1
0 83.3330078125 m 1
 0 166.666992188 l 1
 83.3330078125 166.666992188 l 1
 83.3330078125 83.3330078125 l 1
 0 83.3330078125 l 1
83.3330078125 83.3330078125 m 1
 83.3330078125 166.666992188 l 1
 166.666992188 166.666992188 l 1
 166.666992188 83.3330078125 l 1
 83.3330078125 83.3330078125 l 1
333.333007812 83.3330078125 m 1
 333.333007812 166.666992188 l 1
 416.666992188 166.666992188 l 1
 416.666992188 83.3330078125 l 1
 333.333007812 83.3330078125 l 1
0 0 m 1
 0 83.3330078125 l 1
 83.3330078125 83.3330078125 l 1
 83.3330078125 0 l 1
 0 0 l 1
166.666992188 0 m 1
 166.666992188 83.3330078125 l 1
 250 83.3330078125 l 1
 250 0 l 1
 166.666992188 0 l 1
250 0 m 1
 250 83.3330078125 l 1
 333.333007812 83.3330078125 l 1
 333.333007812 0 l 1
 250 0 l 1
0 -83.3330078125 m 1
 0 0 l 1
 83.3330078125 0 l 1
 83.3330078125 -83.3330078125 l 1
 0 -83.3330078125 l 1
0 -166.666992188 m 1
 0 -83.3330078125 l 1
 83.3330078125 -83.3330078125 l 1
 83.3330078125 -166.666992188 l 1
 0 -166.666992188 l 1
EndSplineSet
EndChar

StartChar: q
Encoding: 113 113 82
Width: 500
VWidth: 833
Flags: HW
LayerCount: 2
Back
Fore
SplineSet
83.3330078125 333.333007812 m 1
 83.3330078125 416.666992188 l 1
 166.666992188 416.666992188 l 1
 166.666992188 333.333007812 l 1
 83.3330078125 333.333007812 l 1
166.666992188 333.333007812 m 1
 166.666992188 416.666992188 l 1
 250 416.666992188 l 1
 250 333.333007812 l 1
 166.666992188 333.333007812 l 1
333.333007812 333.333007812 m 1
 333.333007812 416.666992188 l 1
 416.666992188 416.666992188 l 1
 416.666992188 333.333007812 l 1
 333.333007812 333.333007812 l 1
0 250 m 1
 0 333.333007812 l 1
 83.3330078125 333.333007812 l 1
 83.3330078125 250 l 1
 0 250 l 1
250 250 m 1
 250 333.333007812 l 1
 333.333007812 333.333007812 l 1
 333.333007812 250 l 1
 250 250 l 1
333.333007812 250 m 1
 333.333007812 333.333007812 l 1
 416.666992188 333.333007812 l 1
 416.666992188 250 l 1
 333.333007812 250 l 1
0 166.666992188 m 1
 0 250 l 1
 83.3330078125 250 l 1
 83.3330078125 166.666992188 l 1
 0 166.666992188 l 1
333.333007812 166.666992188 m 1
 333.333007812 250 l 1
 416.666992188 250 l 1
 416.666992188 166.666992188 l 1
 333.333007812 166.666992188 l 1
0 83.3330078125 m 1
 0 166.666992188 l 1
 83.3330078125 166.666992188 l 1
 83.3330078125 83.3330078125 l 1
 0 83.3330078125 l 1
250 83.3330078125 m 1
 250 166.666992188 l 1
 333.333007812 166.666992188 l 1
 333.333007812 83.3330078125 l 1
 250 83.3330078125 l 1
333.333007812 83.3330078125 m 1
 333.333007812 166.666992188 l 1
 416.666992188 166.666992188 l 1
 416.666992188 83.3330078125 l 1
 333.333007812 83.3330078125 l 1
83.3330078125 0 m 1
 83.3330078125 83.3330078125 l 1
 166.666992188 83.3330078125 l 1
 166.666992188 0 l 1
 83.3330078125 0 l 1
166.666992188 0 m 1
 166.666992188 83.3330078125 l 1
 250 83.3330078125 l 1
 250 0 l 1
 166.666992188 0 l 1
333.333007812 0 m 1
 333.333007812 83.3330078125 l 1
 416.666992188 83.3330078125 l 1
 416.666992188 0 l 1
 333.333007812 0 l 1
333.333007812 -83.3330078125 m 1
 333.333007812 0 l 1
 416.666992188 0 l 1
 416.666992188 -83.3330078125 l 1
 333.333007812 -83.3330078125 l 1
333.333007812 -166.666992188 m 1
 333.333007812 -83.3330078125 l 1
 416.666992188 -83.3330078125 l 1
 416.666992188 -166.666992188 l 1
 333.333007812 -166.666992188 l 1
EndSplineSet
EndChar

StartChar: r
Encoding: 114 114 83
Width: 500
VWidth: 833
Flags: HW
LayerCount: 2
Back
Fore
SplineSet
0 333.333007812 m 1
 0 416.666992188 l 1
 83.3330078125 416.666992188 l 1
 83.3330078125 333.333007812 l 1
 0 333.333007812 l 1
166.666992188 333.333007812 m 1
 166.666992188 416.666992188 l 1
 250 416.666992188 l 1
 250 333.333007812 l 1
 166.666992188 333.333007812 l 1
250 333.333007812 m 1
 250 416.666992188 l 1
 333.333007812 416.666992188 l 1
 333.333007812 333.333007812 l 1
 250 333.333007812 l 1
0 250 m 1
 0 333.333007812 l 1
 83.3330078125 333.333007812 l 1
 83.3330078125 250 l 1
 0 250 l 1
83.3330078125 250 m 1
 83.3330078125 333.333007812 l 1
 166.666992188 333.333007812 l 1
 166.666992188 250 l 1
 83.3330078125 250 l 1
333.333007812 250 m 1
 333.333007812 333.333007812 l 1
 416.666992188 333.333007812 l 1
 416.666992188 250 l 1
 333.333007812 250 l 1
0 166.666992188 m 1
 0 250 l 1
 83.3330078125 250 l 1
 83.3330078125 166.666992188 l 1
 0 166.666992188 l 1
0 83.3330078125 m 1
 0 166.666992188 l 1
 83.3330078125 166.666992188 l 1
 83.3330078125 83.3330078125 l 1
 0 83.3330078125 l 1
0 0 m 1
 0 83.3330078125 l 1
 83.3330078125 83.3330078125 l 1
 83.3330078125 0 l 1
 0 0 l 1
EndSplineSet
EndChar

StartChar: s
Encoding: 115 115 84
Width: 500
VWidth: 833
Flags: HW
LayerCount: 2
Back
Fore
SplineSet
83.3330078125 333.333007812 m 1
 83.3330078125 416.666992188 l 1
 166.666992188 416.666992188 l 1
 166.666992188 333.333007812 l 1
 83.3330078125 333.333007812 l 1
166.666992188 333.333007812 m 1
 166.666992188 416.666992188 l 1
 250 416.666992188 l 1
 250 333.333007812 l 1
 166.666992188 333.333007812 l 1
250 333.333007812 m 1
 250 416.666992188 l 1
 333.333007812 416.666992188 l 1
 333.333007812 333.333007812 l 1
 250 333.333007812 l 1
0 250 m 1
 0 333.333007812 l 1
 83.3330078125 333.333007812 l 1
 83.3330078125 250 l 1
 0 250 l 1
83.3330078125 166.666992188 m 1
 83.3330078125 250 l 1
 166.666992188 250 l 1
 166.666992188 166.666992188 l 1
 83.3330078125 166.666992188 l 1
166.666992188 166.666992188 m 1
 166.666992188 250 l 1
 250 250 l 1
 250 166.666992188 l 1
 166.666992188 166.666992188 l 1
250 166.666992188 m 1
 250 250 l 1
 333.333007812 250 l 1
 333.333007812 166.666992188 l 1
 250 166.666992188 l 1
333.333007812 83.3330078125 m 1
 333.333007812 166.666992188 l 1
 416.666992188 166.666992188 l 1
 416.666992188 83.3330078125 l 1
 333.333007812 83.3330078125 l 1
0 0 m 1
 0 83.3330078125 l 1
 83.3330078125 83.3330078125 l 1
 83.3330078125 0 l 1
 0 0 l 1
83.3330078125 0 m 1
 83.3330078125 83.3330078125 l 1
 166.666992188 83.3330078125 l 1
 166.666992188 0 l 1
 83.3330078125 0 l 1
166.666992188 0 m 1
 166.666992188 83.3330078125 l 1
 250 83.3330078125 l 1
 250 0 l 1
 166.666992188 0 l 1
250 0 m 1
 250 83.3330078125 l 1
 333.333007812 83.3330078125 l 1
 333.333007812 0 l 1
 250 0 l 1
EndSplineSet
EndChar

StartChar: t
Encoding: 116 116 85
Width: 500
VWidth: 833
Flags: HW
LayerCount: 2
Back
Fore
SplineSet
83.3330078125 500 m 1
 83.3330078125 583.333007812 l 1
 166.666992188 583.333007812 l 1
 166.666992188 500 l 1
 83.3330078125 500 l 1
83.3330078125 416.666992188 m 1
 83.3330078125 500 l 1
 166.666992188 500 l 1
 166.666992188 416.666992188 l 1
 83.3330078125 416.666992188 l 1
0 333.333007812 m 1
 0 416.666992188 l 1
 83.3330078125 416.666992188 l 1
 83.3330078125 333.333007812 l 1
 0 333.333007812 l 1
83.3330078125 333.333007812 m 1
 83.3330078125 416.666992188 l 1
 166.666992188 416.666992188 l 1
 166.666992188 333.333007812 l 1
 83.3330078125 333.333007812 l 1
166.666992188 333.333007812 m 1
 166.666992188 416.666992188 l 1
 250 416.666992188 l 1
 250 333.333007812 l 1
 166.666992188 333.333007812 l 1
250 333.333007812 m 1
 250 416.666992188 l 1
 333.333007812 416.666992188 l 1
 333.333007812 333.333007812 l 1
 250 333.333007812 l 1
83.3330078125 250 m 1
 83.3330078125 333.333007812 l 1
 166.666992188 333.333007812 l 1
 166.666992188 250 l 1
 83.3330078125 250 l 1
83.3330078125 166.666992188 m 1
 83.3330078125 250 l 1
 166.666992188 250 l 1
 166.666992188 166.666992188 l 1
 83.3330078125 166.666992188 l 1
83.3330078125 83.3330078125 m 1
 83.3330078125 166.666992188 l 1
 166.666992188 166.666992188 l 1
 166.666992188 83.3330078125 l 1
 83.3330078125 83.3330078125 l 1
333.333007812 83.3330078125 m 1
 333.333007812 166.666992188 l 1
 416.666992188 166.666992188 l 1
 416.666992188 83.3330078125 l 1
 333.333007812 83.3330078125 l 1
166.666992188 0 m 1
 166.666992188 83.3330078125 l 1
 250 83.3330078125 l 1
 250 0 l 1
 166.666992188 0 l 1
250 0 m 1
 250 83.3330078125 l 1
 333.333007812 83.3330078125 l 1
 333.333007812 0 l 1
 250 0 l 1
EndSplineSet
EndChar

StartChar: u
Encoding: 117 117 86
Width: 500
VWidth: 833
Flags: HW
LayerCount: 2
Back
Fore
SplineSet
0 333.333007812 m 1
 0 416.666992188 l 1
 83.3330078125 416.666992188 l 1
 83.3330078125 333.333007812 l 1
 0 333.333007812 l 1
333.333007812 333.333007812 m 1
 333.333007812 416.666992188 l 1
 416.666992188 416.666992188 l 1
 416.666992188 333.333007812 l 1
 333.333007812 333.333007812 l 1
0 250 m 1
 0 333.333007812 l 1
 83.3330078125 333.333007812 l 1
 83.3330078125 250 l 1
 0 250 l 1
333.333007812 250 m 1
 333.333007812 333.333007812 l 1
 416.666992188 333.333007812 l 1
 416.666992188 250 l 1
 333.333007812 250 l 1
0 166.666992188 m 1
 0 250 l 1
 83.3330078125 250 l 1
 83.3330078125 166.666992188 l 1
 0 166.666992188 l 1
333.333007812 166.666992188 m 1
 333.333007812 250 l 1
 416.666992188 250 l 1
 416.666992188 166.666992188 l 1
 333.333007812 166.666992188 l 1
0 83.3330078125 m 1
 0 166.666992188 l 1
 83.3330078125 166.666992188 l 1
 83.3330078125 83.3330078125 l 1
 0 83.3330078125 l 1
250 83.3330078125 m 1
 250 166.666992188 l 1
 333.333007812 166.666992188 l 1
 333.333007812 83.3330078125 l 1
 250 83.3330078125 l 1
333.333007812 83.3330078125 m 1
 333.333007812 166.666992188 l 1
 416.666992188 166.666992188 l 1
 416.666992188 83.3330078125 l 1
 333.333007812 83.3330078125 l 1
83.3330078125 0 m 1
 83.3330078125 83.3330078125 l 1
 166.666992188 83.3330078125 l 1
 166.666992188 0 l 1
 83.3330078125 0 l 1
166.666992188 0 m 1
 166.666992188 83.3330078125 l 1
 250 83.3330078125 l 1
 250 0 l 1
 166.666992188 0 l 1
333.333007812 0 m 1
 333.333007812 83.3330078125 l 1
 416.666992188 83.3330078125 l 1
 416.666992188 0 l 1
 333.333007812 0 l 1
EndSplineSet
EndChar

StartChar: v
Encoding: 118 118 87
Width: 500
VWidth: 833
Flags: HW
LayerCount: 2
Back
Fore
SplineSet
0 333.333007812 m 1
 0 416.666992188 l 1
 83.3330078125 416.666992188 l 1
 83.3330078125 333.333007812 l 1
 0 333.333007812 l 1
333.333007812 333.333007812 m 1
 333.333007812 416.666992188 l 1
 416.666992188 416.666992188 l 1
 416.666992188 333.333007812 l 1
 333.333007812 333.333007812 l 1
0 250 m 1
 0 333.333007812 l 1
 83.3330078125 333.333007812 l 1
 83.3330078125 250 l 1
 0 250 l 1
333.333007812 250 m 1
 333.333007812 333.333007812 l 1
 416.666992188 333.333007812 l 1
 416.666992188 250 l 1
 333.333007812 250 l 1
83.3330078125 166.666992188 m 1
 83.3330078125 250 l 1
 166.666992188 250 l 1
 166.666992188 166.666992188 l 1
 83.3330078125 166.666992188 l 1
250 166.666992188 m 1
 250 250 l 1
 333.333007812 250 l 1
 333.333007812 166.666992188 l 1
 250 166.666992188 l 1
83.3330078125 83.3330078125 m 1
 83.3330078125 166.666992188 l 1
 166.666992188 166.666992188 l 1
 166.666992188 83.3330078125 l 1
 83.3330078125 83.3330078125 l 1
250 83.3330078125 m 1
 250 166.666992188 l 1
 333.333007812 166.666992188 l 1
 333.333007812 83.3330078125 l 1
 250 83.3330078125 l 1
166.666992188 0 m 1
 166.666992188 83.3330078125 l 1
 250 83.3330078125 l 1
 250 0 l 1
 166.666992188 0 l 1
EndSplineSet
EndChar

StartChar: w
Encoding: 119 119 88
Width: 500
VWidth: 833
Flags: HW
LayerCount: 2
Back
Fore
SplineSet
0 333.333007812 m 1
 0 416.666992188 l 1
 83.3330078125 416.666992188 l 1
 83.3330078125 333.333007812 l 1
 0 333.333007812 l 1
333.333007812 333.333007812 m 1
 333.333007812 416.666992188 l 1
 416.666992188 416.666992188 l 1
 416.666992188 333.333007812 l 1
 333.333007812 333.333007812 l 1
0 250 m 1
 0 333.333007812 l 1
 83.3330078125 333.333007812 l 1
 83.3330078125 250 l 1
 0 250 l 1
333.333007812 250 m 1
 333.333007812 333.333007812 l 1
 416.666992188 333.333007812 l 1
 416.666992188 250 l 1
 333.333007812 250 l 1
0 166.666992188 m 1
 0 250 l 1
 83.3330078125 250 l 1
 83.3330078125 166.666992188 l 1
 0 166.666992188 l 1
166.666992188 166.666992188 m 1
 166.666992188 250 l 1
 250 250 l 1
 250 166.666992188 l 1
 166.666992188 166.666992188 l 1
333.333007812 166.666992188 m 1
 333.333007812 250 l 1
 416.666992188 250 l 1
 416.666992188 166.666992188 l 1
 333.333007812 166.666992188 l 1
0 83.3330078125 m 1
 0 166.666992188 l 1
 83.3330078125 166.666992188 l 1
 83.3330078125 83.3330078125 l 1
 0 83.3330078125 l 1
166.666992188 83.3330078125 m 1
 166.666992188 166.666992188 l 1
 250 166.666992188 l 1
 250 83.3330078125 l 1
 166.666992188 83.3330078125 l 1
333.333007812 83.3330078125 m 1
 333.333007812 166.666992188 l 1
 416.666992188 166.666992188 l 1
 416.666992188 83.3330078125 l 1
 333.333007812 83.3330078125 l 1
83.3330078125 0 m 1
 83.3330078125 83.3330078125 l 1
 166.666992188 83.3330078125 l 1
 166.666992188 0 l 1
 83.3330078125 0 l 1
250 0 m 1
 250 83.3330078125 l 1
 333.333007812 83.3330078125 l 1
 333.333007812 0 l 1
 250 0 l 1
EndSplineSet
EndChar

StartChar: x
Encoding: 120 120 89
Width: 500
VWidth: 833
Flags: HW
LayerCount: 2
Back
Fore
SplineSet
0 333.333007812 m 1
 0 416.666992188 l 1
 83.3330078125 416.666992188 l 1
 83.3330078125 333.333007812 l 1
 0 333.333007812 l 1
333.333007812 333.333007812 m 1
 333.333007812 416.666992188 l 1
 416.666992188 416.666992188 l 1
 416.666992188 333.333007812 l 1
 333.333007812 333.333007812 l 1
83.3330078125 250 m 1
 83.3330078125 333.333007812 l 1
 166.666992188 333.333007812 l 1
 166.666992188 250 l 1
 83.3330078125 250 l 1
250 250 m 1
 250 333.333007812 l 1
 333.333007812 333.333007812 l 1
 333.333007812 250 l 1
 250 250 l 1
166.666992188 166.666992188 m 1
 166.666992188 250 l 1
 250 250 l 1
 250 166.666992188 l 1
 166.666992188 166.666992188 l 1
83.3330078125 83.3330078125 m 1
 83.3330078125 166.666992188 l 1
 166.666992188 166.666992188 l 1
 166.666992188 83.3330078125 l 1
 83.3330078125 83.3330078125 l 1
250 83.3330078125 m 1
 250 166.666992188 l 1
 333.333007812 166.666992188 l 1
 333.333007812 83.3330078125 l 1
 250 83.3330078125 l 1
0 0 m 1
 0 83.3330078125 l 1
 83.3330078125 83.3330078125 l 1
 83.3330078125 0 l 1
 0 0 l 1
333.333007812 0 m 1
 333.333007812 83.3330078125 l 1
 416.666992188 83.3330078125 l 1
 416.666992188 0 l 1
 333.333007812 0 l 1
EndSplineSet
EndChar

StartChar: y
Encoding: 121 121 90
Width: 500
VWidth: 833
Flags: HW
LayerCount: 2
Back
Fore
SplineSet
0 333.333007812 m 1
 0 416.666992188 l 1
 83.3330078125 416.666992188 l 1
 83.3330078125 333.333007812 l 1
 0 333.333007812 l 1
333.333007812 333.333007812 m 1
 333.333007812 416.666992188 l 1
 416.666992188 416.666992188 l 1
 416.666992188 333.333007812 l 1
 333.333007812 333.333007812 l 1
0 250 m 1
 0 333.333007812 l 1
 83.3330078125 333.333007812 l 1
 83.3330078125 250 l 1
 0 250 l 1
333.333007812 250 m 1
 333.333007812 333.333007812 l 1
 416.666992188 333.333007812 l 1
 416.666992188 250 l 1
 333.333007812 250 l 1
0 166.666992188 m 1
 0 250 l 1
 83.3330078125 250 l 1
 83.3330078125 166.666992188 l 1
 0 166.666992188 l 1
250 166.666992188 m 1
 250 250 l 1
 333.333007812 250 l 1
 333.333007812 166.666992188 l 1
 250 166.666992188 l 1
333.333007812 166.666992188 m 1
 333.333007812 250 l 1
 416.666992188 250 l 1
 416.666992188 166.666992188 l 1
 333.333007812 166.666992188 l 1
83.3330078125 83.3330078125 m 1
 83.3330078125 166.666992188 l 1
 166.666992188 166.666992188 l 1
 166.666992188 83.3330078125 l 1
 83.3330078125 83.3330078125 l 1
166.666992188 83.3330078125 m 1
 166.666992188 166.666992188 l 1
 250 166.666992188 l 1
 250 83.3330078125 l 1
 166.666992188 83.3330078125 l 1
333.333007812 83.3330078125 m 1
 333.333007812 166.666992188 l 1
 416.666992188 166.666992188 l 1
 416.666992188 83.3330078125 l 1
 333.333007812 83.3330078125 l 1
333.333007812 0 m 1
 333.333007812 83.3330078125 l 1
 416.666992188 83.3330078125 l 1
 416.666992188 0 l 1
 333.333007812 0 l 1
0 -83.3330078125 m 1
 0 0 l 1
 83.3330078125 0 l 1
 83.3330078125 -83.3330078125 l 1
 0 -83.3330078125 l 1
333.333007812 -83.3330078125 m 1
 333.333007812 0 l 1
 416.666992188 0 l 1
 416.666992188 -83.3330078125 l 1
 333.333007812 -83.3330078125 l 1
83.3330078125 -166.666992188 m 1
 83.3330078125 -83.3330078125 l 1
 166.666992188 -83.3330078125 l 1
 166.666992188 -166.666992188 l 1
 83.3330078125 -166.666992188 l 1
166.666992188 -166.666992188 m 1
 166.666992188 -83.3330078125 l 1
 250 -83.3330078125 l 1
 250 -166.666992188 l 1
 166.666992188 -166.666992188 l 1
250 -166.666992188 m 1
 250 -83.3330078125 l 1
 333.333007812 -83.3330078125 l 1
 333.333007812 -166.666992188 l 1
 250 -166.666992188 l 1
EndSplineSet
EndChar

StartChar: z
Encoding: 122 122 91
Width: 500
VWidth: 833
Flags: HW
LayerCount: 2
Back
Fore
SplineSet
0 333.333007812 m 1
 0 416.666992188 l 1
 83.3330078125 416.666992188 l 1
 83.3330078125 333.333007812 l 1
 0 333.333007812 l 1
83.3330078125 333.333007812 m 1
 83.3330078125 416.666992188 l 1
 166.666992188 416.666992188 l 1
 166.666992188 333.333007812 l 1
 83.3330078125 333.333007812 l 1
166.666992188 333.333007812 m 1
 166.666992188 416.666992188 l 1
 250 416.666992188 l 1
 250 333.333007812 l 1
 166.666992188 333.333007812 l 1
250 333.333007812 m 1
 250 416.666992188 l 1
 333.333007812 416.666992188 l 1
 333.333007812 333.333007812 l 1
 250 333.333007812 l 1
333.333007812 333.333007812 m 1
 333.333007812 416.666992188 l 1
 416.666992188 416.666992188 l 1
 416.666992188 333.333007812 l 1
 333.333007812 333.333007812 l 1
250 250 m 1
 250 333.333007812 l 1
 333.333007812 333.333007812 l 1
 333.333007812 250 l 1
 250 250 l 1
166.666992188 166.666992188 m 1
 166.666992188 250 l 1
 250 250 l 1
 250 166.666992188 l 1
 166.666992188 166.666992188 l 1
83.3330078125 83.3330078125 m 1
 83.3330078125 166.666992188 l 1
 166.666992188 166.666992188 l 1
 166.666992188 83.3330078125 l 1
 83.3330078125 83.3330078125 l 1
0 0 m 1
 0 83.3330078125 l 1
 83.3330078125 83.3330078125 l 1
 83.3330078125 0 l 1
 0 0 l 1
83.3330078125 0 m 1
 83.3330078125 83.3330078125 l 1
 166.666992188 83.3330078125 l 1
 166.666992188 0 l 1
 83.3330078125 0 l 1
166.666992188 0 m 1
 166.666992188 83.3330078125 l 1
 250 83.3330078125 l 1
 250 0 l 1
 166.666992188 0 l 1
250 0 m 1
 250 83.3330078125 l 1
 333.333007812 83.3330078125 l 1
 333.333007812 0 l 1
 250 0 l 1
333.333007812 0 m 1
 333.333007812 83.3330078125 l 1
 416.666992188 83.3330078125 l 1
 416.666992188 0 l 1
 333.333007812 0 l 1
EndSplineSet
EndChar

StartChar: braceleft
Encoding: 123 123 92
Width: 500
VWidth: 833
Flags: HW
LayerCount: 2
Back
Fore
SplineSet
250 500 m 1
 250 583.333007812 l 1
 333.333007812 583.333007812 l 1
 333.333007812 500 l 1
 250 500 l 1
333.333007812 500 m 1
 333.333007812 583.333007812 l 1
 416.666992188 583.333007812 l 1
 416.666992188 500 l 1
 333.333007812 500 l 1
166.666992188 416.666992188 m 1
 166.666992188 500 l 1
 250 500 l 1
 250 416.666992188 l 1
 166.666992188 416.666992188 l 1
250 333.333007812 m 1
 250 416.666992188 l 1
 333.333007812 416.666992188 l 1
 333.333007812 333.333007812 l 1
 250 333.333007812 l 1
83.3330078125 250 m 1
 83.3330078125 333.333007812 l 1
 166.666992188 333.333007812 l 1
 166.666992188 250 l 1
 83.3330078125 250 l 1
166.666992188 250 m 1
 166.666992188 333.333007812 l 1
 250 333.333007812 l 1
 250 250 l 1
 166.666992188 250 l 1
250 166.666992188 m 1
 250 250 l 1
 333.333007812 250 l 1
 333.333007812 166.666992188 l 1
 250 166.666992188 l 1
166.666992188 83.3330078125 m 1
 166.666992188 166.666992188 l 1
 250 166.666992188 l 1
 250 83.3330078125 l 1
 166.666992188 83.3330078125 l 1
250 0 m 1
 250 83.3330078125 l 1
 333.333007812 83.3330078125 l 1
 333.333007812 0 l 1
 250 0 l 1
333.333007812 0 m 1
 333.333007812 83.3330078125 l 1
 416.666992188 83.3330078125 l 1
 416.666992188 0 l 1
 333.333007812 0 l 1
EndSplineSet
EndChar

StartChar: bar
Encoding: 124 124 93
Width: 500
VWidth: 833
Flags: HW
LayerCount: 2
Back
Fore
SplineSet
166.666992188 500 m 1
 166.666992188 583.333007812 l 1
 250 583.333007812 l 1
 250 500 l 1
 166.666992188 500 l 1
166.666992188 416.666992188 m 1
 166.666992188 500 l 1
 250 500 l 1
 250 416.666992188 l 1
 166.666992188 416.666992188 l 1
166.666992188 333.333007812 m 1
 166.666992188 416.666992188 l 1
 250 416.666992188 l 1
 250 333.333007812 l 1
 166.666992188 333.333007812 l 1
166.666992188 250 m 1
 166.666992188 333.333007812 l 1
 250 333.333007812 l 1
 250 250 l 1
 166.666992188 250 l 1
166.666992188 166.666992188 m 1
 166.666992188 250 l 1
 250 250 l 1
 250 166.666992188 l 1
 166.666992188 166.666992188 l 1
166.666992188 83.3330078125 m 1
 166.666992188 166.666992188 l 1
 250 166.666992188 l 1
 250 83.3330078125 l 1
 166.666992188 83.3330078125 l 1
166.666992188 0 m 1
 166.666992188 83.3330078125 l 1
 250 83.3330078125 l 1
 250 0 l 1
 166.666992188 0 l 1
EndSplineSet
EndChar

StartChar: braceright
Encoding: 125 125 94
Width: 500
VWidth: 833
Flags: HW
LayerCount: 2
Back
Fore
SplineSet
83.3330078125 500 m 1
 83.3330078125 583.333007812 l 1
 166.666992188 583.333007812 l 1
 166.666992188 500 l 1
 83.3330078125 500 l 1
166.666992188 500 m 1
 166.666992188 583.333007812 l 1
 250 583.333007812 l 1
 250 500 l 1
 166.666992188 500 l 1
250 416.666992188 m 1
 250 500 l 1
 333.333007812 500 l 1
 333.333007812 416.666992188 l 1
 250 416.666992188 l 1
166.666992188 333.333007812 m 1
 166.666992188 416.666992188 l 1
 250 416.666992188 l 1
 250 333.333007812 l 1
 166.666992188 333.333007812 l 1
250 250 m 1
 250 333.333007812 l 1
 333.333007812 333.333007812 l 1
 333.333007812 250 l 1
 250 250 l 1
333.333007812 250 m 1
 333.333007812 333.333007812 l 1
 416.666992188 333.333007812 l 1
 416.666992188 250 l 1
 333.333007812 250 l 1
166.666992188 166.666992188 m 1
 166.666992188 250 l 1
 250 250 l 1
 250 166.666992188 l 1
 166.666992188 166.666992188 l 1
250 83.3330078125 m 1
 250 166.666992188 l 1
 333.333007812 166.666992188 l 1
 333.333007812 83.3330078125 l 1
 250 83.3330078125 l 1
83.3330078125 0 m 1
 83.3330078125 83.3330078125 l 1
 166.666992188 83.3330078125 l 1
 166.666992188 0 l 1
 83.3330078125 0 l 1
166.666992188 0 m 1
 166.666992188 83.3330078125 l 1
 250 83.3330078125 l 1
 250 0 l 1
 166.666992188 0 l 1
EndSplineSet
EndChar

StartChar: asciitilde
Encoding: 126 126 95
Width: 500
VWidth: 833
Flags: HW
LayerCount: 2
Back
Fore
SplineSet
83.3330078125 500 m 1
 83.3330078125 583.333007812 l 1
 166.666992188 583.333007812 l 1
 166.666992188 500 l 1
 83.3330078125 500 l 1
333.333007812 500 m 1
 333.333007812 583.333007812 l 1
 416.666992188 583.333007812 l 1
 416.666992188 500 l 1
 333.333007812 500 l 1
0 416.666992188 m 1
 0 500 l 1
 83.3330078125 500 l 1
 83.3330078125 416.666992188 l 1
 0 416.666992188 l 1
166.666992188 416.666992188 m 1
 166.666992188 500 l 1
 250 500 l 1
 250 416.666992188 l 1
 166.666992188 416.666992188 l 1
333.333007812 416.666992188 m 1
 333.333007812 500 l 1
 416.666992188 500 l 1
 416.666992188 416.666992188 l 1
 333.333007812 416.666992188 l 1
0 333.333007812 m 1
 0 416.666992188 l 1
 83.3330078125 416.666992188 l 1
 83.3330078125 333.333007812 l 1
 0 333.333007812 l 1
250 333.333007812 m 1
 250 416.666992188 l 1
 333.333007812 416.666992188 l 1
 333.333007812 333.333007812 l 1
 250 333.333007812 l 1
EndSplineSet
EndChar

StartChar: exclamdown
Encoding: 161 161 97
Width: 500
VWidth: 833
Flags: HW
LayerCount: 2
Back
Fore
SplineSet
166.666992188 500 m 1
 166.666992188 583.333007812 l 1
 250 583.333007812 l 1
 250 500 l 1
 166.666992188 500 l 1
166.666992188 333.333007812 m 1
 166.666992188 416.666992188 l 1
 250 416.666992188 l 1
 250 333.333007812 l 1
 166.666992188 333.333007812 l 1
166.666992188 250 m 1
 166.666992188 333.333007812 l 1
 250 333.333007812 l 1
 250 250 l 1
 166.666992188 250 l 1
166.666992188 166.666992188 m 1
 166.666992188 250 l 1
 250 250 l 1
 250 166.666992188 l 1
 166.666992188 166.666992188 l 1
166.666992188 83.3330078125 m 1
 166.666992188 166.666992188 l 1
 250 166.666992188 l 1
 250 83.3330078125 l 1
 166.666992188 83.3330078125 l 1
166.666992188 0 m 1
 166.666992188 83.3330078125 l 1
 250 83.3330078125 l 1
 250 0 l 1
 166.666992188 0 l 1
EndSplineSet
EndChar

StartChar: cent
Encoding: 162 162 98
Width: 500
VWidth: 833
Flags: HW
LayerCount: 2
Back
Fore
SplineSet
166.666992188 416.666992188 m 1
 166.666992188 500 l 1
 250 500 l 1
 250 416.666992188 l 1
 166.666992188 416.666992188 l 1
83.3330078125 333.333007812 m 1
 83.3330078125 416.666992188 l 1
 166.666992188 416.666992188 l 1
 166.666992188 333.333007812 l 1
 83.3330078125 333.333007812 l 1
166.666992188 333.333007812 m 1
 166.666992188 416.666992188 l 1
 250 416.666992188 l 1
 250 333.333007812 l 1
 166.666992188 333.333007812 l 1
250 333.333007812 m 1
 250 416.666992188 l 1
 333.333007812 416.666992188 l 1
 333.333007812 333.333007812 l 1
 250 333.333007812 l 1
333.333007812 333.333007812 m 1
 333.333007812 416.666992188 l 1
 416.666992188 416.666992188 l 1
 416.666992188 333.333007812 l 1
 333.333007812 333.333007812 l 1
0 250 m 1
 0 333.333007812 l 1
 83.3330078125 333.333007812 l 1
 83.3330078125 250 l 1
 0 250 l 1
166.666992188 250 m 1
 166.666992188 333.333007812 l 1
 250 333.333007812 l 1
 250 250 l 1
 166.666992188 250 l 1
0 166.666992188 m 1
 0 250 l 1
 83.3330078125 250 l 1
 83.3330078125 166.666992188 l 1
 0 166.666992188 l 1
166.666992188 166.666992188 m 1
 166.666992188 250 l 1
 250 250 l 1
 250 166.666992188 l 1
 166.666992188 166.666992188 l 1
0 83.3330078125 m 1
 0 166.666992188 l 1
 83.3330078125 166.666992188 l 1
 83.3330078125 83.3330078125 l 1
 0 83.3330078125 l 1
166.666992188 83.3330078125 m 1
 166.666992188 166.666992188 l 1
 250 166.666992188 l 1
 250 83.3330078125 l 1
 166.666992188 83.3330078125 l 1
83.3330078125 0 m 1
 83.3330078125 83.3330078125 l 1
 166.666992188 83.3330078125 l 1
 166.666992188 0 l 1
 83.3330078125 0 l 1
166.666992188 0 m 1
 166.666992188 83.3330078125 l 1
 250 83.3330078125 l 1
 250 0 l 1
 166.666992188 0 l 1
250 0 m 1
 250 83.3330078125 l 1
 333.333007812 83.3330078125 l 1
 333.333007812 0 l 1
 250 0 l 1
333.333007812 0 m 1
 333.333007812 83.3330078125 l 1
 416.666992188 83.3330078125 l 1
 416.666992188 0 l 1
 333.333007812 0 l 1
166.666992188 -83.3330078125 m 1
 166.666992188 0 l 1
 250 0 l 1
 250 -83.3330078125 l 1
 166.666992188 -83.3330078125 l 1
EndSplineSet
EndChar

StartChar: sterling
Encoding: 163 163 99
Width: 500
VWidth: 833
Flags: HW
LayerCount: 2
Back
Fore
SplineSet
166.666992188 500 m 1
 166.666992188 583.333007812 l 1
 250 583.333007812 l 1
 250 500 l 1
 166.666992188 500 l 1
250 500 m 1
 250 583.333007812 l 1
 333.333007812 583.333007812 l 1
 333.333007812 500 l 1
 250 500 l 1
83.3330078125 416.666992188 m 1
 83.3330078125 500 l 1
 166.666992188 500 l 1
 166.666992188 416.666992188 l 1
 83.3330078125 416.666992188 l 1
333.333007812 416.666992188 m 1
 333.333007812 500 l 1
 416.666992188 500 l 1
 416.666992188 416.666992188 l 1
 333.333007812 416.666992188 l 1
83.3330078125 333.333007812 m 1
 83.3330078125 416.666992188 l 1
 166.666992188 416.666992188 l 1
 166.666992188 333.333007812 l 1
 83.3330078125 333.333007812 l 1
0 250 m 1
 0 333.333007812 l 1
 83.3330078125 333.333007812 l 1
 83.3330078125 250 l 1
 0 250 l 1
83.3330078125 250 m 1
 83.3330078125 333.333007812 l 1
 166.666992188 333.333007812 l 1
 166.666992188 250 l 1
 83.3330078125 250 l 1
166.666992188 250 m 1
 166.666992188 333.333007812 l 1
 250 333.333007812 l 1
 250 250 l 1
 166.666992188 250 l 1
83.3330078125 166.666992188 m 1
 83.3330078125 250 l 1
 166.666992188 250 l 1
 166.666992188 166.666992188 l 1
 83.3330078125 166.666992188 l 1
83.3330078125 83.3330078125 m 1
 83.3330078125 166.666992188 l 1
 166.666992188 166.666992188 l 1
 166.666992188 83.3330078125 l 1
 83.3330078125 83.3330078125 l 1
333.333007812 83.3330078125 m 1
 333.333007812 166.666992188 l 1
 416.666992188 166.666992188 l 1
 416.666992188 83.3330078125 l 1
 333.333007812 83.3330078125 l 1
0 0 m 1
 0 83.3330078125 l 1
 83.3330078125 83.3330078125 l 1
 83.3330078125 0 l 1
 0 0 l 1
166.666992188 0 m 1
 166.666992188 83.3330078125 l 1
 250 83.3330078125 l 1
 250 0 l 1
 166.666992188 0 l 1
250 0 m 1
 250 83.3330078125 l 1
 333.333007812 83.3330078125 l 1
 333.333007812 0 l 1
 250 0 l 1
EndSplineSet
EndChar

StartChar: currency
Encoding: 164 164 100
Width: 500
VWidth: 833
Flags: HW
LayerCount: 2
Back
Fore
SplineSet
0 333.333007812 m 1
 0 416.666992188 l 1
 83.3330078125 416.666992188 l 1
 83.3330078125 333.333007812 l 1
 0 333.333007812 l 1
333.333007812 333.333007812 m 1
 333.333007812 416.666992188 l 1
 416.666992188 416.666992188 l 1
 416.666992188 333.333007812 l 1
 333.333007812 333.333007812 l 1
83.3330078125 250 m 1
 83.3330078125 333.333007812 l 1
 166.666992188 333.333007812 l 1
 166.666992188 250 l 1
 83.3330078125 250 l 1
166.666992188 250 m 1
 166.666992188 333.333007812 l 1
 250 333.333007812 l 1
 250 250 l 1
 166.666992188 250 l 1
250 250 m 1
 250 333.333007812 l 1
 333.333007812 333.333007812 l 1
 333.333007812 250 l 1
 250 250 l 1
83.3330078125 166.666992188 m 1
 83.3330078125 250 l 1
 166.666992188 250 l 1
 166.666992188 166.666992188 l 1
 83.3330078125 166.666992188 l 1
250 166.666992188 m 1
 250 250 l 1
 333.333007812 250 l 1
 333.333007812 166.666992188 l 1
 250 166.666992188 l 1
83.3330078125 83.3330078125 m 1
 83.3330078125 166.666992188 l 1
 166.666992188 166.666992188 l 1
 166.666992188 83.3330078125 l 1
 83.3330078125 83.3330078125 l 1
166.666992188 83.3330078125 m 1
 166.666992188 166.666992188 l 1
 250 166.666992188 l 1
 250 83.3330078125 l 1
 166.666992188 83.3330078125 l 1
250 83.3330078125 m 1
 250 166.666992188 l 1
 333.333007812 166.666992188 l 1
 333.333007812 83.3330078125 l 1
 250 83.3330078125 l 1
0 0 m 1
 0 83.3330078125 l 1
 83.3330078125 83.3330078125 l 1
 83.3330078125 0 l 1
 0 0 l 1
333.333007812 0 m 1
 333.333007812 83.3330078125 l 1
 416.666992188 83.3330078125 l 1
 416.666992188 0 l 1
 333.333007812 0 l 1
EndSplineSet
EndChar

StartChar: yen
Encoding: 165 165 101
Width: 500
VWidth: 833
Flags: HW
LayerCount: 2
Back
Fore
SplineSet
0 500 m 1
 0 583.333007812 l 1
 83.3330078125 583.333007812 l 1
 83.3330078125 500 l 1
 0 500 l 1
333.333007812 500 m 1
 333.333007812 583.333007812 l 1
 416.666992188 583.333007812 l 1
 416.666992188 500 l 1
 333.333007812 500 l 1
0 416.666992188 m 1
 0 500 l 1
 83.3330078125 500 l 1
 83.3330078125 416.666992188 l 1
 0 416.666992188 l 1
333.333007812 416.666992188 m 1
 333.333007812 500 l 1
 416.666992188 500 l 1
 416.666992188 416.666992188 l 1
 333.333007812 416.666992188 l 1
83.3330078125 333.333007812 m 1
 83.3330078125 416.666992188 l 1
 166.666992188 416.666992188 l 1
 166.666992188 333.333007812 l 1
 83.3330078125 333.333007812 l 1
250 333.333007812 m 1
 250 416.666992188 l 1
 333.333007812 416.666992188 l 1
 333.333007812 333.333007812 l 1
 250 333.333007812 l 1
166.666992188 250 m 1
 166.666992188 333.333007812 l 1
 250 333.333007812 l 1
 250 250 l 1
 166.666992188 250 l 1
0 166.666992188 m 1
 0 250 l 1
 83.3330078125 250 l 1
 83.3330078125 166.666992188 l 1
 0 166.666992188 l 1
83.3330078125 166.666992188 m 1
 83.3330078125 250 l 1
 166.666992188 250 l 1
 166.666992188 166.666992188 l 1
 83.3330078125 166.666992188 l 1
166.666992188 166.666992188 m 1
 166.666992188 250 l 1
 250 250 l 1
 250 166.666992188 l 1
 166.666992188 166.666992188 l 1
250 166.666992188 m 1
 250 250 l 1
 333.333007812 250 l 1
 333.333007812 166.666992188 l 1
 250 166.666992188 l 1
333.333007812 166.666992188 m 1
 333.333007812 250 l 1
 416.666992188 250 l 1
 416.666992188 166.666992188 l 1
 333.333007812 166.666992188 l 1
166.666992188 83.3330078125 m 1
 166.666992188 166.666992188 l 1
 250 166.666992188 l 1
 250 83.3330078125 l 1
 166.666992188 83.3330078125 l 1
166.666992188 0 m 1
 166.666992188 83.3330078125 l 1
 250 83.3330078125 l 1
 250 0 l 1
 166.666992188 0 l 1
166.666992188 -83.3330078125 m 1
 166.666992188 0 l 1
 250 0 l 1
 250 -83.3330078125 l 1
 166.666992188 -83.3330078125 l 1
EndSplineSet
EndChar

StartChar: brokenbar
Encoding: 166 166 102
Width: 500
VWidth: 833
Flags: HW
LayerCount: 2
Back
Fore
SplineSet
166.666992188 500 m 1
 166.666992188 583.333007812 l 1
 250 583.333007812 l 1
 250 500 l 1
 166.666992188 500 l 1
166.666992188 416.666992188 m 1
 166.666992188 500 l 1
 250 500 l 1
 250 416.666992188 l 1
 166.666992188 416.666992188 l 1
166.666992188 333.333007812 m 1
 166.666992188 416.666992188 l 1
 250 416.666992188 l 1
 250 333.333007812 l 1
 166.666992188 333.333007812 l 1
166.666992188 166.666992188 m 1
 166.666992188 250 l 1
 250 250 l 1
 250 166.666992188 l 1
 166.666992188 166.666992188 l 1
166.666992188 83.3330078125 m 1
 166.666992188 166.666992188 l 1
 250 166.666992188 l 1
 250 83.3330078125 l 1
 166.666992188 83.3330078125 l 1
166.666992188 0 m 1
 166.666992188 83.3330078125 l 1
 250 83.3330078125 l 1
 250 0 l 1
 166.666992188 0 l 1
EndSplineSet
EndChar

StartChar: section
Encoding: 167 167 103
Width: 500
VWidth: 833
Flags: HW
LayerCount: 2
Back
Fore
SplineSet
83.3330078125 500 m 1
 83.3330078125 583.333007812 l 1
 166.666992188 583.333007812 l 1
 166.666992188 500 l 1
 83.3330078125 500 l 1
166.666992188 500 m 1
 166.666992188 583.333007812 l 1
 250 583.333007812 l 1
 250 500 l 1
 166.666992188 500 l 1
250 500 m 1
 250 583.333007812 l 1
 333.333007812 583.333007812 l 1
 333.333007812 500 l 1
 250 500 l 1
0 416.666992188 m 1
 0 500 l 1
 83.3330078125 500 l 1
 83.3330078125 416.666992188 l 1
 0 416.666992188 l 1
0 333.333007812 m 1
 0 416.666992188 l 1
 83.3330078125 416.666992188 l 1
 83.3330078125 333.333007812 l 1
 0 333.333007812 l 1
83.3330078125 333.333007812 m 1
 83.3330078125 416.666992188 l 1
 166.666992188 416.666992188 l 1
 166.666992188 333.333007812 l 1
 83.3330078125 333.333007812 l 1
166.666992188 333.333007812 m 1
 166.666992188 416.666992188 l 1
 250 416.666992188 l 1
 250 333.333007812 l 1
 166.666992188 333.333007812 l 1
0 250 m 1
 0 333.333007812 l 1
 83.3330078125 333.333007812 l 1
 83.3330078125 250 l 1
 0 250 l 1
250 250 m 1
 250 333.333007812 l 1
 333.333007812 333.333007812 l 1
 333.333007812 250 l 1
 250 250 l 1
83.3330078125 166.666992188 m 1
 83.3330078125 250 l 1
 166.666992188 250 l 1
 166.666992188 166.666992188 l 1
 83.3330078125 166.666992188 l 1
333.333007812 166.666992188 m 1
 333.333007812 250 l 1
 416.666992188 250 l 1
 416.666992188 166.666992188 l 1
 333.333007812 166.666992188 l 1
166.666992188 83.3330078125 m 1
 166.666992188 166.666992188 l 1
 250 166.666992188 l 1
 250 83.3330078125 l 1
 166.666992188 83.3330078125 l 1
250 83.3330078125 m 1
 250 166.666992188 l 1
 333.333007812 166.666992188 l 1
 333.333007812 83.3330078125 l 1
 250 83.3330078125 l 1
333.333007812 83.3330078125 m 1
 333.333007812 166.666992188 l 1
 416.666992188 166.666992188 l 1
 416.666992188 83.3330078125 l 1
 333.333007812 83.3330078125 l 1
333.333007812 0 m 1
 333.333007812 83.3330078125 l 1
 416.666992188 83.3330078125 l 1
 416.666992188 0 l 1
 333.333007812 0 l 1
83.3330078125 -83.3330078125 m 1
 83.3330078125 0 l 1
 166.666992188 0 l 1
 166.666992188 -83.3330078125 l 1
 83.3330078125 -83.3330078125 l 1
166.666992188 -83.3330078125 m 1
 166.666992188 0 l 1
 250 0 l 1
 250 -83.3330078125 l 1
 166.666992188 -83.3330078125 l 1
250 -83.3330078125 m 1
 250 0 l 1
 333.333007812 0 l 1
 333.333007812 -83.3330078125 l 1
 250 -83.3330078125 l 1
EndSplineSet
EndChar

StartChar: dieresis
Encoding: 168 168 104
Width: 500
VWidth: 833
Flags: HW
LayerCount: 2
Back
Fore
SplineSet
83.3330078125 583.333007812 m 1
 83.3330078125 666.666992188 l 1
 166.666992188 666.666992188 l 1
 166.666992188 583.333007812 l 1
 83.3330078125 583.333007812 l 1
250 583.333007812 m 1
 250 666.666992188 l 1
 333.333007812 666.666992188 l 1
 333.333007812 583.333007812 l 1
 250 583.333007812 l 1
EndSplineSet
EndChar

StartChar: copyright
Encoding: 169 169 105
Width: 500
VWidth: 833
Flags: HW
LayerCount: 2
Back
Fore
SplineSet
83.3330078125 500 m 1
 83.3330078125 583.333007812 l 1
 166.666992188 583.333007812 l 1
 166.666992188 500 l 1
 83.3330078125 500 l 1
166.666992188 500 m 1
 166.666992188 583.333007812 l 1
 250 583.333007812 l 1
 250 500 l 1
 166.666992188 500 l 1
250 500 m 1
 250 583.333007812 l 1
 333.333007812 583.333007812 l 1
 333.333007812 500 l 1
 250 500 l 1
0 416.666992188 m 1
 0 500 l 1
 83.3330078125 500 l 1
 83.3330078125 416.666992188 l 1
 0 416.666992188 l 1
333.333007812 416.666992188 m 1
 333.333007812 500 l 1
 416.666992188 500 l 1
 416.666992188 416.666992188 l 1
 333.333007812 416.666992188 l 1
0 333.333007812 m 1
 0 416.666992188 l 1
 83.3330078125 416.666992188 l 1
 83.3330078125 333.333007812 l 1
 0 333.333007812 l 1
166.666992188 333.333007812 m 1
 166.666992188 416.666992188 l 1
 250 416.666992188 l 1
 250 333.333007812 l 1
 166.666992188 333.333007812 l 1
333.333007812 333.333007812 m 1
 333.333007812 416.666992188 l 1
 416.666992188 416.666992188 l 1
 416.666992188 333.333007812 l 1
 333.333007812 333.333007812 l 1
0 250 m 1
 0 333.333007812 l 1
 83.3330078125 333.333007812 l 1
 83.3330078125 250 l 1
 0 250 l 1
83.3330078125 250 m 1
 83.3330078125 333.333007812 l 1
 166.666992188 333.333007812 l 1
 166.666992188 250 l 1
 83.3330078125 250 l 1
333.333007812 250 m 1
 333.333007812 333.333007812 l 1
 416.666992188 333.333007812 l 1
 416.666992188 250 l 1
 333.333007812 250 l 1
0 166.666992188 m 1
 0 250 l 1
 83.3330078125 250 l 1
 83.3330078125 166.666992188 l 1
 0 166.666992188 l 1
166.666992188 166.666992188 m 1
 166.666992188 250 l 1
 250 250 l 1
 250 166.666992188 l 1
 166.666992188 166.666992188 l 1
333.333007812 166.666992188 m 1
 333.333007812 250 l 1
 416.666992188 250 l 1
 416.666992188 166.666992188 l 1
 333.333007812 166.666992188 l 1
0 83.3330078125 m 1
 0 166.666992188 l 1
 83.3330078125 166.666992188 l 1
 83.3330078125 83.3330078125 l 1
 0 83.3330078125 l 1
333.333007812 83.3330078125 m 1
 333.333007812 166.666992188 l 1
 416.666992188 166.666992188 l 1
 416.666992188 83.3330078125 l 1
 333.333007812 83.3330078125 l 1
83.3330078125 0 m 1
 83.3330078125 83.3330078125 l 1
 166.666992188 83.3330078125 l 1
 166.666992188 0 l 1
 83.3330078125 0 l 1
166.666992188 0 m 1
 166.666992188 83.3330078125 l 1
 250 83.3330078125 l 1
 250 0 l 1
 166.666992188 0 l 1
250 0 m 1
 250 83.3330078125 l 1
 333.333007812 83.3330078125 l 1
 333.333007812 0 l 1
 250 0 l 1
EndSplineSet
EndChar

StartChar: ordfeminine
Encoding: 170 170 106
Width: 500
VWidth: 833
Flags: HW
LayerCount: 2
Back
Fore
SplineSet
166.666992188 500 m 1
 166.666992188 583.333007812 l 1
 250 583.333007812 l 1
 250 500 l 1
 166.666992188 500 l 1
250 500 m 1
 250 583.333007812 l 1
 333.333007812 583.333007812 l 1
 333.333007812 500 l 1
 250 500 l 1
333.333007812 500 m 1
 333.333007812 583.333007812 l 1
 416.666992188 583.333007812 l 1
 416.666992188 500 l 1
 333.333007812 500 l 1
83.3330078125 416.666992188 m 1
 83.3330078125 500 l 1
 166.666992188 500 l 1
 166.666992188 416.666992188 l 1
 83.3330078125 416.666992188 l 1
333.333007812 416.666992188 m 1
 333.333007812 500 l 1
 416.666992188 500 l 1
 416.666992188 416.666992188 l 1
 333.333007812 416.666992188 l 1
83.3330078125 333.333007812 m 1
 83.3330078125 416.666992188 l 1
 166.666992188 416.666992188 l 1
 166.666992188 333.333007812 l 1
 83.3330078125 333.333007812 l 1
250 333.333007812 m 1
 250 416.666992188 l 1
 333.333007812 416.666992188 l 1
 333.333007812 333.333007812 l 1
 250 333.333007812 l 1
333.333007812 333.333007812 m 1
 333.333007812 416.666992188 l 1
 416.666992188 416.666992188 l 1
 416.666992188 333.333007812 l 1
 333.333007812 333.333007812 l 1
166.666992188 250 m 1
 166.666992188 333.333007812 l 1
 250 333.333007812 l 1
 250 250 l 1
 166.666992188 250 l 1
333.333007812 250 m 1
 333.333007812 333.333007812 l 1
 416.666992188 333.333007812 l 1
 416.666992188 250 l 1
 333.333007812 250 l 1
83.3330078125 83.3330078125 m 1
 83.3330078125 166.666992188 l 1
 166.666992188 166.666992188 l 1
 166.666992188 83.3330078125 l 1
 83.3330078125 83.3330078125 l 1
166.666992188 83.3330078125 m 1
 166.666992188 166.666992188 l 1
 250 166.666992188 l 1
 250 83.3330078125 l 1
 166.666992188 83.3330078125 l 1
250 83.3330078125 m 1
 250 166.666992188 l 1
 333.333007812 166.666992188 l 1
 333.333007812 83.3330078125 l 1
 250 83.3330078125 l 1
333.333007812 83.3330078125 m 1
 333.333007812 166.666992188 l 1
 416.666992188 166.666992188 l 1
 416.666992188 83.3330078125 l 1
 333.333007812 83.3330078125 l 1
EndSplineSet
EndChar

StartChar: guillemotleft
Encoding: 171 171 107
Width: 500
VWidth: 833
Flags: HW
LayerCount: 2
Back
Fore
SplineSet
166.666992188 333.333007812 m 1
 166.666992188 416.666992188 l 1
 250 416.666992188 l 1
 250 333.333007812 l 1
 166.666992188 333.333007812 l 1
416.666992188 333.333007812 m 1
 416.666992188 416.666992188 l 1
 500 416.666992188 l 1
 500 333.333007812 l 1
 416.666992188 333.333007812 l 1
83.3330078125 250 m 1
 83.3330078125 333.333007812 l 1
 166.666992188 333.333007812 l 1
 166.666992188 250 l 1
 83.3330078125 250 l 1
333.333007812 250 m 1
 333.333007812 333.333007812 l 1
 416.666992188 333.333007812 l 1
 416.666992188 250 l 1
 333.333007812 250 l 1
0 166.666992188 m 1
 0 250 l 1
 83.3330078125 250 l 1
 83.3330078125 166.666992188 l 1
 0 166.666992188 l 1
250 166.666992188 m 1
 250 250 l 1
 333.333007812 250 l 1
 333.333007812 166.666992188 l 1
 250 166.666992188 l 1
83.3330078125 83.3330078125 m 1
 83.3330078125 166.666992188 l 1
 166.666992188 166.666992188 l 1
 166.666992188 83.3330078125 l 1
 83.3330078125 83.3330078125 l 1
333.333007812 83.3330078125 m 1
 333.333007812 166.666992188 l 1
 416.666992188 166.666992188 l 1
 416.666992188 83.3330078125 l 1
 333.333007812 83.3330078125 l 1
166.666992188 0 m 1
 166.666992188 83.3330078125 l 1
 250 83.3330078125 l 1
 250 0 l 1
 166.666992188 0 l 1
416.666992188 0 m 1
 416.666992188 83.3330078125 l 1
 500 83.3330078125 l 1
 500 0 l 1
 416.666992188 0 l 1
EndSplineSet
EndChar

StartChar: logicalnot
Encoding: 172 172 108
Width: 500
VWidth: 833
Flags: HW
LayerCount: 2
Back
Fore
SplineSet
83.3330078125 250 m 1
 83.3330078125 333.333007812 l 1
 166.666992188 333.333007812 l 1
 166.666992188 250 l 1
 83.3330078125 250 l 1
166.666992188 250 m 1
 166.666992188 333.333007812 l 1
 250 333.333007812 l 1
 250 250 l 1
 166.666992188 250 l 1
250 250 m 1
 250 333.333007812 l 1
 333.333007812 333.333007812 l 1
 333.333007812 250 l 1
 250 250 l 1
333.333007812 250 m 1
 333.333007812 333.333007812 l 1
 416.666992188 333.333007812 l 1
 416.666992188 250 l 1
 333.333007812 250 l 1
333.333007812 166.666992188 m 1
 333.333007812 250 l 1
 416.666992188 250 l 1
 416.666992188 166.666992188 l 1
 333.333007812 166.666992188 l 1
EndSplineSet
EndChar

StartChar: hyphen
Encoding: 45 45 109
Width: 500
VWidth: 833
Flags: HW
LayerCount: 2
Back
Fore
SplineSet
0 250 m 1
 0 333.333007812 l 1
 83.3330078125 333.333007812 l 1
 83.3330078125 250 l 1
 0 250 l 1
83.3330078125 250 m 1
 83.3330078125 333.333007812 l 1
 166.666992188 333.333007812 l 1
 166.666992188 250 l 1
 83.3330078125 250 l 1
166.666992188 250 m 1
 166.666992188 333.333007812 l 1
 250 333.333007812 l 1
 250 250 l 1
 166.666992188 250 l 1
250 250 m 1
 250 333.333007812 l 1
 333.333007812 333.333007812 l 1
 333.333007812 250 l 1
 250 250 l 1
333.333007812 250 m 1
 333.333007812 333.333007812 l 1
 416.666992188 333.333007812 l 1
 416.666992188 250 l 1
 333.333007812 250 l 1
EndSplineSet
EndChar

StartChar: registered
Encoding: 174 174 110
Width: 500
VWidth: 833
Flags: HW
LayerCount: 2
Back
Fore
SplineSet
83.3330078125 500 m 1
 83.3330078125 583.333007812 l 1
 166.666992188 583.333007812 l 1
 166.666992188 500 l 1
 83.3330078125 500 l 1
166.666992188 500 m 1
 166.666992188 583.333007812 l 1
 250 583.333007812 l 1
 250 500 l 1
 166.666992188 500 l 1
250 500 m 1
 250 583.333007812 l 1
 333.333007812 583.333007812 l 1
 333.333007812 500 l 1
 250 500 l 1
0 416.666992188 m 1
 0 500 l 1
 83.3330078125 500 l 1
 83.3330078125 416.666992188 l 1
 0 416.666992188 l 1
333.333007812 416.666992188 m 1
 333.333007812 500 l 1
 416.666992188 500 l 1
 416.666992188 416.666992188 l 1
 333.333007812 416.666992188 l 1
0 333.333007812 m 1
 0 416.666992188 l 1
 83.3330078125 416.666992188 l 1
 83.3330078125 333.333007812 l 1
 0 333.333007812 l 1
83.3330078125 333.333007812 m 1
 83.3330078125 416.666992188 l 1
 166.666992188 416.666992188 l 1
 166.666992188 333.333007812 l 1
 83.3330078125 333.333007812 l 1
166.666992188 333.333007812 m 1
 166.666992188 416.666992188 l 1
 250 416.666992188 l 1
 250 333.333007812 l 1
 166.666992188 333.333007812 l 1
333.333007812 333.333007812 m 1
 333.333007812 416.666992188 l 1
 416.666992188 416.666992188 l 1
 416.666992188 333.333007812 l 1
 333.333007812 333.333007812 l 1
0 250 m 1
 0 333.333007812 l 1
 83.3330078125 333.333007812 l 1
 83.3330078125 250 l 1
 0 250 l 1
83.3330078125 250 m 1
 83.3330078125 333.333007812 l 1
 166.666992188 333.333007812 l 1
 166.666992188 250 l 1
 83.3330078125 250 l 1
333.333007812 250 m 1
 333.333007812 333.333007812 l 1
 416.666992188 333.333007812 l 1
 416.666992188 250 l 1
 333.333007812 250 l 1
0 166.666992188 m 1
 0 250 l 1
 83.3330078125 250 l 1
 83.3330078125 166.666992188 l 1
 0 166.666992188 l 1
83.3330078125 166.666992188 m 1
 83.3330078125 250 l 1
 166.666992188 250 l 1
 166.666992188 166.666992188 l 1
 83.3330078125 166.666992188 l 1
333.333007812 166.666992188 m 1
 333.333007812 250 l 1
 416.666992188 250 l 1
 416.666992188 166.666992188 l 1
 333.333007812 166.666992188 l 1
0 83.3330078125 m 1
 0 166.666992188 l 1
 83.3330078125 166.666992188 l 1
 83.3330078125 83.3330078125 l 1
 0 83.3330078125 l 1
333.333007812 83.3330078125 m 1
 333.333007812 166.666992188 l 1
 416.666992188 166.666992188 l 1
 416.666992188 83.3330078125 l 1
 333.333007812 83.3330078125 l 1
83.3330078125 0 m 1
 83.3330078125 83.3330078125 l 1
 166.666992188 83.3330078125 l 1
 166.666992188 0 l 1
 83.3330078125 0 l 1
166.666992188 0 m 1
 166.666992188 83.3330078125 l 1
 250 83.3330078125 l 1
 250 0 l 1
 166.666992188 0 l 1
250 0 m 1
 250 83.3330078125 l 1
 333.333007812 83.3330078125 l 1
 333.333007812 0 l 1
 250 0 l 1
EndSplineSet
EndChar

StartChar: degree
Encoding: 176 176 112
Width: 500
VWidth: 833
Flags: HW
LayerCount: 2
Back
Fore
SplineSet
166.666992188 500 m 1
 166.666992188 583.333007812 l 1
 250 583.333007812 l 1
 250 500 l 1
 166.666992188 500 l 1
83.3330078125 416.666992188 m 1
 83.3330078125 500 l 1
 166.666992188 500 l 1
 166.666992188 416.666992188 l 1
 83.3330078125 416.666992188 l 1
250 416.666992188 m 1
 250 500 l 1
 333.333007812 500 l 1
 333.333007812 416.666992188 l 1
 250 416.666992188 l 1
166.666992188 333.333007812 m 1
 166.666992188 416.666992188 l 1
 250 416.666992188 l 1
 250 333.333007812 l 1
 166.666992188 333.333007812 l 1
EndSplineSet
EndChar

StartChar: plusminus
Encoding: 177 177 113
Width: 500
VWidth: 833
Flags: HW
LayerCount: 2
Back
Fore
SplineSet
166.666992188 416.666992188 m 1
 166.666992188 500 l 1
 250 500 l 1
 250 416.666992188 l 1
 166.666992188 416.666992188 l 1
166.666992188 333.333007812 m 1
 166.666992188 416.666992188 l 1
 250 416.666992188 l 1
 250 333.333007812 l 1
 166.666992188 333.333007812 l 1
0 250 m 1
 0 333.333007812 l 1
 83.3330078125 333.333007812 l 1
 83.3330078125 250 l 1
 0 250 l 1
83.3330078125 250 m 1
 83.3330078125 333.333007812 l 1
 166.666992188 333.333007812 l 1
 166.666992188 250 l 1
 83.3330078125 250 l 1
166.666992188 250 m 1
 166.666992188 333.333007812 l 1
 250 333.333007812 l 1
 250 250 l 1
 166.666992188 250 l 1
250 250 m 1
 250 333.333007812 l 1
 333.333007812 333.333007812 l 1
 333.333007812 250 l 1
 250 250 l 1
333.333007812 250 m 1
 333.333007812 333.333007812 l 1
 416.666992188 333.333007812 l 1
 416.666992188 250 l 1
 333.333007812 250 l 1
166.666992188 166.666992188 m 1
 166.666992188 250 l 1
 250 250 l 1
 250 166.666992188 l 1
 166.666992188 166.666992188 l 1
166.666992188 83.3330078125 m 1
 166.666992188 166.666992188 l 1
 250 166.666992188 l 1
 250 83.3330078125 l 1
 166.666992188 83.3330078125 l 1
0 0 m 1
 0 83.3330078125 l 1
 83.3330078125 83.3330078125 l 1
 83.3330078125 0 l 1
 0 0 l 1
83.3330078125 0 m 1
 83.3330078125 83.3330078125 l 1
 166.666992188 83.3330078125 l 1
 166.666992188 0 l 1
 83.3330078125 0 l 1
166.666992188 0 m 1
 166.666992188 83.3330078125 l 1
 250 83.3330078125 l 1
 250 0 l 1
 166.666992188 0 l 1
250 0 m 1
 250 83.3330078125 l 1
 333.333007812 83.3330078125 l 1
 333.333007812 0 l 1
 250 0 l 1
333.333007812 0 m 1
 333.333007812 83.3330078125 l 1
 416.666992188 83.3330078125 l 1
 416.666992188 0 l 1
 333.333007812 0 l 1
EndSplineSet
EndChar

StartChar: twosuperior
Encoding: 178 178 114
Width: 500
VWidth: 833
Flags: HW
LayerCount: 2
Back
Fore
SplineSet
166.666992188 583.333007812 m 1
 166.666992188 666.666992188 l 1
 250 666.666992188 l 1
 250 583.333007812 l 1
 166.666992188 583.333007812 l 1
250 583.333007812 m 1
 250 666.666992188 l 1
 333.333007812 666.666992188 l 1
 333.333007812 583.333007812 l 1
 250 583.333007812 l 1
83.3330078125 500 m 1
 83.3330078125 583.333007812 l 1
 166.666992188 583.333007812 l 1
 166.666992188 500 l 1
 83.3330078125 500 l 1
333.333007812 500 m 1
 333.333007812 583.333007812 l 1
 416.666992188 583.333007812 l 1
 416.666992188 500 l 1
 333.333007812 500 l 1
250 416.666992188 m 1
 250 500 l 1
 333.333007812 500 l 1
 333.333007812 416.666992188 l 1
 250 416.666992188 l 1
166.666992188 333.333007812 m 1
 166.666992188 416.666992188 l 1
 250 416.666992188 l 1
 250 333.333007812 l 1
 166.666992188 333.333007812 l 1
83.3330078125 250 m 1
 83.3330078125 333.333007812 l 1
 166.666992188 333.333007812 l 1
 166.666992188 250 l 1
 83.3330078125 250 l 1
166.666992188 250 m 1
 166.666992188 333.333007812 l 1
 250 333.333007812 l 1
 250 250 l 1
 166.666992188 250 l 1
250 250 m 1
 250 333.333007812 l 1
 333.333007812 333.333007812 l 1
 333.333007812 250 l 1
 250 250 l 1
333.333007812 250 m 1
 333.333007812 333.333007812 l 1
 416.666992188 333.333007812 l 1
 416.666992188 250 l 1
 333.333007812 250 l 1
EndSplineSet
EndChar

StartChar: threesuperior
Encoding: 179 179 115
Width: 500
VWidth: 833
Flags: HW
LayerCount: 2
Back
Fore
SplineSet
83.3330078125 583.333007812 m 1
 83.3330078125 666.666992188 l 1
 166.666992188 666.666992188 l 1
 166.666992188 583.333007812 l 1
 83.3330078125 583.333007812 l 1
166.666992188 583.333007812 m 1
 166.666992188 666.666992188 l 1
 250 666.666992188 l 1
 250 583.333007812 l 1
 166.666992188 583.333007812 l 1
250 583.333007812 m 1
 250 666.666992188 l 1
 333.333007812 666.666992188 l 1
 333.333007812 583.333007812 l 1
 250 583.333007812 l 1
333.333007812 500 m 1
 333.333007812 583.333007812 l 1
 416.666992188 583.333007812 l 1
 416.666992188 500 l 1
 333.333007812 500 l 1
166.666992188 416.666992188 m 1
 166.666992188 500 l 1
 250 500 l 1
 250 416.666992188 l 1
 166.666992188 416.666992188 l 1
250 416.666992188 m 1
 250 500 l 1
 333.333007812 500 l 1
 333.333007812 416.666992188 l 1
 250 416.666992188 l 1
333.333007812 333.333007812 m 1
 333.333007812 416.666992188 l 1
 416.666992188 416.666992188 l 1
 416.666992188 333.333007812 l 1
 333.333007812 333.333007812 l 1
83.3330078125 250 m 1
 83.3330078125 333.333007812 l 1
 166.666992188 333.333007812 l 1
 166.666992188 250 l 1
 83.3330078125 250 l 1
166.666992188 250 m 1
 166.666992188 333.333007812 l 1
 250 333.333007812 l 1
 250 250 l 1
 166.666992188 250 l 1
250 250 m 1
 250 333.333007812 l 1
 333.333007812 333.333007812 l 1
 333.333007812 250 l 1
 250 250 l 1
EndSplineSet
EndChar

StartChar: acute
Encoding: 180 180 116
Width: 500
VWidth: 833
Flags: HW
LayerCount: 2
Back
Fore
SplineSet
250 583.333007812 m 1
 250 666.666992188 l 1
 333.333007812 666.666992188 l 1
 333.333007812 583.333007812 l 1
 250 583.333007812 l 1
166.666992188 500 m 1
 166.666992188 583.333007812 l 1
 250 583.333007812 l 1
 250 500 l 1
 166.666992188 500 l 1
EndSplineSet
EndChar

StartChar: paragraph
Encoding: 182 182 118
Width: 500
VWidth: 833
Flags: HW
LayerCount: 2
Back
Fore
SplineSet
83.3330078125 500 m 1
 83.3330078125 583.333007812 l 1
 166.666992188 583.333007812 l 1
 166.666992188 500 l 1
 83.3330078125 500 l 1
166.666992188 500 m 1
 166.666992188 583.333007812 l 1
 250 583.333007812 l 1
 250 500 l 1
 166.666992188 500 l 1
250 500 m 1
 250 583.333007812 l 1
 333.333007812 583.333007812 l 1
 333.333007812 500 l 1
 250 500 l 1
333.333007812 500 m 1
 333.333007812 583.333007812 l 1
 416.666992188 583.333007812 l 1
 416.666992188 500 l 1
 333.333007812 500 l 1
0 416.666992188 m 1
 0 500 l 1
 83.3330078125 500 l 1
 83.3330078125 416.666992188 l 1
 0 416.666992188 l 1
83.3330078125 416.666992188 m 1
 83.3330078125 500 l 1
 166.666992188 500 l 1
 166.666992188 416.666992188 l 1
 83.3330078125 416.666992188 l 1
166.666992188 416.666992188 m 1
 166.666992188 500 l 1
 250 500 l 1
 250 416.666992188 l 1
 166.666992188 416.666992188 l 1
333.333007812 416.666992188 m 1
 333.333007812 500 l 1
 416.666992188 500 l 1
 416.666992188 416.666992188 l 1
 333.333007812 416.666992188 l 1
0 333.333007812 m 1
 0 416.666992188 l 1
 83.3330078125 416.666992188 l 1
 83.3330078125 333.333007812 l 1
 0 333.333007812 l 1
83.3330078125 333.333007812 m 1
 83.3330078125 416.666992188 l 1
 166.666992188 416.666992188 l 1
 166.666992188 333.333007812 l 1
 83.3330078125 333.333007812 l 1
166.666992188 333.333007812 m 1
 166.666992188 416.666992188 l 1
 250 416.666992188 l 1
 250 333.333007812 l 1
 166.666992188 333.333007812 l 1
333.333007812 333.333007812 m 1
 333.333007812 416.666992188 l 1
 416.666992188 416.666992188 l 1
 416.666992188 333.333007812 l 1
 333.333007812 333.333007812 l 1
83.3330078125 250 m 1
 83.3330078125 333.333007812 l 1
 166.666992188 333.333007812 l 1
 166.666992188 250 l 1
 83.3330078125 250 l 1
166.666992188 250 m 1
 166.666992188 333.333007812 l 1
 250 333.333007812 l 1
 250 250 l 1
 166.666992188 250 l 1
333.333007812 250 m 1
 333.333007812 333.333007812 l 1
 416.666992188 333.333007812 l 1
 416.666992188 250 l 1
 333.333007812 250 l 1
166.666992188 166.666992188 m 1
 166.666992188 250 l 1
 250 250 l 1
 250 166.666992188 l 1
 166.666992188 166.666992188 l 1
333.333007812 166.666992188 m 1
 333.333007812 250 l 1
 416.666992188 250 l 1
 416.666992188 166.666992188 l 1
 333.333007812 166.666992188 l 1
166.666992188 83.3330078125 m 1
 166.666992188 166.666992188 l 1
 250 166.666992188 l 1
 250 83.3330078125 l 1
 166.666992188 83.3330078125 l 1
333.333007812 83.3330078125 m 1
 333.333007812 166.666992188 l 1
 416.666992188 166.666992188 l 1
 416.666992188 83.3330078125 l 1
 333.333007812 83.3330078125 l 1
166.666992188 0 m 1
 166.666992188 83.3330078125 l 1
 250 83.3330078125 l 1
 250 0 l 1
 166.666992188 0 l 1
333.333007812 0 m 1
 333.333007812 83.3330078125 l 1
 416.666992188 83.3330078125 l 1
 416.666992188 0 l 1
 333.333007812 0 l 1
EndSplineSet
EndChar

StartChar: cedilla
Encoding: 184 184 120
Width: 500
VWidth: 833
Flags: HW
LayerCount: 2
Back
Fore
SplineSet
250 -83.3330078125 m 1
 250 0 l 1
 333.333007812 0 l 1
 333.333007812 -83.3330078125 l 1
 250 -83.3330078125 l 1
166.666992188 -166.666992188 m 1
 166.666992188 -83.3330078125 l 1
 250 -83.3330078125 l 1
 250 -166.666992188 l 1
 166.666992188 -166.666992188 l 1
EndSplineSet
EndChar

StartChar: onesuperior
Encoding: 185 185 121
Width: 500
VWidth: 833
Flags: HW
LayerCount: 2
Back
Fore
SplineSet
166.666992188 583.333007812 m 1
 166.666992188 666.666992188 l 1
 250 666.666992188 l 1
 250 583.333007812 l 1
 166.666992188 583.333007812 l 1
83.3330078125 500 m 1
 83.3330078125 583.333007812 l 1
 166.666992188 583.333007812 l 1
 166.666992188 500 l 1
 83.3330078125 500 l 1
166.666992188 500 m 1
 166.666992188 583.333007812 l 1
 250 583.333007812 l 1
 250 500 l 1
 166.666992188 500 l 1
166.666992188 416.666992188 m 1
 166.666992188 500 l 1
 250 500 l 1
 250 416.666992188 l 1
 166.666992188 416.666992188 l 1
166.666992188 333.333007812 m 1
 166.666992188 416.666992188 l 1
 250 416.666992188 l 1
 250 333.333007812 l 1
 166.666992188 333.333007812 l 1
83.3330078125 250 m 1
 83.3330078125 333.333007812 l 1
 166.666992188 333.333007812 l 1
 166.666992188 250 l 1
 83.3330078125 250 l 1
166.666992188 250 m 1
 166.666992188 333.333007812 l 1
 250 333.333007812 l 1
 250 250 l 1
 166.666992188 250 l 1
250 250 m 1
 250 333.333007812 l 1
 333.333007812 333.333007812 l 1
 333.333007812 250 l 1
 250 250 l 1
EndSplineSet
EndChar

StartChar: ordmasculine
Encoding: 186 186 122
Width: 500
VWidth: 833
Flags: HW
LayerCount: 2
Back
Fore
SplineSet
166.666992188 500 m 1
 166.666992188 583.333007812 l 1
 250 583.333007812 l 1
 250 500 l 1
 166.666992188 500 l 1
250 500 m 1
 250 583.333007812 l 1
 333.333007812 583.333007812 l 1
 333.333007812 500 l 1
 250 500 l 1
83.3330078125 416.666992188 m 1
 83.3330078125 500 l 1
 166.666992188 500 l 1
 166.666992188 416.666992188 l 1
 83.3330078125 416.666992188 l 1
333.333007812 416.666992188 m 1
 333.333007812 500 l 1
 416.666992188 500 l 1
 416.666992188 416.666992188 l 1
 333.333007812 416.666992188 l 1
83.3330078125 333.333007812 m 1
 83.3330078125 416.666992188 l 1
 166.666992188 416.666992188 l 1
 166.666992188 333.333007812 l 1
 83.3330078125 333.333007812 l 1
333.333007812 333.333007812 m 1
 333.333007812 416.666992188 l 1
 416.666992188 416.666992188 l 1
 416.666992188 333.333007812 l 1
 333.333007812 333.333007812 l 1
166.666992188 250 m 1
 166.666992188 333.333007812 l 1
 250 333.333007812 l 1
 250 250 l 1
 166.666992188 250 l 1
250 250 m 1
 250 333.333007812 l 1
 333.333007812 333.333007812 l 1
 333.333007812 250 l 1
 250 250 l 1
83.3330078125 83.3330078125 m 1
 83.3330078125 166.666992188 l 1
 166.666992188 166.666992188 l 1
 166.666992188 83.3330078125 l 1
 83.3330078125 83.3330078125 l 1
166.666992188 83.3330078125 m 1
 166.666992188 166.666992188 l 1
 250 166.666992188 l 1
 250 83.3330078125 l 1
 166.666992188 83.3330078125 l 1
250 83.3330078125 m 1
 250 166.666992188 l 1
 333.333007812 166.666992188 l 1
 333.333007812 83.3330078125 l 1
 250 83.3330078125 l 1
333.333007812 83.3330078125 m 1
 333.333007812 166.666992188 l 1
 416.666992188 166.666992188 l 1
 416.666992188 83.3330078125 l 1
 333.333007812 83.3330078125 l 1
EndSplineSet
EndChar

StartChar: guillemotright
Encoding: 187 187 123
Width: 500
VWidth: 833
Flags: HW
LayerCount: 2
Back
Fore
SplineSet
0 333.333007812 m 1
 0 416.666992188 l 1
 83.3330078125 416.666992188 l 1
 83.3330078125 333.333007812 l 1
 0 333.333007812 l 1
250 333.333007812 m 1
 250 416.666992188 l 1
 333.333007812 416.666992188 l 1
 333.333007812 333.333007812 l 1
 250 333.333007812 l 1
83.3330078125 250 m 1
 83.3330078125 333.333007812 l 1
 166.666992188 333.333007812 l 1
 166.666992188 250 l 1
 83.3330078125 250 l 1
333.333007812 250 m 1
 333.333007812 333.333007812 l 1
 416.666992188 333.333007812 l 1
 416.666992188 250 l 1
 333.333007812 250 l 1
166.666992188 166.666992188 m 1
 166.666992188 250 l 1
 250 250 l 1
 250 166.666992188 l 1
 166.666992188 166.666992188 l 1
416.666992188 166.666992188 m 1
 416.666992188 250 l 1
 500 250 l 1
 500 166.666992188 l 1
 416.666992188 166.666992188 l 1
83.3330078125 83.3330078125 m 1
 83.3330078125 166.666992188 l 1
 166.666992188 166.666992188 l 1
 166.666992188 83.3330078125 l 1
 83.3330078125 83.3330078125 l 1
333.333007812 83.3330078125 m 1
 333.333007812 166.666992188 l 1
 416.666992188 166.666992188 l 1
 416.666992188 83.3330078125 l 1
 333.333007812 83.3330078125 l 1
0 0 m 1
 0 83.3330078125 l 1
 83.3330078125 83.3330078125 l 1
 83.3330078125 0 l 1
 0 0 l 1
250 0 m 1
 250 83.3330078125 l 1
 333.333007812 83.3330078125 l 1
 333.333007812 0 l 1
 250 0 l 1
EndSplineSet
EndChar

StartChar: onequarter
Encoding: 188 188 124
Width: 500
VWidth: 833
Flags: HW
LayerCount: 2
Back
Fore
SplineSet
83.3330078125 583.333007812 m 1
 83.3330078125 666.666992188 l 1
 166.666992188 666.666992188 l 1
 166.666992188 583.333007812 l 1
 83.3330078125 583.333007812 l 1
0 500 m 1
 0 583.333007812 l 1
 83.3330078125 583.333007812 l 1
 83.3330078125 500 l 1
 0 500 l 1
83.3330078125 500 m 1
 83.3330078125 583.333007812 l 1
 166.666992188 583.333007812 l 1
 166.666992188 500 l 1
 83.3330078125 500 l 1
83.3330078125 416.666992188 m 1
 83.3330078125 500 l 1
 166.666992188 500 l 1
 166.666992188 416.666992188 l 1
 83.3330078125 416.666992188 l 1
83.3330078125 333.333007812 m 1
 83.3330078125 416.666992188 l 1
 166.666992188 416.666992188 l 1
 166.666992188 333.333007812 l 1
 83.3330078125 333.333007812 l 1
0 250 m 1
 0 333.333007812 l 1
 83.3330078125 333.333007812 l 1
 83.3330078125 250 l 1
 0 250 l 1
83.3330078125 250 m 1
 83.3330078125 333.333007812 l 1
 166.666992188 333.333007812 l 1
 166.666992188 250 l 1
 83.3330078125 250 l 1
166.666992188 250 m 1
 166.666992188 333.333007812 l 1
 250 333.333007812 l 1
 250 250 l 1
 166.666992188 250 l 1
416.666992188 250 m 1
 416.666992188 333.333007812 l 1
 500 333.333007812 l 1
 500 250 l 1
 416.666992188 250 l 1
333.333007812 166.666992188 m 1
 333.333007812 250 l 1
 416.666992188 250 l 1
 416.666992188 166.666992188 l 1
 333.333007812 166.666992188 l 1
416.666992188 166.666992188 m 1
 416.666992188 250 l 1
 500 250 l 1
 500 166.666992188 l 1
 416.666992188 166.666992188 l 1
250 83.3330078125 m 1
 250 166.666992188 l 1
 333.333007812 166.666992188 l 1
 333.333007812 83.3330078125 l 1
 250 83.3330078125 l 1
416.666992188 83.3330078125 m 1
 416.666992188 166.666992188 l 1
 500 166.666992188 l 1
 500 83.3330078125 l 1
 416.666992188 83.3330078125 l 1
166.666992188 0 m 1
 166.666992188 83.3330078125 l 1
 250 83.3330078125 l 1
 250 0 l 1
 166.666992188 0 l 1
250 0 m 1
 250 83.3330078125 l 1
 333.333007812 83.3330078125 l 1
 333.333007812 0 l 1
 250 0 l 1
333.333007812 0 m 1
 333.333007812 83.3330078125 l 1
 416.666992188 83.3330078125 l 1
 416.666992188 0 l 1
 333.333007812 0 l 1
416.666992188 0 m 1
 416.666992188 83.3330078125 l 1
 500 83.3330078125 l 1
 500 0 l 1
 416.666992188 0 l 1
416.666992188 -83.3330078125 m 1
 416.666992188 0 l 1
 500 0 l 1
 500 -83.3330078125 l 1
 416.666992188 -83.3330078125 l 1
EndSplineSet
EndChar

StartChar: onehalf
Encoding: 189 189 125
Width: 500
VWidth: 833
Flags: HW
LayerCount: 2
Back
Fore
SplineSet
83.3330078125 583.333007812 m 1
 83.3330078125 666.666992188 l 1
 166.666992188 666.666992188 l 1
 166.666992188 583.333007812 l 1
 83.3330078125 583.333007812 l 1
0 500 m 1
 0 583.333007812 l 1
 83.3330078125 583.333007812 l 1
 83.3330078125 500 l 1
 0 500 l 1
83.3330078125 500 m 1
 83.3330078125 583.333007812 l 1
 166.666992188 583.333007812 l 1
 166.666992188 500 l 1
 83.3330078125 500 l 1
83.3330078125 416.666992188 m 1
 83.3330078125 500 l 1
 166.666992188 500 l 1
 166.666992188 416.666992188 l 1
 83.3330078125 416.666992188 l 1
83.3330078125 333.333007812 m 1
 83.3330078125 416.666992188 l 1
 166.666992188 416.666992188 l 1
 166.666992188 333.333007812 l 1
 83.3330078125 333.333007812 l 1
0 250 m 1
 0 333.333007812 l 1
 83.3330078125 333.333007812 l 1
 83.3330078125 250 l 1
 0 250 l 1
83.3330078125 250 m 1
 83.3330078125 333.333007812 l 1
 166.666992188 333.333007812 l 1
 166.666992188 250 l 1
 83.3330078125 250 l 1
166.666992188 250 m 1
 166.666992188 333.333007812 l 1
 250 333.333007812 l 1
 250 250 l 1
 166.666992188 250 l 1
333.333007812 250 m 1
 333.333007812 333.333007812 l 1
 416.666992188 333.333007812 l 1
 416.666992188 250 l 1
 333.333007812 250 l 1
250 166.666992188 m 1
 250 250 l 1
 333.333007812 250 l 1
 333.333007812 166.666992188 l 1
 250 166.666992188 l 1
416.666992188 166.666992188 m 1
 416.666992188 250 l 1
 500 250 l 1
 500 166.666992188 l 1
 416.666992188 166.666992188 l 1
416.666992188 83.3330078125 m 1
 416.666992188 166.666992188 l 1
 500 166.666992188 l 1
 500 83.3330078125 l 1
 416.666992188 83.3330078125 l 1
333.333007812 0 m 1
 333.333007812 83.3330078125 l 1
 416.666992188 83.3330078125 l 1
 416.666992188 0 l 1
 333.333007812 0 l 1
250 -83.3330078125 m 1
 250 0 l 1
 333.333007812 0 l 1
 333.333007812 -83.3330078125 l 1
 250 -83.3330078125 l 1
333.333007812 -83.3330078125 m 1
 333.333007812 0 l 1
 416.666992188 0 l 1
 416.666992188 -83.3330078125 l 1
 333.333007812 -83.3330078125 l 1
416.666992188 -83.3330078125 m 1
 416.666992188 0 l 1
 500 0 l 1
 500 -83.3330078125 l 1
 416.666992188 -83.3330078125 l 1
EndSplineSet
EndChar

